<svg width="1149" height="1601" viewBox="0 0 1149 1601" fill="none" xmlns="http://www.w3.org/2000/svg">
<path d="M401.716 217.9C399.615 219.247 397.473 220.527 395.42 221.954C390.573 225.287 385.441 227.367 380.42 222.847C374.805 217.78 378.315 212.727 381.601 208.273C385.603 202.833 389.541 197.167 394.457 192.647C401.308 186.327 402.339 183.033 393.072 177.167C361.656 157.273 330.263 137.353 298.011 118.847C241.552 86.4201 184.321 55.4735 124.252 30.1668C111.399 24.7535 98.1031 19.5002 82.4251 21.3935C98.1396 49.9535 118.975 72.5535 142.856 92.2468C226.373 161.127 314.172 224.3 403.403 285.448C519.095 364.726 637.179 440.355 756.821 513.533C849.139 569.999 942.871 623.989 1039.65 672.479C1064.5 684.927 1089.24 698.248 1117.13 703.24C1120.63 703.864 1125.24 706.155 1127.49 702.281C1129.24 699.272 1125.87 695.997 1123.96 693.356C1110.76 675.053 1093.98 660.181 1077.35 645.172C1016.05 589.852 949.493 541.351 881.973 494.061C852.068 473.115 852.212 472.8 837.14 505.848C835.207 510.089 834.677 515.313 827.98 513.603C821.524 511.952 818.873 506.883 819.443 501.168C820.057 495.011 822.545 489.041 824.216 482.989C835.184 465.316 843.788 446.465 852.697 427.708C859.132 414.161 866.265 400.96 871.481 386.854C873.328 382.602 875.099 378.315 877.029 374.101C897.459 329.548 918.595 285.215 921.479 235.06C923.252 204.22 918.025 175.327 897.787 150.594C861.723 106.514 817.16 73.8602 764.771 51.9002C718.988 32.7002 671.085 26.0202 621.921 31.4869C561.939 38.1669 517.284 71.4735 480.579 117.007C474.545 124.5 465.433 130.607 465.529 141.967C461.567 142.26 458.993 144.1 456.376 147.394C445.553 161.034 433.904 174.007 423.091 187.647C415.429 197.313 406.465 206.153 401.716 217.9ZM327.945 259.26C300.241 235.14 269.429 215.14 240.145 193.113C184.453 151.22 126.941 111.46 80.874 58.1935C71.0063 46.7935 63.1803 34.5668 63.4969 18.5401C63.6729 9.63348 67.8052 3.06023 75.9505 1.68689C89.1573 -0.526441 102.392 0.166892 115.359 5.42023C152.933 20.6469 190.141 36.6202 225.688 56.1935C287.845 90.4335 350.051 124.607 408.74 164.673C414.052 168.3 416.023 166.86 419.792 162.554C444.829 133.98 464.963 101.394 492.149 74.5668C531.781 35.4602 579.593 14.9535 634.797 10.9002C708.801 5.46017 774.896 27.8869 835.68 68.4202C866.033 88.6736 894.141 111.514 915.361 141.767C943.993 182.567 946.049 227.647 935.585 274.235C926.448 314.924 907.735 352.091 890.753 389.835C882.785 407.549 874.643 425.189 866.345 442.752C862.684 450.499 862.524 455.664 870.969 461.541C909.099 488.083 947.196 514.747 984.129 542.907C1035.84 582.331 1087.47 621.993 1131.59 670.301C1137.39 676.661 1141.92 683.749 1145.42 691.385C1154.01 710.089 1143.41 726.005 1122.63 725.171C1108.59 724.607 1095.14 720.443 1082.34 714.667C990.133 673.075 902.495 622.967 815.468 571.697C809.811 568.365 804.757 563.18 797.344 563.596C793.021 558.309 788.044 554.103 780.812 553.636C779.879 552.293 779.247 550.436 777.965 549.681C717.849 514.301 659.237 476.52 600.332 439.193C590.999 433.279 582.801 424.361 570.683 423.348C569.611 421.052 569.649 418.049 566.647 416.967C559.205 412.592 551.764 408.217 544.321 403.843C542.696 402.921 541.071 402 539.444 401.079C502.905 376.697 466.368 352.313 429.828 327.932C428.123 327.053 426.419 326.175 424.713 325.296C416.436 317.141 405.803 312.416 396.423 305.865C395.032 305.301 393.64 304.736 392.249 304.171C381.868 293.727 369.344 286.333 356.659 279.171C347.336 272.176 338.751 264.113 327.945 259.26Z" fill="#AC9442"/>
<path d="M317.561 1457.95C315.983 1458.01 314.403 1458.05 312.824 1458.1C296.827 1455.19 280.683 1455.89 264.556 1456.1C193.607 1453.23 122.655 1450.39 51.7073 1447.47C30.9593 1446.61 30.7792 1446.49 31.1891 1425.65C33.7427 1295.95 47.088 1167.71 83.964 1042.75C97.6547 996.355 116.486 952.204 142.869 911.468C144.221 909.381 145.043 906.951 146.107 904.68C151.728 900.009 155.86 894.284 158.327 887.38C175.095 872.307 188.084 853.401 206.489 839.972C211.548 836.281 216.305 832.179 221.2 828.264C231.257 837.271 239.649 847.687 247.108 858.891C241.6 859.057 236.028 855.571 233.831 852.605C224.345 839.809 219.156 850.391 215.064 856.063C208.573 865.059 199.588 871.248 191.943 878.796C186.443 884.224 179.317 888.36 174.219 894.513C159.04 912.839 147.595 933.252 137.565 954.909C126.906 977.924 114.475 999.959 107.853 1024.8C101.906 1047.11 91.7088 1068.5 87.6787 1091.06C83.1932 1116.18 77.1203 1141.02 72.6407 1166.13C65.3339 1207.1 62.5563 1248.65 54.2521 1289.44C51.1943 1304.46 53.7151 1320.46 51.4588 1336.05C48.1177 1359.13 50.4495 1382.66 46.6656 1405.87C43.9369 1422.61 52.2959 1433.05 68.4932 1432.83C115.179 1432.21 161.655 1435.95 208.215 1438.06C241.101 1439.54 274.063 1439.13 306.96 1439.86C358.895 1441.01 410.819 1444.43 462.819 1443.29C481.851 1442.87 501.2 1441.3 519.881 1443.95C549.305 1448.13 578.351 1449.94 607.904 1446.06C623.705 1443.98 639.672 1441.5 655.779 1443.65C667.839 1445.25 679.881 1447.71 691.988 1448.11C749.003 1450.01 806.125 1445.22 863.097 1450.78C868.503 1451.3 873.396 1450.34 874.159 1443.41C876.236 1424.51 877.913 1405.59 876.564 1386.59C873.376 1341.73 870.043 1296.86 866.565 1252.02C865.363 1236.53 863.784 1221.05 858.775 1206.04C854.395 1216.48 858.585 1227.95 854.839 1239.27C850.308 1236.14 851.472 1232.52 851.471 1229.5C851.463 1216.64 853.793 1204.03 855.42 1191.39C857.436 1175.71 852.879 1158.92 849.693 1142.9C844.132 1114.94 837.709 1087.24 829.081 1059.9C820.081 1031.38 817.044 1000.86 797.289 976.467C796.103 975.001 796.189 972.505 795.683 970.488C808.985 981.084 823.425 990.549 831.375 1006.46C852.273 1068.06 866.389 1131.28 875.217 1195.63C880.601 1234.86 884.228 1274.33 888.705 1313.69C889.024 1316.5 888.476 1319.75 891.553 1321.63C888.376 1323.88 887.061 1326.2 888.232 1330.67C889.533 1335.65 892.699 1340.39 891.481 1345.94C891.481 1345.94 891.264 1346.22 891.269 1346.22C890.729 1347.25 890.184 1348.27 889.64 1349.3C890.453 1384.74 894.897 1420.06 892.12 1455.65C891.375 1465.19 888.176 1467.57 879.195 1467.71C820.841 1468.7 762.532 1466.62 704.205 1465.82C681.323 1462.01 658.311 1463.73 635.327 1464.22C633.808 1464.23 632.291 1464.26 630.771 1464.29C623.809 1464.13 616.849 1463.97 609.888 1463.82C536.751 1462.5 463.612 1461.22 390.477 1459.82C368.927 1459.42 347.381 1458.69 325.833 1458.1C323.115 1455.87 320.356 1455.89 317.561 1457.95Z" fill="#B14688"/>
<path d="M190.909 303.637C191.001 263.781 172.139 249.394 137.848 260.061C127.93 263.154 118.685 268.645 109.439 273.607C51.3839 304.765 55.2921 373.873 88.9745 410.437C93.2823 415.114 98.1885 416.647 104.517 417.249C121.446 418.858 131.337 408.137 142.783 398.538C173.752 372.567 188.273 339.087 190.909 303.637ZM247.111 858.89C239.649 847.687 231.257 837.271 221.2 828.265C219.944 819.691 212.919 814.69 207.895 808.985C185.103 783.106 176.031 751.758 171.099 718.957C167.028 691.882 165.112 664.57 165.291 637.055C165.464 610.157 172.488 585.858 185.211 562.254C193.143 547.539 197.471 530.903 203.724 515.253C206.805 507.538 201.184 507.199 196.5 505.509C169.505 495.771 143.044 485.085 119.765 467.637C88.9631 444.547 64.0995 416.962 53.8073 379.027C39.326 325.657 63.0875 268.151 119.818 246.087C135.901 239.834 153.291 240.047 169.884 242.407C194.108 245.861 218.493 246.767 242.768 248.927C271.295 251.461 299.58 255.407 327.927 259.261C338.751 264.114 347.336 272.177 356.656 279.174C342.085 277.526 327.44 277.133 312.859 275.009C280.043 270.229 247.041 266.727 214.143 262.501C207.571 261.647 206.007 264.647 206.065 270.357C206.224 285.586 207.157 300.895 205.983 316.034C203.252 351.209 186.097 380.113 162.589 405.034C150.187 418.183 134.609 428.138 117.237 434.367C111.309 436.493 110.603 439.813 115.066 443.402C142.669 465.61 172.417 483.189 208.433 488.386C223.281 490.53 240.444 487.571 250.727 503.414C252.977 506.881 257.364 510.141 255.217 514.287C253.308 517.977 248.277 515.863 244.643 516.011C238.731 516.254 232.796 516.138 226.877 515.957C222.624 515.826 220.121 517.098 218.317 521.502C211.127 539.063 203.52 556.459 195.839 573.814C181.689 605.782 182.289 639.59 183.293 673.415C184.727 721.686 192.316 767.167 225.913 806.13C247.713 831.411 268.544 855.875 300.588 868.275C318.651 875.265 335.711 884.429 352.099 894.922C380.403 913.043 411.467 921.761 444.983 917.022C468.875 913.643 492.712 911.605 516.756 912.473C527.873 912.873 538.893 911.281 549.343 908.935C617.299 893.687 676.384 862.414 722.309 808.947C754.432 771.551 774.004 727.587 782.035 679.565C788.999 637.925 786.784 595.567 780.812 553.637C788.044 554.103 793.021 558.31 797.344 563.597C804.336 587.255 806.745 611.779 804.816 635.975C802.081 670.255 796.903 704.274 784.272 736.899C770.06 773.61 749.913 806.117 722.401 834.162C721.252 835.331 720.513 836.905 719.584 838.29C713.673 842.743 706.251 845.634 703.744 853.607L703.947 853.725C703.077 854.587 702.211 855.451 701.343 856.314L701.389 856.265C700.529 857.127 699.672 857.989 698.813 858.851L698.861 858.781C696.641 858.662 694.875 859.426 693.745 861.422L693.789 861.345C689.532 862.162 686.561 864.29 686.053 868.929L686.144 868.927C681.979 869.113 678.821 871.238 676.073 874.155C673.485 875.573 670.793 876.83 668.321 878.427C616.893 911.65 561.435 931.587 499.372 930.227C484.611 929.905 470.079 932.993 455.432 934.279C420.095 937.383 385.809 935.834 354.196 915.674C335.813 903.953 317.08 892.115 296.095 885.035C281.235 880.023 267.411 873.083 254.669 863.962C252.915 863.035 251.16 862.111 249.407 861.187C248.641 860.421 247.876 859.655 247.111 858.89Z" fill="#CEA1C1"/>
<path d="M831.375 1006.46C823.425 990.55 808.985 981.084 795.683 970.49C795.681 970.491 795.673 970.623 795.673 970.623C794.585 968.52 792.907 967.572 790.529 967.983L790.601 968.058C790.6 966.332 789.739 965.47 788.013 965.474L788.169 965.364C787.031 959.704 783.399 956.563 777.959 955.243L777.892 955.367C777.825 953.708 776.912 952.891 775.304 952.76L775.471 952.702C775.225 949.148 773.032 947.044 770.101 945.488C769.261 943.734 768.42 941.976 767.579 940.22C772.107 931.1 777.955 931.579 785.68 936.755C791.019 940.332 795.556 946.3 803.245 945.278L803.168 945.211C802.681 947.306 803.625 948.854 805.071 950.211C828.596 969.868 852.327 989.29 875.533 1009.31C883.625 1016.3 890.596 1017.68 900.555 1012.65C915.092 1005.3 929.649 997.599 946.347 995.286C952.78 994.395 957.62 995.391 959.919 1001C962.732 1007.86 957.273 1010.83 952.02 1013.09C942.811 1017.07 933.532 1020.88 923.547 1025.07C929.404 1030.46 936.873 1028.97 942.613 1032.02C948.047 1034.91 955.3 1035.55 957.655 1042.44C958.927 1046.15 962.395 1050.13 958.957 1054.3C955.631 1058.34 951.508 1056.65 947.332 1055.53C937.192 1052.79 926.952 1050.43 916.772 1047.85C908.167 1045.66 905.556 1048.8 908.5 1056.98C910.924 1063.71 913.172 1070.52 915.932 1077.11C919.348 1085.26 915.219 1091.02 908.865 1093.68C903.26 1096.02 899.055 1091.16 896.345 1085.9C892.841 1079.1 890.276 1072.05 889.089 1064.47C887.049 1051.41 880.828 1041.14 869.9 1033.22C859.371 1025.58 849.643 1016.84 839.645 1008.49C837.132 1006.39 834.419 1005.96 831.375 1006.46Z" fill="#E4B3D3"/>
<path d="M158.327 887.381C155.86 894.285 151.728 900.01 146.107 904.681C133.665 900.606 128.292 888.742 120.171 880.186C103.707 862.839 88.7156 844.097 72.9875 826.045C69.1297 821.618 65.6161 817.289 62.8109 811.878C56.0921 798.921 42.362 795.991 29.7011 793.441C20.5901 791.605 13.188 787.547 5.69948 782.806C-3.2224 777.155 0.782295 772.449 6.93386 768.575C14.9437 763.534 23.1099 766.286 31.0197 769.425C34.5167 770.811 37.8432 772.625 41.3197 774.071C44.0765 775.218 47.1751 776.245 49.6312 773.858C52.3084 771.257 50.0251 768.437 49.3011 765.658C46.6527 755.49 44.0385 745.31 41.7079 735.066C40.7855 731.01 39.9527 726.801 44.7927 723.905C49.8771 720.863 53.1708 722.963 57.1005 726.299C65.6088 733.522 66.9812 743.581 68.9251 753.475C69.4511 756.151 68.5927 759.199 71.7713 762.418C76.7651 750.801 78.9443 739.278 84.3588 728.97C87.3969 723.187 91.0708 720.157 97.3183 722.554C102.779 724.65 103.568 728.458 102.63 734.674C100.243 750.507 93.6864 764.663 86.1511 778.183C79.8781 789.437 79.376 796.986 88.4579 807.982C108.272 831.975 127.973 856.039 148.823 879.143C151.609 882.234 155.14 884.651 158.327 887.381Z" fill="#E4B3D3"/>
<path d="M951.965 1288.56C945.121 1290.23 936.504 1292.96 938.015 1304.11C938.936 1310.91 937.829 1320.52 947.228 1322.39C953.296 1323.6 965.505 1306.09 964.677 1298.17C964.055 1292.21 960.865 1287.84 951.965 1288.56ZM891.481 1345.94C892.699 1340.39 889.533 1335.65 888.232 1330.67C887.061 1326.2 888.376 1323.88 891.553 1321.63C899.515 1324.1 907.477 1326.57 915.444 1329.03C922.288 1331.14 924.072 1328.28 921.711 1322.21C918.932 1315.07 917.069 1307.9 917.217 1300.12C917.497 1285.37 924.765 1275.51 939.739 1270.39C957.125 1264.46 971.64 1267.14 980.007 1278.77C986.991 1288.48 985.261 1299.58 982.191 1310.08C980.576 1315.6 977.009 1320.62 973.909 1325.61C971.007 1330.28 962.361 1335.53 965.864 1339.13C971.899 1345.33 981.685 1346.45 990.561 1342.01C996.773 1338.9 1000.71 1333.19 1005.53 1328.51C1010.79 1323.41 1016.34 1321.89 1022.45 1326.39C1028.72 1331.02 1026.14 1336.49 1023.75 1342.23C1014.4 1364.79 985.571 1370.79 967.147 1362.46C960.232 1359.34 953.492 1355.81 946.772 1352.27C942.543 1350.05 937.939 1347.95 933.461 1349.43C918.847 1354.27 905.24 1349.78 891.481 1345.94Z" fill="#E4B3D3"/>
<path d="M635.612 1574.39C642.983 1587.45 640.388 1594.3 626.556 1595.99C593.849 1600.01 560.963 1600.99 528.041 1600.29C523.089 1600.18 517.981 1598.91 513.285 1597.22C505.637 1594.49 497.556 1591.06 498.68 1580.87C499.751 1571.17 506.549 1566.74 515.849 1565.19C534.419 1562.1 552.861 1563.66 571.287 1566.23C584.212 1568.03 597.099 1570.11 610.003 1572.07C618.4 1574.38 626.848 1576.14 635.612 1574.39Z" fill="#131211"/>
<path d="M317.995 1574.47C322.736 1585.85 320.711 1591.91 310.309 1593.47C275.175 1598.7 239.8 1599.47 204.361 1597.71C201.881 1597.59 199.411 1596.7 196.999 1595.95C188.273 1593.29 179.647 1590.13 179.996 1578.79C180.353 1567.22 189.616 1564.13 198.372 1563.19C228.251 1559.99 257.671 1562.55 286.54 1571.71C293.959 1574.07 302.308 1573.49 310.229 1574.25C312.789 1575.34 315.367 1575.81 317.995 1574.47Z" fill="#131211"/>
<path d="M317.995 1574.47C315.367 1575.81 312.789 1575.34 310.229 1574.25C310.072 1573.86 309.967 1573.17 309.753 1573.13C287.401 1569.51 289.837 1552.55 289.964 1536.67C290.14 1514.85 289.673 1492.99 290.339 1471.17C290.632 1461.54 288.131 1457.06 277.819 1458.18C273.465 1458.65 268.512 1459.63 264.556 1456.1C280.683 1455.89 296.827 1455.19 312.824 1458.1C312.283 1496.99 312.253 1535.86 317.995 1574.47Z" fill="#E4B3D3"/>
<path d="M635.612 1574.39C626.848 1576.14 618.4 1574.38 610.003 1572.07C606.293 1541.47 606.251 1510.89 609.748 1480.25C610.365 1474.83 609.869 1469.3 609.888 1463.82C616.849 1463.97 623.809 1464.13 630.771 1464.29C629.716 1501.1 633.363 1537.71 635.612 1574.39Z" fill="#E4B3D3"/>
<path d="M803.245 945.277C795.556 946.3 791.019 940.332 785.68 936.755C777.955 931.579 772.107 931.1 767.579 940.221C762.828 934.667 764.809 928.135 765.776 922.205C766.431 918.191 766.415 915.12 764.392 911.565C754.34 893.912 740.659 878.912 724.627 867.363C718.192 862.725 714.744 851.581 703.744 853.607C706.251 845.633 713.673 842.743 719.584 838.289C755.231 867.885 784.049 902.819 803.245 945.277Z" fill="#B14688"/>
<path d="M635.327 1464.22C658.311 1463.73 681.323 1462.01 704.205 1465.82C681.233 1465.86 658.211 1467.99 635.327 1464.22Z" fill="#E4B3D3"/>
<path d="M317.561 1457.95C320.356 1455.89 323.115 1455.87 325.833 1458.1C323.076 1458.06 320.319 1458.01 317.561 1457.95Z" fill="#E4B3D3"/>
<path d="M805.071 950.211C803.625 948.854 802.681 947.306 803.168 945.211C805.477 946.24 805.275 948.226 805.071 950.211Z" fill="#B14688"/>
<path d="M889.64 1349.3C890.184 1348.27 890.729 1347.25 891.269 1346.22C890.723 1347.25 890.18 1348.27 889.64 1349.3Z" fill="#E4B3D3"/>
<path d="M356.432 746.533C387.023 744.655 414.387 734.541 435.056 709.855C438.173 706.132 441.544 702.559 437.271 697.781C432.916 692.912 427.928 692.404 422.769 696.717C418.881 699.969 414.947 703.172 411.191 706.573C402.603 714.349 393.031 720.283 381.736 723.321C336.137 735.584 280.975 720.871 269.411 664.671C268.677 661.108 268.025 656.587 263.435 655.837C260.315 655.327 256.329 653.084 253.849 656.081C250.589 660.023 252.247 665.036 253.317 669.444C266.088 722.033 303.099 743.721 356.432 746.533ZM627.853 660.8C627.843 629.353 604.665 604.624 574.82 605.033C536.307 605.56 502.656 633.76 501.917 675.648C501.403 704.813 526.48 734.292 558.516 734.316C594.225 734.344 627.867 698.157 627.853 660.8ZM780.812 553.636C786.784 595.567 788.999 637.924 782.035 679.564C774.004 727.587 754.432 771.551 722.309 808.947C676.384 862.413 617.299 893.687 549.343 908.935C538.893 911.28 527.873 912.872 516.756 912.472C492.712 911.604 468.875 913.643 444.983 917.021C411.467 921.76 380.403 913.043 352.099 894.921C335.711 884.428 318.651 875.264 300.588 868.275C268.544 855.875 247.713 831.411 225.913 806.129C192.316 767.167 184.727 721.685 183.293 673.415C182.289 639.589 181.689 605.781 195.839 573.813C203.52 556.459 211.127 539.063 218.317 521.501C220.121 517.097 222.624 515.825 226.877 515.956C232.796 516.137 238.731 516.253 244.643 516.011C248.277 515.863 253.308 517.976 255.217 514.287C257.364 510.14 252.977 506.88 250.727 503.413C240.444 487.57 223.281 490.529 208.433 488.385C172.417 483.188 142.669 465.609 115.066 443.401C110.603 439.812 111.309 436.492 117.237 434.367C134.609 428.137 150.187 418.183 162.589 405.033C186.097 380.112 203.252 351.208 205.983 316.033C207.157 300.895 206.224 285.585 206.065 270.356C206.007 264.647 207.571 261.647 214.143 262.5C247.041 266.727 280.043 270.228 312.859 275.008C327.44 277.132 342.085 277.525 356.656 279.173C369.344 286.333 381.868 293.727 392.249 304.175C384.992 311.572 383.2 320.671 384.001 330.58C375.901 333.803 367.407 335.143 358.781 335.855C357.648 327.128 349.265 320.647 351.184 310.905C351.723 308.171 355.237 303.588 349.212 303.209C344.493 302.912 344.125 307.437 343.231 311.328C340.98 321.104 347.3 328.968 348.465 337.928C347.44 345.325 342.603 351.072 338.727 356.752C330.467 368.851 329.744 381.964 330.795 395.507C332.373 415.836 351.187 433.567 370.545 431.916C389.688 430.284 405.996 422.391 417.489 405.927C429.727 388.397 429.52 370.145 422.073 351.132C423.912 343.149 430.232 336.664 429.829 327.932C466.368 352.313 502.905 376.697 539.444 401.081C533.961 406.42 537.156 413.093 536.655 419.199C529.731 420.088 522.807 420.976 515.884 421.865C516.96 412.037 513.345 403.556 508.921 394.644C502.701 403.272 502.701 403.272 508.473 422.533C499.959 433.811 487.731 441.855 481.545 455.292C474.008 471.671 477.999 491.346 492.073 501.619C511.611 515.88 541.711 513.723 560.876 496.755C578.052 481.548 585.773 455.949 569.456 437.563C569.865 432.821 570.275 428.081 570.684 423.339C582.801 424.361 590.999 433.279 600.332 439.193C659.237 476.52 717.849 514.301 777.965 549.681C779.247 550.436 779.879 552.293 780.812 553.636Z" fill="#EBBFDC"/>
<path d="M465.519 141.967C465.433 130.607 474.545 124.5 480.579 117.007C517.284 71.4732 561.939 38.1666 621.921 31.4866C671.085 26.02 718.988 32.6999 764.771 51.8999C817.16 73.8599 861.723 106.513 897.787 150.593C918.025 175.327 923.252 204.22 921.479 235.06C918.595 285.215 897.459 329.548 877.029 374.101C875.099 378.315 873.328 382.601 871.484 386.851C853.219 381.025 838.243 368.735 820.896 361.109C817.252 358.328 813.708 355.34 808.765 355.245L808.893 355.091C792.288 341.683 773.043 332.488 755.008 321.361C749.332 317.703 743.753 313.881 737.963 310.412C684.008 278.088 629.711 246.313 576.135 213.38C538.759 190.393 502.356 165.82 465.519 141.967Z" fill="white"/>
<path d="M824.216 482.989C822.545 489.041 820.057 495.011 819.443 501.168C818.873 506.883 821.524 511.952 827.98 513.603C834.677 515.313 835.207 510.089 837.14 505.848C852.212 472.8 852.068 473.115 881.973 494.061C949.493 541.351 1016.05 589.852 1077.35 645.172C1093.98 660.181 1110.76 675.053 1123.96 693.356C1125.87 695.997 1129.24 699.272 1127.49 702.281C1125.24 706.155 1120.63 703.864 1117.13 703.24C1089.24 698.248 1064.5 684.927 1039.65 672.479C942.871 623.989 849.139 569.999 756.821 513.533C637.179 440.355 519.095 364.725 403.403 285.448C314.172 224.3 226.373 161.127 142.856 92.2467C118.975 72.5533 98.1396 49.9534 82.4251 21.3934C98.1031 19.5001 111.399 24.7534 124.252 30.1667C184.321 55.4734 241.552 86.42 298.011 118.847C330.263 137.353 361.656 157.273 393.072 177.167C402.339 183.033 401.308 186.327 394.457 192.647C389.541 197.167 385.603 202.833 381.601 208.273C378.315 212.727 374.805 217.78 380.42 222.847C385.441 227.367 390.573 225.287 395.42 221.953C397.473 220.527 399.615 219.247 401.716 217.9C408.157 222.673 414.299 227.94 421.087 232.153C498.948 280.512 575.393 331.012 651.223 382.499C706.483 420.02 766.272 449.965 824.216 482.989Z" fill="#FDFDFB"/>
<path d="M824.216 482.989C766.272 449.965 706.483 420.02 651.223 382.499C575.393 331.012 498.948 280.512 421.087 232.153C414.299 227.94 408.157 222.673 401.716 217.9C406.465 206.153 415.429 197.313 423.091 187.647C433.904 174.007 445.553 161.033 456.376 147.393C458.993 144.1 461.567 142.26 465.524 141.967C502.356 165.82 538.759 190.393 576.135 213.38C629.711 246.313 684.008 278.088 737.963 310.412C743.753 313.881 749.332 317.703 755.007 321.36C755.847 323.209 756.176 325.828 757.615 326.796C772.125 336.56 786.739 346.179 801.563 355.457C803.263 356.521 806.415 355.269 808.893 355.091C808.893 355.091 808.765 355.245 808.76 355.253C810.499 361.991 811.288 370.704 820.896 361.109C838.243 368.735 853.219 381.025 871.484 386.851C866.265 400.96 859.132 414.161 852.697 427.708C843.788 446.465 835.184 465.316 824.216 482.989Z" fill="#C04492"/>
<path d="M396.423 305.866C405.803 312.416 416.436 317.141 424.713 325.296C422.361 333.557 410.655 333.85 409.517 343.146C405.133 338.73 397.612 339.228 394.167 333.344C394.032 324.112 393.421 314.84 396.423 305.866Z" fill="#EBBFDC"/>
<path d="M409.517 343.144C410.655 333.849 422.361 333.557 424.713 325.296C426.419 326.175 428.123 327.053 429.828 327.932C430.232 336.664 423.912 343.15 422.073 351.131C416.209 351.11 413.917 345.469 409.517 343.144Z" fill="#F9F6FA"/>
<path d="M396.423 305.865C393.421 314.84 394.032 324.112 394.167 333.341C390.356 333.973 387.099 332.57 384.001 330.58C383.2 320.67 384.992 311.572 392.249 304.174C393.64 304.736 395.032 305.301 396.423 305.865Z" fill="#F9F6FA"/>
<path d="M544.321 403.843C551.764 408.218 559.205 412.593 566.648 416.967C563.256 417.146 561.805 419.215 561.435 422.33C555.267 422.666 549.456 421.038 543.703 419.089C543.908 414.007 544.115 408.926 544.321 403.843Z" fill="#EBBFDC"/>
<path d="M561.432 422.333C561.805 419.215 563.256 417.146 566.648 416.967C569.649 418.05 569.611 421.053 570.683 423.349C570.275 428.082 569.865 432.822 569.456 437.561C559.328 436.41 562.736 428.13 561.432 422.333Z" fill="#F9F6FA"/>
<path d="M544.321 403.843C544.115 408.926 543.908 414.007 543.704 419.093C541.355 419.13 539.005 419.165 536.655 419.199C537.156 413.094 533.961 406.421 539.444 401.082C541.071 402.001 542.696 402.922 544.321 403.843Z" fill="#F9F6FA"/>
<path d="M703.744 853.607C714.744 851.582 718.192 862.726 724.627 867.363C740.659 878.912 754.34 893.912 764.392 911.566C766.415 915.12 766.431 918.191 765.776 922.206C764.809 928.135 762.828 934.667 767.579 940.222C768.42 941.976 769.261 943.734 770.101 945.487C770.088 949.234 770.087 952.974 775.471 952.702C775.471 952.702 775.304 952.76 775.305 952.76C776.169 953.63 777.029 954.499 777.892 955.367C777.892 955.367 777.959 955.243 777.959 955.244C778.308 961.699 781.707 965.078 788.169 965.364L788.013 965.474C788.876 966.334 789.739 967.196 790.601 968.058C790.601 968.058 790.529 967.983 790.531 967.982C791.524 970.267 793.46 970.714 795.673 970.623C795.673 970.623 795.681 970.491 795.683 970.49C796.189 972.506 796.103 975.002 797.289 976.467C817.044 1000.86 820.081 1031.38 829.081 1059.9C837.709 1087.24 844.132 1114.94 849.693 1142.9C852.879 1158.92 857.436 1175.71 855.42 1191.39C853.793 1204.03 851.463 1216.64 851.471 1229.5C851.472 1232.52 850.308 1236.14 854.839 1239.27C858.585 1227.95 854.395 1216.48 858.775 1206.04C863.784 1221.05 865.363 1236.53 866.565 1252.02C870.043 1296.86 873.376 1341.73 876.564 1386.59C877.913 1405.59 876.236 1424.51 874.159 1443.41C873.396 1450.34 868.503 1451.3 863.097 1450.78C806.125 1445.22 749.003 1450.01 691.988 1448.11C679.881 1447.71 667.839 1445.25 655.779 1443.65C639.672 1441.5 623.705 1443.98 607.904 1446.06C578.351 1449.94 549.305 1448.13 519.881 1443.95C501.2 1441.3 481.851 1442.87 462.819 1443.29C410.819 1444.43 358.895 1441.01 306.96 1439.86C274.063 1439.13 241.101 1439.54 208.215 1438.06C161.655 1435.95 115.179 1432.21 68.4932 1432.83C52.2959 1433.05 43.9369 1422.61 46.6656 1405.87C50.4495 1382.66 48.1177 1359.13 51.4588 1336.05C53.7151 1320.46 51.1943 1304.46 54.2521 1289.44C62.5563 1248.65 65.3339 1207.1 72.6407 1166.13C77.1203 1141.02 83.1932 1116.18 87.6787 1091.06C91.7088 1068.5 101.906 1047.11 107.853 1024.8C114.475 999.959 126.906 977.924 137.565 954.91C147.595 933.252 159.04 912.839 174.219 894.514C179.317 888.36 186.443 884.224 191.943 878.796C199.588 871.248 208.573 865.059 215.064 856.063C219.156 850.391 224.345 839.81 233.831 852.606C236.028 855.571 241.6 859.058 247.108 858.891C247.876 859.655 248.641 860.42 249.407 861.19C250.344 863.666 252.424 863.971 254.669 863.962C267.411 873.083 281.235 880.023 296.095 885.035C317.08 892.115 335.813 903.952 354.196 915.674C385.809 935.834 420.095 937.383 455.432 934.279C470.079 932.992 484.611 929.904 499.372 930.227C561.435 931.587 616.893 911.65 668.321 878.427C670.793 876.83 673.485 875.572 676.075 874.155C681.325 876.06 684.067 873.132 686.144 868.927C686.144 868.927 686.053 868.928 686.053 868.93C691.955 869.788 694.472 867.198 693.789 861.344C693.789 861.344 693.745 861.422 693.747 861.422C695.929 861.466 697.872 861.046 698.861 858.78L698.813 858.851C699.672 857.987 700.529 857.126 701.389 856.264L701.343 856.314C702.211 855.451 703.077 854.587 703.947 853.724L703.744 853.607Z" fill="#C14492"/>
<path d="M117.369 327.655C117.245 315.511 108.634 305.811 97.7683 305.575C88.6937 305.378 78.9417 317.006 79.3677 327.517C79.7907 337.971 88.6464 347.566 98.0276 347.737C109.059 347.938 117.489 339.186 117.369 327.655ZM137.401 335.874C137.448 348.354 145.161 357.867 155.329 357.982C166.452 358.109 175.564 348.995 175.367 337.943C175.175 327.166 165.844 315.911 156.841 315.598C146.145 315.227 137.36 324.39 137.401 335.874ZM190.909 303.637C188.273 339.087 173.752 372.567 142.783 398.538C131.337 408.137 121.446 418.858 104.517 417.249C98.1885 416.647 93.2823 415.114 88.9745 410.437C55.2921 373.873 51.3839 304.765 109.439 273.607C118.685 268.645 127.93 263.154 137.848 260.061C172.139 249.394 191.001 263.781 190.909 303.637Z" fill="#EBBFDC"/>
<path d="M693.789 861.344C694.472 867.197 691.955 869.788 686.053 868.929C686.561 864.289 689.532 862.161 693.789 861.344Z" fill="#B14688"/>
<path d="M686.144 868.927C684.067 873.132 681.325 876.06 676.075 874.155C678.821 871.238 681.979 869.112 686.144 868.927Z" fill="#B14688"/>
<path d="M254.669 863.962C252.424 863.971 250.344 863.666 249.407 861.19C251.16 862.111 252.915 863.035 254.669 863.962Z" fill="#B14688"/>
<path d="M698.861 858.78C697.872 861.046 695.929 861.466 693.747 861.422C694.875 859.426 696.641 858.662 698.861 858.78Z" fill="#B14688"/>
<path d="M701.389 856.264C700.529 857.125 699.672 857.987 698.813 858.851C699.672 857.988 700.529 857.127 701.389 856.264Z" fill="#B14688"/>
<path d="M788.169 965.364C781.707 965.078 778.308 961.699 777.959 955.244C783.399 956.563 787.031 959.704 788.169 965.364Z" fill="#B14688"/>
<path d="M775.471 952.702C770.087 952.974 770.088 949.234 770.101 945.487C773.032 947.045 775.225 949.148 775.471 952.702Z" fill="#B14688"/>
<path d="M795.673 970.623C793.46 970.714 791.524 970.267 790.531 967.982C792.907 967.572 794.585 968.52 795.673 970.623Z" fill="#B14688"/>
<path d="M777.892 955.367C777.029 954.499 776.169 953.63 775.305 952.761C776.912 952.891 777.825 953.709 777.892 955.367Z" fill="#B14688"/>
<path d="M790.601 968.058C789.739 967.196 788.876 966.334 788.013 965.474C789.739 965.47 790.6 966.332 790.601 968.058Z" fill="#B14688"/>
<path d="M627.853 660.8C627.867 698.158 594.225 734.344 558.516 734.316C526.48 734.292 501.403 704.814 501.917 675.648C502.656 633.76 536.307 605.56 574.82 605.034C604.665 604.624 627.843 629.354 627.853 660.8Z" fill="#DE98C7"/>
<path d="M348.385 385.283C348.429 405.582 354.731 415.553 367.404 414.239C383.008 412.622 396.475 406.35 405.196 392.314C412.996 379.762 410.22 365.09 398.025 356.957C387.621 350.018 375.356 347.154 364.499 352.742C352.017 359.167 347.475 371.869 348.385 385.283ZM384.001 330.581C387.099 332.571 390.356 333.974 394.167 333.342C397.612 339.229 405.133 338.73 409.517 343.146C413.917 345.47 416.209 351.11 422.073 351.131C429.52 370.146 429.727 388.398 417.489 405.927C405.996 422.391 389.688 430.285 370.545 431.917C351.187 433.567 332.373 415.837 330.795 395.507C329.744 381.965 330.467 368.851 338.727 356.753C342.603 351.073 347.44 345.326 348.465 337.933C351.904 337.242 355.343 336.549 358.781 335.855C367.407 335.143 375.901 333.803 384.001 330.581Z" fill="#CCA1C0"/>
<path d="M356.432 746.533C303.099 743.721 266.088 722.033 253.317 669.444C252.247 665.036 250.589 660.023 253.849 656.081C256.329 653.084 260.315 655.327 263.435 655.837C268.025 656.587 268.677 661.108 269.411 664.671C280.975 720.871 336.137 735.584 381.736 723.321C393.031 720.283 402.603 714.349 411.191 706.573C414.947 703.172 418.881 699.969 422.769 696.717C427.928 692.404 432.916 692.912 437.271 697.781C441.544 702.559 438.173 706.132 435.056 709.855C414.387 734.541 387.023 744.655 356.432 746.533Z" fill="#C1479B"/>
<path d="M521.445 493.142C528.028 493.664 534.732 490.947 541.375 488.257C556.341 482.197 562.623 464.829 556.209 447.706C551.336 434.697 537.732 429.383 522.435 434.787C510.588 438.973 502.691 447.518 497.813 458.829C489.157 478.905 498.671 493.104 521.445 493.142ZM536.655 419.199C539.005 419.165 541.355 419.13 543.704 419.093C549.456 421.038 555.267 422.666 561.435 422.33C562.736 428.13 559.328 436.41 569.456 437.561C585.773 455.95 578.052 481.549 560.876 496.755C541.711 513.723 511.611 515.88 492.073 501.619C477.999 491.347 474.008 471.671 481.545 455.293C487.731 441.855 499.959 433.811 508.473 422.529C510.943 422.305 513.413 422.085 515.884 421.866C522.807 420.977 529.731 420.089 536.655 419.199Z" fill="#CCA1C0"/>
<path d="M358.781 335.855C355.343 336.549 351.904 337.242 348.465 337.933C347.3 328.969 340.98 321.105 343.231 311.329C344.125 307.438 344.493 302.913 349.212 303.21C355.237 303.589 351.723 308.171 351.184 310.906C349.265 320.647 357.648 327.129 358.781 335.855Z" fill="#F9F6FA"/>
<path d="M515.884 421.866C513.413 422.084 510.943 422.304 508.473 422.528C502.701 403.272 502.701 403.272 508.921 394.644C513.345 403.556 516.96 412.038 515.884 421.866Z" fill="#F9F6FA"/>
<path d="M808.893 355.091C806.415 355.27 803.263 356.522 801.563 355.458C786.739 346.179 772.125 336.56 757.615 326.796C756.176 325.828 755.847 323.21 755.007 321.361C773.043 332.489 792.288 341.683 808.893 355.091Z" fill="#B14688"/>
<path d="M820.896 361.11C811.288 370.705 810.499 361.991 808.76 355.254C813.708 355.341 817.252 358.329 820.896 361.11Z" fill="#B14688"/>
<path d="M137.401 335.873C137.36 324.389 146.145 315.226 156.841 315.597C165.844 315.91 175.175 327.165 175.367 337.942C175.564 348.994 166.452 358.108 155.329 357.981C145.161 357.866 137.448 348.353 137.401 335.873Z" fill="#A86898"/>
<path d="M117.369 327.655C117.489 339.185 109.059 347.937 98.0276 347.736C88.6464 347.565 79.7907 337.971 79.3677 327.516C78.9417 317.005 88.6937 305.377 97.7683 305.575C108.634 305.811 117.245 315.511 117.369 327.655Z" fill="#A86898"/>
<path d="M370.147 393.991C381.175 394.391 391.393 391.068 391.951 381.492C392.512 371.88 381.964 369.417 373.167 369.171C361.135 368.833 352.664 375.093 353.264 383.659C354.127 395.983 363.971 393.023 370.147 393.991ZM348.385 385.283C347.475 371.868 352.017 359.167 364.499 352.741C375.356 347.153 387.621 350.017 398.025 356.956C410.22 365.089 412.996 379.761 405.196 392.313C396.475 406.349 383.008 412.621 367.404 414.239C354.731 415.552 348.429 405.581 348.385 385.283Z" fill="#F9F6FA"/>
<path d="M523.56 475.659C533.439 476.061 539.192 471.838 539.192 462.553C539.192 450.591 528.941 451.71 521.543 451.131C515.167 450.631 507.865 450.874 507.165 460.867C506.245 473.985 515.276 474.549 523.56 475.659ZM521.445 493.142C498.671 493.105 489.157 478.905 497.813 458.829C502.691 447.518 510.588 438.973 522.435 434.787C537.732 429.383 551.336 434.697 556.209 447.706C562.623 464.829 556.341 482.197 541.375 488.257C534.732 490.947 528.028 493.665 521.445 493.142Z" fill="#F9F6FA"/>
<path d="M370.147 393.991C363.971 393.023 354.127 395.983 353.264 383.659C352.664 375.093 361.135 368.833 373.167 369.171C381.964 369.417 392.512 371.88 391.951 381.492C391.393 391.068 381.175 394.391 370.147 393.991Z" fill="#131211"/>
<path d="M523.56 475.659C515.276 474.549 506.245 473.985 507.165 460.867C507.865 450.874 515.167 450.631 521.543 451.131C528.941 451.71 539.192 450.591 539.192 462.553C539.192 471.838 533.439 476.061 523.56 475.659Z" fill="#131211"/>
</svg>
