<svg width="1360" height="1601" viewBox="0 0 1360 1601" fill="none" xmlns="http://www.w3.org/2000/svg">
<path d="M327.603 75.2332C318.003 74.0332 307.599 76.5932 297.847 81.4732C256.911 101.953 234.073 136.22 225.36 180.087C221.409 199.98 238.599 227.447 258.311 236.78C279.836 246.98 296.769 243.713 315.067 225.42C345.051 195.447 356.097 156.94 360.649 116.7C363.581 90.7666 349.772 75.3132 327.603 75.2332ZM374.867 668.276C372.591 655.512 363.961 646.009 357.36 635.657C340.431 609.105 334.799 579.603 330.349 549.047C323.272 500.449 330.8 453.397 340.509 406.203C343.857 389.923 348.484 374.272 357.809 360.503C362.595 353.439 361.685 349.367 353.964 346.232C306.649 327.021 272.651 291.679 241.331 253.113C237.056 247.847 233.297 242.087 228.561 237.287C205.717 214.113 201.309 185.887 211.436 157.047C228.064 109.7 257.107 72.6466 307.892 57.4066C316.312 54.8732 324.813 53.4199 332.919 56.4732C380.911 74.6199 432.479 75.8065 481.687 88.3132C527.659 100.007 574.137 109.687 620.383 120.313C625.073 121.393 629.828 125.54 634.095 119.567C642.133 127.073 650.172 134.58 658.212 142.1C656.173 146.9 652.62 146.833 648.367 145.42C611.36 133.193 573.503 124.153 535.473 115.887C483.119 104.5 430.649 93.6465 378.197 82.7132C372.439 81.5132 367.615 82.1132 370.387 90.4732C381.703 124.607 371.824 156.913 358.972 187.727C343.48 224.86 322.177 257.153 275.484 259.833C265.375 260.42 272.039 266.833 274.999 270.096C293.8 290.837 314.276 309.968 340.667 320.223C356.339 326.312 370.633 337.751 390.44 331.828C402.24 328.3 399.079 342.811 401.056 349.005C403.187 355.677 396.547 358.697 390.084 357.813C384.667 357.072 379.439 353.623 375.267 360.688C369.247 370.88 361.112 379.96 358.489 391.899C347.768 440.672 340.465 489.937 344.584 539.943C347.379 573.876 354.071 606.839 376.216 635.063C388.791 651.091 396.488 670.419 401.945 690.177C410.017 719.407 428.416 741.38 454.737 753.551C492.384 770.957 526.889 794.244 564.769 810.652C600.927 826.313 638.989 833.32 679.011 825.945C716.011 819.128 753.087 824.189 790.237 827.515C835.476 831.564 879.691 828.783 916.792 796.679C928.248 786.765 940.731 776.349 954.611 771.239C997.679 755.384 1030.43 727.711 1058.76 692.355C1100.75 639.949 1114.99 581.653 1103.08 516.035C1094.77 470.276 1076.58 428.769 1053.48 388.653C1034.9 356.373 1013.41 326.975 985.44 302.387C982.475 299.78 978.831 294.609 976.52 295.132C959.433 298.991 960.756 285.701 957.828 276.256C967.119 276.997 974.712 284.411 984.539 283.04C1006.42 292.941 1022.32 311.111 1034.93 329.419C1073.43 385.332 1107.08 443.704 1118.75 512.765C1130.21 580.632 1118.05 641.541 1076.58 696.499C1073.46 700.797 1070.34 705.097 1067.22 709.397C1045.82 731.044 1027.67 756.704 998.181 768.636C971.113 779.588 946.741 794.632 923.773 812.5C885.725 842.101 842.025 847.536 795.273 843.632C764.333 841.047 733.091 834.86 702.065 839.787C651.107 847.879 602.237 843.037 554.384 823.48C528.996 813.105 508.04 794.686 482.453 785.235C433.571 767.176 396.807 737.495 382.228 685.291C381.437 678.899 380.132 672.731 374.867 668.276Z" fill="#DCAFD1"/>
<path d="M1025.74 199.034C1027.02 190.474 1025.05 182.247 1022.16 174.194C1009.81 139.78 988.16 112.474 960.115 89.1937C919.531 55.5137 875.452 29.4203 823.619 17.047C771.544 4.60699 756.751 35.1403 753.917 70.6737C752.111 93.327 759.284 112.38 783.631 125.487C848.815 160.567 912.2 199.007 976.164 236.34C1000.92 250.794 1011.59 247.46 1022.37 220.714C1025.14 213.834 1026.92 206.687 1025.74 199.034ZM790.736 184.367C791.232 184.62 791.728 184.874 792.224 185.127C791.733 184.874 791.243 184.607 790.749 184.354C790.635 180.54 788.157 178.62 785.38 176.354C760.487 156.087 732.505 139.954 709.56 116.927C691.709 99.0071 671.349 83.5804 652.033 67.1271C646.615 62.5137 640.339 58.6071 633.891 64.4204C627.464 70.2204 626.003 77.2871 630.495 85.7937C638.572 101.1 649.903 113.167 663.471 123.647C701.559 153.047 743.685 173.834 790.736 184.367ZM658.212 142.1C650.172 134.58 642.133 127.074 634.095 119.567C626.636 110.247 619.673 100.674 616.009 89.047C611.412 74.4737 611.161 60.0337 624.633 50.6604C638.121 41.2871 652.005 45.7537 663.596 56.0337C690.661 80.0204 717.428 104.354 746.028 130.1C747.515 120.087 746.467 112.127 744.659 104.034C740.139 83.8204 739.2 63.7937 746.171 43.6737C757.976 9.56701 777.379 -2.88632 813.64 1.27368C839.344 4.20702 863.081 13.287 886.333 24.007C931.777 44.967 971.637 73.5137 1004.3 111.594C1019.2 128.954 1030.76 148.327 1037.27 170.527C1049 210.554 1038.75 239.874 1005.02 264.14C997.544 269.52 986.595 271.63 984.539 283.042C974.712 284.411 967.119 276.998 957.828 276.256C951.452 272.635 945.293 268.542 938.663 265.474C902.819 248.847 870.755 224.874 831.365 214.94C770.136 199.487 711.079 177.9 658.212 142.1Z" fill="#56458B"/>
<path d="M374.867 668.276C380.132 672.731 381.437 678.899 382.225 685.291C377.696 688.655 373.156 692.001 368.643 695.385C295.768 750.033 244.539 819.76 221.412 908.621C206.931 964.269 206.128 1020.24 217.08 1076.92C228.264 1134.8 250.517 1187.87 280.985 1237.78C310.411 1285.98 347.001 1327.96 390.443 1364.33C446.447 1411.19 509.457 1444.75 579.017 1465.78C642.504 1484.97 707.392 1494.06 774.084 1490.23C807.775 1488.3 840.939 1484.09 873.895 1477.41C917.224 1468.61 957.716 1451.35 998.629 1435.37C999.7 1440.38 1000.77 1445.41 1001.84 1450.43C937.183 1479.25 870.041 1498.14 799.236 1504.61C730.611 1510.86 663.437 1503.46 596.74 1488.15C589.881 1486.33 583.023 1484.5 576.165 1482.69C514.116 1461.9 454.937 1435.34 402.808 1395.03C294.632 1311.41 222.628 1204.96 199.363 1068.55C189.305 1009.57 194.368 951.079 209.416 893.351C211.28 886.563 213.147 879.772 215.015 872.981C232.484 829.973 252.879 788.684 282.405 752.32C309.009 719.555 340.125 691.977 374.867 668.276Z" fill="#59478D"/>
<path d="M1182.87 1298.88C1147.08 1355.15 1098.59 1397.71 1040.85 1430.22C1035.01 1433.5 1028.7 1435.94 1022.6 1438.77C1022.75 1431.98 1022.9 1425.21 1023.04 1418.43C1042.53 1415.65 1055.52 1401.18 1071.23 1391.62C1132.07 1354.55 1170.97 1299.46 1195.49 1234.35C1222.1 1163.7 1220.9 1089.99 1211.58 1016.33C1206.69 977.635 1194.3 940.597 1182.77 903.461C1189.39 903.82 1195.23 906.125 1200.26 910.476C1217.18 964.024 1229.59 1018.47 1232.47 1074.75C1236.02 1144.33 1225.06 1211.29 1196.07 1274.96C1191.67 1282.93 1187.27 1290.91 1182.87 1298.88Z" fill="#59478D"/>
<path d="M1200.26 910.477C1195.23 906.126 1189.39 903.821 1182.77 903.462C1159.76 893.047 1135.41 886.691 1111.23 879.783C1105.46 878.133 1097.09 877.806 1098.53 869.475C1100.18 859.909 1108.7 862.483 1115.08 863.875C1133.13 867.813 1151.08 872.233 1169.07 876.462C1175.08 880.835 1181.76 883.174 1189.24 883.111C1222.11 898.455 1257.97 905.493 1291.2 919.866C1298.06 922.833 1303.14 918.322 1307.38 913.473C1314.99 904.771 1324.27 898.507 1334.79 893.931C1340.93 891.258 1347.73 886.557 1352.11 895.769C1355.75 903.413 1349.91 906.631 1344.21 910.014C1336.01 914.883 1328.22 920.463 1319.07 926.519C1328.87 934.831 1340.66 935.009 1350.34 939.857C1355.57 942.47 1361.38 945.078 1358.89 952.266C1356.53 959.038 1350.18 958.578 1344.46 957.803C1335.06 956.533 1324.77 945.982 1318.01 950.919C1310.01 956.759 1319.15 968.675 1318.95 978.073C1318.81 984.489 1315.76 989.862 1309.82 990.733C1303.15 991.711 1298.69 985.691 1299.2 980.055C1301.98 948.854 1284.93 937.421 1257.15 931.318C1237.69 927.043 1220.37 914.497 1200.26 910.477Z" fill="#F6BDE2"/>
<path d="M1250.79 1273.58C1251.83 1279.09 1248.13 1286.5 1253.21 1289.63C1258.8 1293.06 1264.02 1286.5 1267.39 1283.02C1274.33 1275.85 1281.9 1267.58 1276.58 1256.05C1274.06 1250.6 1269.09 1246.5 1262.83 1248.38C1250.05 1252.24 1251.39 1263.55 1250.79 1273.58ZM1182.87 1298.88C1187.27 1290.91 1191.67 1282.94 1196.07 1274.96C1198.64 1287.07 1209.39 1289.05 1218.47 1293.21C1227.85 1297.51 1231.25 1293.71 1230.49 1284.51C1229.55 1273.01 1231.49 1261.82 1234.65 1250.95C1240.91 1229.4 1254.22 1222.82 1274.83 1230.37C1294.1 1237.43 1302.53 1255.6 1295.94 1273.77C1289.79 1290.72 1277.99 1302.23 1262.53 1310.7C1276.85 1325.67 1291.48 1327.36 1306.73 1316.35C1309.48 1314.36 1311.77 1311.63 1314.7 1310.01C1319.52 1307.34 1324.92 1303.2 1329.96 1309.17C1334.87 1314.99 1332.65 1320.43 1328.18 1325.88C1311.03 1346.77 1270.93 1350.66 1251.39 1331.14C1241.3 1321.07 1231.03 1314.19 1217.23 1312.41C1204.61 1310.78 1195.83 1299.55 1182.87 1298.88Z" fill="#F7BEE2"/>
<path d="M215.015 872.981C213.147 879.772 211.28 886.563 209.416 893.351C176.132 899.028 146.527 915.26 115.118 926.327C107.647 928.959 100.628 934.02 93.0334 934.945C68.9104 937.887 62.7708 953.987 61.4531 974.533C60.9303 982.688 59.8104 992.695 49.0307 990.084C39.735 987.835 40.6443 978.792 42.824 970.108C44.4984 963.435 49.5402 953.915 44.1126 949.712C38.8027 945.603 30.6266 952.492 23.7448 954.731C19.4927 956.113 15.1334 957.54 10.7266 957.975C5.80004 958.463 1.71201 956.305 0.669828 950.907C-0.230694 946.244 2.5641 943.136 6.4141 941.557C14.7891 938.125 23.2604 934.852 31.8891 932.139C40.5412 929.417 43.0058 926.205 33.9511 920.695C27.1782 916.572 20.4375 912.361 13.4297 908.669C8.1417 905.881 5.31566 902.031 7.49326 896.349C10.1386 889.448 15.3459 889.897 21.5506 891.992C33.2115 895.928 42.8798 902.751 50.6688 911.864C58.1126 920.575 65.7198 921.327 76.237 917.551C114.617 903.773 153.292 890.819 191.9 877.684C199.368 875.143 206.768 871.864 215.015 872.981Z" fill="#F7BEE2"/>
<path d="M1023.05 1418.43C1022.9 1425.21 1022.75 1431.98 1022.6 1438.77C1022.07 1471.34 1027.97 1503.7 1026.13 1536.35C1025.92 1539.99 1028.23 1543.77 1029.37 1547.46C1022.99 1555.5 1027.13 1564.73 1026.43 1573.39C1019.01 1573.53 1011.73 1572.82 1004.95 1569.46C1005.67 1560.86 1006.59 1552.25 1002.07 1544.25C1002 1512.98 1001.92 1481.7 1001.84 1450.43C1000.77 1445.41 999.7 1440.38 998.631 1435.37C998.633 1423.63 998.679 1411.91 998.625 1400.19C998.6 1394.75 999.861 1389.81 1005.76 1388.46C1012.77 1386.86 1016.1 1392.03 1017.9 1397.41C1020.19 1404.22 1021.38 1411.41 1023.05 1418.43Z" fill="#F6BDE2"/>
<path d="M1189.24 883.111C1181.76 883.174 1175.08 880.835 1169.07 876.462C1169.79 870.464 1166.19 865.67 1164.72 860.294C1160.03 843.087 1148.28 829.607 1140.43 814.106C1121.11 775.95 1100.09 738.355 1067.22 709.398C1070.34 705.098 1073.46 700.798 1076.58 696.499C1126.73 751.099 1162.49 814.382 1189.24 883.111Z" fill="#59478D"/>
<path d="M576.165 1482.69C583.023 1484.5 589.881 1486.33 596.739 1488.15C597.984 1504.66 592.995 1521.57 599.897 1537.73C599.905 1549.23 599.913 1560.75 599.921 1572.27C592.845 1571.73 585.58 1572.65 578.836 1569.54C581.56 1558.62 575.125 1548.55 575.961 1537.81C576.029 1519.43 576.097 1501.06 576.165 1482.69Z" fill="#F6BDE2"/>
<path d="M578.836 1569.54C585.58 1572.65 592.845 1571.73 599.921 1572.27C609.457 1584.78 607.685 1593.87 594.357 1595.25C557.253 1599.1 520.04 1601.97 482.665 1599.7C479.285 1599.5 475.82 1599.22 472.592 1598.3C463.141 1595.58 453 1592.42 453.569 1580.17C454.08 1569.15 463.189 1566.11 472.505 1563.97C496.92 1558.34 520.919 1564.99 545.091 1566.21C556.367 1566.78 567.589 1568.39 578.836 1569.54Z" fill="#22201E"/>
<path d="M1004.95 1569.46C1011.73 1572.82 1019.01 1573.53 1026.43 1573.39C1033.45 1575.67 1034.24 1581.07 1032.72 1587.03C1031.28 1592.66 1026.8 1594.93 1021.25 1595.42C983.521 1598.78 945.788 1602.29 907.856 1599.42C902.872 1599.05 897.939 1597.41 893.085 1596.01C885.891 1593.91 881.229 1589.27 880.976 1581.49C880.695 1572.75 886.327 1567.93 893.705 1565.45C908.528 1560.46 923.847 1561.37 939.113 1562.86C961.063 1565.03 983.004 1567.26 1004.95 1569.46Z" fill="#22201E"/>
<path d="M1067.22 709.397C1100.09 738.355 1121.11 775.949 1140.43 814.105C1148.28 829.607 1160.03 843.087 1164.72 860.293C1166.19 865.669 1169.79 870.464 1169.07 876.461C1151.08 872.232 1133.13 867.812 1115.08 863.875C1108.7 862.483 1100.18 859.908 1098.53 869.475C1097.09 877.805 1105.46 878.132 1111.23 879.783C1135.41 886.691 1159.76 893.047 1182.77 903.461C1194.3 940.597 1206.69 977.635 1211.58 1016.33C1220.9 1089.99 1222.1 1163.7 1195.49 1234.35C1170.97 1299.46 1132.07 1354.55 1071.23 1391.62C1055.52 1401.18 1042.53 1415.65 1023.04 1418.43C1021.38 1411.41 1020.19 1404.22 1017.9 1397.41C1016.1 1392.03 1012.77 1386.86 1005.76 1388.46C999.861 1389.81 998.6 1394.75 998.625 1400.19C998.679 1411.91 998.633 1423.63 998.631 1435.37C957.716 1451.35 917.224 1468.61 873.895 1477.41C840.939 1484.09 807.775 1488.3 774.084 1490.23C707.392 1494.06 642.504 1484.97 579.017 1465.78C509.457 1444.75 446.447 1411.19 390.443 1364.33C347.001 1327.96 310.411 1285.98 280.985 1237.78C250.517 1187.87 228.264 1134.8 217.08 1076.92C206.128 1020.24 206.931 964.269 221.412 908.621C244.539 819.76 295.768 750.033 368.643 695.385C373.156 692.001 377.696 688.655 382.225 685.291C396.807 737.495 433.571 767.176 482.453 785.235C508.04 794.687 528.996 813.105 554.384 823.48C602.237 843.037 651.107 847.879 702.065 839.787C733.091 834.86 764.333 841.047 795.273 843.632C842.025 847.536 885.725 842.101 923.773 812.5C946.741 794.632 971.113 779.588 998.181 768.636C1027.67 756.704 1045.82 731.044 1067.22 709.397Z" fill="#6B4FA4"/>
<path d="M439.672 686.007C439.631 687.724 439.907 693.2 445.083 694.12C451.948 695.339 452.476 689.468 453.367 684.26C454.677 676.597 456.381 668.977 458.403 661.471C459.693 656.675 458.033 653.537 453.817 652.245C448.617 650.652 444.747 653.473 443.725 658.408C442.04 666.548 441.249 674.873 439.672 686.007ZM477.051 691.339C477.844 694.663 475.696 699.447 480.649 701.333C482.396 701.997 485.241 701.415 486.907 700.345C492.101 697.008 498.459 665.649 495.079 660.545C493.947 658.835 492.139 656.779 490.357 656.463C487.069 655.877 484.807 658.773 484.681 661.481C484.203 671.869 479.796 681.175 477.051 691.339ZM616.741 499.836C615.488 495.247 616.905 483.22 609.135 482.719C598.169 482.009 605.463 493.999 602.935 499.868C602.059 501.901 601.127 504.152 601.159 506.288C601.272 513.772 594.328 525.715 605.621 527.149C615.803 528.443 614.032 515.009 616.664 507.636C617.196 506.147 616.741 504.305 616.741 499.836ZM524.572 447.385C523.685 439.417 518.873 438.568 515.152 442.111C505.397 451.397 497.471 462.277 492.216 474.867C490.94 477.923 491.952 480.695 494.525 482.113C496.149 483.008 499.316 483.24 500.621 482.241C512.661 473.031 517.191 458.749 524.572 447.385ZM525.48 691.976C524.856 684.563 524.805 677.16 523.415 670.019C522.588 665.772 520.097 660.729 514.152 662.497C508.707 664.116 508.797 668.251 509.968 673.443C511.316 679.411 510.395 685.86 511.424 691.937C512.917 700.755 506.361 716.776 517.301 716.827C531.364 716.891 521.792 700.479 525.48 691.976ZM564.377 463.221C565.104 459.459 564.064 456.944 561.261 455.552C557.343 453.604 554.659 455.955 553.015 459.024C546.383 471.404 539.579 483.752 535.872 497.415C534.857 501.153 534.304 505.555 539.272 507.392C543.529 508.965 547.391 507.753 549.087 503.468C554.449 489.921 559.461 476.239 564.377 463.221ZM486.865 421.412C486.391 416.853 483.155 416.32 479.513 416.332C470.025 416.359 440.921 438.112 438.059 446.589C436.131 452.3 439.147 455.227 442.796 457.993C447.181 461.319 450.411 458.7 452.461 454.924C458.72 443.395 469.515 436.993 479.936 430.203C483.365 427.968 486.773 426.099 486.865 421.412ZM773.725 286.572C773.717 263.22 761.775 249.313 741.575 249.127C713.197 248.873 684.94 275.679 685.569 302.248C685.959 318.712 704.22 334.836 723.717 334.075C750.533 333.028 775.908 318.796 773.725 286.572ZM525.875 232.153C553.012 232.007 579.076 207.967 579.279 182.9C579.444 162.353 561.817 147.953 538.599 146.487C511.069 144.767 492.703 168.647 491.605 197.873C490.897 216.78 501.775 235.38 525.875 232.153ZM446.515 527.328C446.515 526.192 446.72 525.011 446.481 523.928C445.047 517.443 451.353 506.971 440.637 505.341C427.805 503.392 429.331 515.872 427.832 523.323C419.549 564.517 460.077 619.821 506.28 631.087C540.315 639.385 574.015 621.765 586.035 589.532C587.692 585.087 589.764 580.453 584.587 577.557C579.025 574.448 576.652 579.381 574.115 583.152C570.951 587.853 568.043 592.783 564.431 597.119C547.9 616.967 528.631 622.041 505.172 613.041C469.261 599.264 446.516 566.029 446.515 527.328ZM896.423 557.021C896.677 515.919 872.372 488.139 835.832 487.763C798.177 487.376 765.081 520.132 763.083 556.239C760.964 594.569 793.069 629.365 819.723 628.085C859.323 626.183 896.193 594.073 896.423 557.021ZM658.212 142.1C711.079 177.9 770.136 199.487 831.365 214.94C870.755 224.873 902.819 248.847 938.663 265.473C945.293 268.541 951.452 272.635 957.828 276.256C960.756 285.701 959.433 298.991 976.52 295.132C978.831 294.609 982.475 299.78 985.44 302.387C1013.41 326.975 1034.9 356.373 1053.48 388.653C1076.58 428.769 1094.77 470.276 1103.08 516.035C1114.99 581.653 1100.75 639.949 1058.76 692.355C1030.43 727.711 997.679 755.384 954.611 771.239C940.731 776.349 928.248 786.765 916.792 796.679C879.691 828.783 835.476 831.564 790.237 827.515C753.087 824.189 716.011 819.128 679.011 825.945C638.989 833.32 600.927 826.313 564.769 810.652C526.889 794.244 492.384 770.957 454.737 753.551C428.416 741.38 410.017 719.407 401.945 690.177C396.488 670.419 388.791 651.091 376.216 635.063C354.071 606.839 347.379 573.876 344.584 539.943C340.465 489.937 347.768 440.672 358.489 391.899C361.112 379.96 369.247 370.88 375.267 360.688C379.439 353.623 384.667 357.072 390.084 357.813C396.547 358.697 403.187 355.677 401.056 349.005C399.079 342.811 402.24 328.3 390.44 331.828C370.633 337.751 356.339 326.312 340.667 320.223C314.276 309.968 293.8 290.837 274.999 270.096C272.039 266.833 265.375 260.42 275.484 259.833C322.177 257.153 343.48 224.86 358.972 187.727C371.824 156.913 381.703 124.607 370.387 90.4733C367.615 82.1133 372.439 81.5132 378.197 82.7132C430.649 93.6466 483.119 104.5 535.473 115.887C573.503 124.153 611.36 133.193 648.367 145.42C652.62 146.833 656.173 146.9 658.212 142.1Z" fill="#F8CBE8"/>
<path d="M311.955 140.313C302.944 142.42 299.172 149.34 299.545 159.767C299.92 170.247 303.615 177.62 315.263 177.447C327.321 177.26 332.684 169.127 332.244 158.567C331.8 147.967 325.365 140.913 311.955 140.313ZM282.932 147.513C283.143 135.94 276.579 128.54 266.108 128.193C254.849 127.82 249.323 136.793 249.359 147.407C249.392 157.313 254.717 165.633 265.212 165.74C275.951 165.847 282.639 159.073 282.932 147.513ZM327.603 75.2333C349.772 75.3133 363.581 90.7666 360.649 116.7C356.097 156.94 345.051 195.447 315.067 225.42C296.769 243.713 279.836 246.98 258.311 236.78C238.599 227.447 221.409 199.98 225.36 180.087C234.073 136.22 256.911 101.953 297.847 81.4733C307.599 76.5933 318.003 74.0333 327.603 75.2333Z" fill="#F8CBE8"/>
<path d="M798.18 96.6337C792.077 88.247 790.821 81.247 790.615 73.8736C790.523 70.6203 788.713 68.5137 785.355 68.6337C782.911 68.7137 781.679 70.487 780.727 72.7937C776.016 84.207 784.192 104.82 797.596 114.687C809.809 123.674 821.32 119.954 831.881 111.834C836.079 108.607 841.795 103.434 836.897 97.7003C832.099 92.0737 828.125 98.3936 824.241 101.247C820.352 104.1 813.284 109.567 812.183 103.007C810.396 92.367 819.413 83.367 823.667 73.5937C826.057 68.1003 830.024 68.007 834.84 70.087C838.597 71.7137 842.729 73.1936 844.837 67.9803C846.581 63.6603 845.235 59.5804 840.463 58.687C829.744 56.6604 832.511 50.3136 834.432 43.3803C835.604 39.1669 836.555 33.567 830.612 31.9937C825.532 30.647 824.305 35.9003 822.619 39.207C819.773 44.7803 818.209 52.1537 809.673 45.2603C806.084 42.367 802.167 41.727 799.301 45.727C795.595 50.9137 799.116 54.1937 803.485 56.4337C811.995 60.807 812.552 66.7537 808.235 74.6337C804.735 81.0337 802.121 87.9003 798.18 96.6337ZM1025.74 199.034C1026.92 206.687 1025.14 213.834 1022.37 220.714C1011.59 247.46 1000.92 250.794 976.164 236.34C912.2 199.007 848.815 160.567 783.631 125.487C759.284 112.38 752.111 93.327 753.917 70.6736C756.751 35.1403 771.544 4.60694 823.619 17.0469C875.452 29.4203 919.531 55.5137 960.115 89.1937C988.16 112.474 1009.81 139.78 1022.16 174.194C1025.05 182.247 1027.02 190.474 1025.74 199.034Z" fill="#6B4FA5"/>
<path d="M790.736 184.367C743.685 173.834 701.559 153.047 663.471 123.647C649.903 113.167 638.572 101.101 630.495 85.7939C626.003 77.2872 627.464 70.2206 633.891 64.4206C640.339 58.6072 646.615 62.5139 652.033 67.1272C671.349 83.5806 691.709 99.0072 709.56 116.927C732.505 139.954 760.487 156.087 785.38 176.354C788.157 178.621 790.635 180.541 790.749 184.354L790.736 184.367Z" fill="#6B4FA4"/>
<path d="M790.749 184.354C791.243 184.607 791.733 184.874 792.224 185.127C791.728 184.874 791.232 184.62 790.736 184.367L790.749 184.354Z" fill="#6B4FA4"/>
<path d="M896.423 557.022C896.193 594.074 859.323 626.183 819.723 628.086C793.069 629.366 760.964 594.57 763.083 556.239C765.081 520.133 798.177 487.376 835.832 487.763C872.372 488.139 896.677 515.919 896.423 557.022Z" fill="#F4A4D5"/>
<path d="M446.513 527.328C446.516 566.03 469.261 599.264 505.172 613.042C528.631 622.042 547.9 616.967 564.431 597.119C568.043 592.783 570.951 587.854 574.115 583.152C576.652 579.382 579.025 574.448 584.587 577.558C589.764 580.454 587.692 585.087 586.035 589.532C574.015 621.766 540.315 639.386 506.28 631.087C460.077 619.822 419.549 564.518 427.832 523.323C429.331 515.872 427.805 503.392 440.637 505.342C451.353 506.971 445.047 517.443 446.481 523.928C446.72 525.011 446.515 526.192 446.513 527.328Z" fill="#B55A90"/>
<path d="M536.804 160.7C520.973 160.7 507.917 175.794 507.668 194.087C507.497 206.634 510.196 217.407 525.299 217.834C541.641 218.3 562.585 198.234 562.055 183.727C561.621 171.847 549.385 160.7 536.804 160.7ZM525.875 232.154C501.775 235.38 490.897 216.78 491.605 197.873C492.703 168.647 511.069 144.767 538.599 146.487C561.817 147.954 579.444 162.354 579.279 182.9C579.076 207.967 553.012 232.007 525.875 232.154Z" fill="#DCAFD1"/>
<path d="M713.685 281.075C700.821 286.213 697.099 304.381 707.229 312.575C716.644 320.192 738.103 318.813 748.437 309.848C760.369 299.496 758.576 286.816 753.527 274.268C750.227 266.06 742.219 261.527 734.304 263.86C725.795 266.38 712.683 265.993 713.717 280.981L712.465 280.076L713.685 281.075ZM773.725 286.572C775.908 318.796 750.533 333.028 723.717 334.075C704.22 334.836 685.959 318.712 685.569 302.248C684.94 275.679 713.197 248.873 741.575 249.127C761.775 249.313 773.717 263.22 773.725 286.572Z" fill="#DCAFD1"/>
<path d="M486.879 421.417C486.773 426.099 483.365 427.968 479.936 430.203C469.515 436.993 458.72 443.395 452.461 454.924C450.411 458.7 447.181 461.319 442.796 457.993C439.147 455.227 436.131 452.3 438.059 446.589C440.921 438.112 470.025 416.359 479.513 416.332C483.155 416.32 486.391 416.853 486.879 421.417Z" fill="#FEFEFF"/>
<path d="M564.377 463.222C559.461 476.239 554.449 489.922 549.087 503.468C547.391 507.754 543.529 508.966 539.272 507.393C534.304 505.555 534.857 501.154 535.872 497.415C539.579 483.753 546.383 471.404 553.015 459.024C554.659 455.955 557.343 453.604 561.261 455.552C564.064 456.944 565.104 459.459 564.377 463.222Z" fill="#FEFEFF"/>
<path d="M525.48 691.976C521.792 700.479 531.364 716.891 517.301 716.827C506.361 716.776 512.917 700.755 511.424 691.938C510.395 685.86 511.316 679.411 509.968 673.443C508.797 668.251 508.707 664.116 514.152 662.498C520.097 660.73 522.588 665.772 523.415 670.019C524.805 677.16 524.856 684.563 525.48 691.976Z" fill="#FEFEFF"/>
<path d="M524.572 447.386C517.191 458.75 512.661 473.032 500.621 482.242C499.316 483.241 496.149 483.009 494.525 482.114C491.952 480.696 490.94 477.924 492.216 474.868C497.471 462.278 505.397 451.398 515.152 442.112C518.873 438.569 523.685 439.418 524.572 447.386Z" fill="#FEFEFF"/>
<path d="M616.741 499.836C616.741 504.305 617.196 506.147 616.664 507.636C614.032 515.009 615.803 528.443 605.621 527.149C594.328 525.715 601.272 513.772 601.159 506.288C601.127 504.152 602.059 501.901 602.935 499.868C605.463 493.999 598.169 482.009 609.135 482.719C616.905 483.22 615.488 495.247 616.741 499.836Z" fill="#FEFEFF"/>
<path d="M477.051 691.339C479.796 681.175 484.203 671.87 484.681 661.482C484.807 658.774 487.069 655.878 490.357 656.463C492.139 656.779 493.947 658.835 495.079 660.546C498.459 665.65 492.101 697.008 486.907 700.346C485.241 701.415 482.396 701.998 480.649 701.334C475.696 699.447 477.844 694.663 477.051 691.339Z" fill="#FEFEFF"/>
<path d="M439.672 686.007C441.249 674.874 442.04 666.549 443.725 658.409C444.747 653.474 448.617 650.653 453.817 652.246C458.033 653.538 459.693 656.675 458.403 661.471C456.381 668.978 454.677 676.598 453.367 684.261C452.476 689.469 451.948 695.339 445.083 694.121C439.907 693.201 439.631 687.725 439.672 686.007Z" fill="#FEFEFF"/>
<path d="M282.932 147.513C282.639 159.073 275.951 165.847 265.212 165.74C254.717 165.633 249.392 157.313 249.359 147.407C249.323 136.793 254.849 127.82 266.108 128.193C276.579 128.54 283.143 135.94 282.932 147.513Z" fill="#BD6FA4"/>
<path d="M311.955 140.314C325.365 140.914 331.8 147.967 332.244 158.567C332.684 169.127 327.321 177.261 315.263 177.447C303.615 177.621 299.92 170.247 299.545 159.767C299.172 149.341 302.944 142.421 311.955 140.314Z" fill="#BD6FA4"/>
<path d="M798.18 96.6337C802.121 87.9003 804.735 81.0337 808.235 74.6337C812.552 66.7537 811.995 60.807 803.485 56.4337C799.116 54.1937 795.595 50.9137 799.301 45.727C802.167 41.727 806.084 42.367 809.673 45.2604C818.209 52.1537 819.773 44.7803 822.619 39.207C824.305 35.9003 825.532 30.647 830.612 31.9937C836.555 33.567 835.604 39.1669 834.432 43.3803C832.511 50.3136 829.744 56.6604 840.463 58.687C845.235 59.5804 846.581 63.6603 844.837 67.9803C842.729 73.1936 838.597 71.7137 834.84 70.087C830.024 68.007 826.057 68.1004 823.667 73.5937C819.413 83.367 810.396 92.367 812.183 103.007C813.284 109.567 820.352 104.1 824.241 101.247C828.125 98.3936 832.099 92.0737 836.897 97.7003C841.795 103.434 836.079 108.607 831.881 111.834C821.32 119.954 809.809 123.674 797.596 114.687C784.192 104.82 776.016 84.207 780.727 72.7937C781.679 70.487 782.911 68.7137 785.355 68.6337C788.713 68.5137 790.523 70.6203 790.615 73.8736C790.821 81.247 792.077 88.247 798.18 96.6337Z" fill="#DDCDEA"/>
<path d="M539.303 186.314C539.276 178.167 534.465 175.914 528.301 175.887C520.947 175.861 516.685 180.314 516.56 187.287C516.429 194.581 520.88 198.554 528.403 197.954C535.871 197.341 538.635 192.26 539.303 186.314ZM536.804 160.7C549.385 160.7 561.621 171.847 562.055 183.727C562.585 198.234 541.641 218.3 525.299 217.834C510.196 217.407 507.497 206.634 507.668 194.087C507.917 175.794 520.973 160.7 536.804 160.7Z" fill="#FEFEFF"/>
<path d="M713.717 280.982C712.683 265.994 725.795 266.381 734.304 263.861C742.219 261.527 750.227 266.061 753.527 274.269C758.576 286.817 760.369 299.497 748.437 309.849C738.103 318.814 716.644 320.193 707.229 312.575C697.099 304.382 700.821 286.214 713.677 281.059C712.58 286.957 710.084 293.062 716.548 297.733C720.672 300.713 724.899 300.853 728.883 297.975C734.188 294.145 738.251 288.966 734.084 282.515C728.416 273.741 720.877 276.887 713.717 280.982Z" fill="#FEFEFF"/>
<path d="M539.303 186.313C538.635 192.26 535.871 197.34 528.403 197.953C520.88 198.553 516.429 194.58 516.56 187.287C516.685 180.313 520.947 175.86 528.301 175.887C534.465 175.913 539.276 178.167 539.303 186.313Z" fill="#22201E"/>
<path d="M713.717 280.982C720.877 276.887 728.416 273.741 734.084 282.515C738.251 288.966 734.188 294.145 728.883 297.975C724.899 300.853 720.672 300.713 716.548 297.733C710.084 293.062 712.58 286.957 713.677 281.059C713.685 281.075 712.465 280.077 712.465 280.077L713.717 280.982Z" fill="#22201E"/>
</svg>
