<svg width="1497" height="1246" viewBox="0 0 1497 1246" fill="none" xmlns="http://www.w3.org/2000/svg">
<g clip-path="url(#clip0_530_55469)">
<path d="M737.98 108.313C750.807 118.26 753.433 138.447 747.46 152.807C743.953 161.247 737.3 168.5 727.833 169.767L726.487 169.847C716.527 170.1 709.02 163.273 704.873 154.78C697.98 140.567 699.967 120.3 712.087 109.42C719.393 102.82 730.167 102.18 737.98 108.313Z" fill="#FFF100"/>
<path d="M726.487 169.847L727.833 169.767C727.807 215.233 727.82 260.7 727.833 306.167C756.833 307.087 785.073 313.513 812.247 323.473C824.767 328.207 836.207 335.287 846.34 344.02C869.14 363.687 885.287 391.207 897.033 418.62C912.7 455.46 922.353 495.753 929.033 535.14C938.207 589.98 942.02 646.233 942.847 701.793C978.233 709.927 1013.15 719.993 1047.31 732.353C1088.71 747.34 1129.51 765.7 1167.33 788.327C1193.27 803.913 1218.71 822.06 1240.29 843.38C1253.62 856.713 1266.27 872.14 1274.41 889.247C1280.86 902.833 1284.49 917.753 1282.21 932.807C1279.57 950.38 1270.15 966.833 1259.45 980.74C1243.55 1001.25 1223.1 1018.95 1202.22 1034.21C1168.5 1058.7 1130.94 1078.77 1092.83 1095.53C1039.33 1118.93 982.967 1136.43 925.887 1148.65C864.567 1161.71 801.86 1168.7 739.167 1169.13C684.247 1169.45 629.287 1164.83 575.18 1155.5C518.033 1145.62 461.487 1130.49 407.367 1109.63C369.06 1094.82 331.367 1076.93 296.513 1055.14C272.793 1040.25 249.607 1023.07 229.9 1003.11C216.46 989.367 203.753 973.393 195.953 955.727C190.473 943.367 187.607 930.02 188.913 916.473C190.82 892.38 202.167 870.327 216.847 851.527C234.007 829.607 256.327 810.927 279.233 795.26C309.353 774.753 342.58 757.993 376.207 744.073C420.22 725.927 465.593 712.393 512.007 701.953C512.78 632.447 517.98 560.087 535.22 492.567C543.74 459.647 555.673 426.367 573.033 397.007C590.3 367.727 613.1 342.3 643.167 325.82C668.687 311.727 697.5 305.7 726.54 306.193C726.567 260.753 726.527 215.3 726.487 169.847Z" fill="#768FA4"/>
<path d="M787.687 318.633C802.447 322.98 816.567 327.073 829.647 335.366C851.967 349.26 868.513 370.38 881.247 393.06C895.62 418.7 905.687 447.5 913.327 475.82C926.14 524.113 932.847 574.726 936.593 624.5C939.9 669.313 940.687 714.273 939.313 759.18C939.153 761.126 939.22 763.34 938.46 765.166C936.033 768.006 932.767 770.22 929.78 772.447C913.34 784.1 894.073 792.566 875.06 799.046C841.727 810.3 806.127 816.18 771.153 819.18C768.46 818.966 766.247 820.473 765.593 816.913C771.46 815.9 777.287 815.673 783.207 815.006C814.34 811.726 846.007 805.86 875.66 795.66C893.14 789.606 910.7 781.82 926.033 771.393C929.047 769.393 931.793 767.073 934.487 764.673C927.047 761.366 919.26 758.753 911.567 756.1C862.313 739.62 810.34 729.313 758.527 725.82L758.5 728.66C758.247 726.646 757.98 724.646 757.727 722.633C818.553 726.98 879.273 739.66 936.14 761.846C936.94 742.42 937.153 722.953 936.807 703.527C892.9 693.927 848.193 686.94 803.353 683.886C804.873 682.94 806.38 681.966 807.887 680.993C851.313 684.633 894.287 691.046 936.86 700.406C936.1 646.886 932.393 593.1 923.86 540.246C917.26 500.046 907.62 458.873 891.7 421.286C880.66 395.393 865.393 369.033 844.233 350.113C833.273 340.26 820.553 332.46 806.567 327.726C773.727 316.22 738.047 309.326 703.207 313.246C676.367 316.1 650.42 325.926 628.753 342.086C600.047 363.326 579.38 393.82 564.62 425.98C547.633 463.06 537.22 504.113 530.407 544.22C521.807 595.806 518.42 648.38 518.02 700.62C537.073 696.633 556.193 693.006 575.447 690.1L575.527 693.14C556.26 696.113 537.087 699.66 518.047 703.753C517.78 717.593 518.007 731.446 518.153 745.273C537.527 739.94 557.14 735.713 576.967 732.433L577.087 735.406C562.58 738.046 548.1 740.78 533.78 744.353C529.047 745.58 524.473 746.326 520.033 748.46C531.593 760.366 545.593 770.1 559.847 778.513C566.9 782.54 573.753 786.42 581.34 789.38C581.473 790.633 581.593 791.886 581.727 793.153C559.713 783.206 538.447 770.086 520.74 753.593C518.007 750.753 514.913 748.98 515.167 744.553C514.153 688.94 515.78 632.86 522.527 577.606C527.913 534.366 536.633 490.126 551.793 449.18C564.74 414.286 583.1 380.153 610.033 354.033C630.527 334.046 656.233 319.633 684.233 313.393C718.46 305.593 754.18 309.26 787.687 318.633Z" fill="#A2AFBE"/>
<path d="M806.567 327.727C820.553 332.46 833.273 340.26 844.233 350.113C865.393 369.033 880.66 395.393 891.7 421.287C907.62 458.873 917.26 500.047 923.86 540.247C932.393 593.1 936.1 646.887 936.86 700.407C894.287 691.047 851.313 684.633 807.887 680.993C834.073 663.767 859.06 644.5 883.353 624.727C896.673 613.78 909.94 602.727 922.727 591.167C910.193 578.913 896.673 567.633 882.927 556.767C857.94 537.247 830.993 519.047 802.38 505.3C769.913 489.647 733.033 483.593 697.273 488.007C701.447 472.047 703.767 454.94 702.353 438.447C701.5 430.047 699.407 420.46 693.713 413.927C689.047 408.46 681.407 405.98 674.473 408.06C668.847 409.793 664.727 414.207 661.673 419.047C657.42 425.887 654.9 433.967 652.847 441.7C649.833 432.46 646.007 423.647 638.18 417.46C631.673 412.3 623.207 410.713 615.113 412.3C607.7 413.793 600.593 416.42 596.713 423.407C591.647 432.713 594.233 444.073 597.087 453.66C590.687 448.94 583.527 443.74 575.113 444.527C568.433 445.193 563.833 450.487 561.98 456.62C559.207 466.02 562.793 476.14 567.22 484.433C575.087 498.927 586.66 511.873 598.247 523.5C590.527 537.447 585.887 552.7 582.58 568.233C574.433 607.527 574.473 650.127 575.447 690.1C556.193 693.007 537.073 696.633 518.02 700.62C518.42 648.38 521.807 595.807 530.407 544.22C537.22 504.113 547.633 463.06 564.62 425.98C579.38 393.82 600.047 363.327 628.753 342.087C650.42 325.927 676.367 316.1 703.207 313.247C738.047 309.327 773.727 316.22 806.567 327.727Z" fill="white"/>
<path d="M674.473 408.06C681.407 405.98 689.047 408.46 693.713 413.927C699.407 420.46 701.5 430.047 702.353 438.447C703.767 454.94 701.447 472.047 697.273 488.007C696.753 489.753 696.247 491.5 695.727 493.247C691.793 490.82 687.58 489.047 683.207 487.567L685.847 487.66C690.113 473.98 692.167 458.82 691.793 444.5C691.46 437.287 690.54 428.66 686.513 422.473C684.34 419.153 680.273 417.007 676.487 419.047C671.9 421.753 669.127 427.793 667.193 432.54C662.167 445.793 659.927 460.273 658.487 474.313C657.82 478.607 658.847 482.447 655.233 485.54C652.473 485.807 649.713 486.1 646.967 486.513C646.46 470.66 646.273 455.433 640.753 440.26C638.553 434.433 635.073 428.02 629.5 424.793C624.02 421.54 617.033 422.407 611.367 424.7C608.5 425.833 606.26 427.753 605.407 430.793C603.847 436.38 605.407 443.14 607.02 448.593C611.9 464.26 620.593 478.633 629.1 492.487C625.9 494.193 622.807 496.087 619.847 498.18C612.527 485.633 603.327 474.167 592.607 464.367C588.433 460.767 583.26 456.473 577.727 455.447C574.58 454.727 572.94 457.94 572.26 460.46C570.953 466.54 573.927 473.607 576.7 478.94C583.687 491.913 594.02 503.567 604.3 514.02C602.127 517.073 600.1 520.247 598.247 523.5C586.66 511.873 575.087 498.927 567.22 484.433C562.793 476.14 559.207 466.02 561.98 456.62C563.833 450.487 568.433 445.193 575.113 444.527C583.527 443.74 590.687 448.94 597.087 453.66C594.233 444.073 591.647 432.713 596.713 423.407C600.593 416.42 607.7 413.793 615.113 412.3C623.207 410.713 631.673 412.3 638.18 417.46C646.007 423.647 649.833 432.46 652.847 441.7C654.9 433.967 657.42 425.887 661.673 419.047C664.727 414.207 668.847 409.793 674.473 408.06Z" fill="#8AA7D0"/>
<path d="M686.513 422.473C690.54 428.66 691.46 437.287 691.793 444.5C692.167 458.82 690.113 473.98 685.847 487.66L683.207 487.567C674.087 484.82 664.647 484.553 655.233 485.54C658.847 482.447 657.82 478.607 658.487 474.313C659.927 460.273 662.167 445.793 667.193 432.54C669.127 427.793 671.9 421.753 676.487 419.047C680.273 417.007 684.34 419.153 686.513 422.473Z" fill="#91D4F5"/>
<path d="M629.5 424.793C635.073 428.02 638.553 434.433 640.753 440.26C646.273 455.433 646.46 470.66 646.967 486.513C640.807 487.753 634.753 489.74 629.1 492.487C620.593 478.633 611.9 464.26 607.02 448.593C605.407 443.14 603.847 436.38 605.407 430.793C606.26 427.753 608.5 425.833 611.367 424.7C617.033 422.407 624.02 421.54 629.5 424.793Z" fill="#91D4F5"/>
<path d="M577.727 455.446C583.26 456.473 588.433 460.766 592.607 464.366C603.327 474.166 612.527 485.633 619.847 498.18C613.887 502.633 608.673 508.02 604.3 514.02C594.02 503.566 583.687 491.913 576.7 478.94C573.927 473.606 570.953 466.54 572.26 460.46C572.94 457.94 574.58 454.726 577.727 455.446Z" fill="#91D4F5"/>
<path d="M646.967 486.514C649.713 486.1 652.473 485.807 655.233 485.54C664.647 484.553 674.087 484.82 683.207 487.567C687.58 489.047 691.793 490.82 695.727 493.247C699.433 495.66 702.887 498.46 706.06 501.54C715.753 511.273 722.287 523.58 727.26 536.273C733.46 552.3 737.407 569.447 740.473 586.327C741.3 590.98 742.087 595.62 742.807 600.287C747.527 631.033 750.233 662.42 753.94 693.393C754.553 698.313 755.247 703.22 755.9 708.14C756.54 712.967 757.167 717.793 757.727 722.633C757.98 724.647 758.247 726.647 758.5 728.66C761.967 757.927 764.833 787.513 765.06 816.993C764.593 817.9 764.14 818.82 763.673 819.727C758.727 820.247 753.793 820.527 748.82 820.674C748.593 781.327 743.847 741.194 738.633 702.207C733.62 663.567 730.873 623.687 723.7 585.46C720.22 567.474 715.687 548.58 707.593 532.073C702.393 521.673 695.127 511.247 684.58 505.74C675.753 501.047 666.233 500.927 656.487 501.7C646.593 502.567 637.033 505.673 629.073 511.74C620.433 518.193 614.007 527.78 609.447 537.447C602.607 552.087 598.753 568.593 596.22 584.487C592.273 609.433 591.273 635.274 591.34 660.5C591.767 707.047 593.313 754.22 599.113 800.434C593.18 798.327 587.407 795.833 581.727 793.153C581.593 791.887 581.473 790.633 581.34 789.38C579.407 771.433 578.087 753.433 577.087 735.407L576.967 732.434C576.26 719.34 575.873 706.26 575.527 693.14L575.447 690.1C574.473 650.127 574.433 607.527 582.58 568.233C585.887 552.7 590.527 537.447 598.247 523.5C600.1 520.247 602.127 517.074 604.3 514.02C608.673 508.02 613.887 502.634 619.847 498.18C622.807 496.087 625.9 494.193 629.1 492.487C634.753 489.74 640.807 487.754 646.967 486.514Z" fill="#689F6D"/>
<path d="M697.273 488.006C733.033 483.593 769.913 489.646 802.38 505.3C830.993 519.046 857.94 537.246 882.927 556.766C896.673 567.633 910.193 578.913 922.727 591.166C909.94 602.726 896.673 613.78 883.353 624.726C859.06 644.5 834.073 663.766 807.887 680.993C806.38 681.966 804.873 682.94 803.353 683.886C788.54 693.26 772.593 702.646 755.9 708.14C755.247 703.22 754.553 698.313 753.94 693.393C760.367 692.82 765.367 689.753 771.007 686.953C786.607 678.94 800.993 669.366 815.407 659.42C840.567 641.82 864.687 622.58 888.3 602.94C891.713 600.206 894.98 597.34 898.007 594.18C889.687 592.46 880.98 591.886 872.5 591.446C846.713 590.5 821.033 592.153 795.327 594.366C777.82 596.006 760.207 597.766 742.807 600.286C742.087 595.62 741.3 590.98 740.473 586.326C750.767 585.66 760.913 584.086 771.18 583.046C810.073 578.9 848.393 576.046 887.527 578.593C882.247 573.02 876.167 568.913 870.18 564.153C845.313 545.1 818.9 527.62 790.26 514.74C772.407 507.006 753.247 502.246 733.847 500.726C724.367 500.233 715.433 499.526 706.06 501.54C702.887 498.46 699.433 495.66 695.727 493.246C696.247 491.5 696.753 489.753 697.273 488.006Z" fill="#E3BC75"/>
<path d="M733.847 500.727C753.247 502.247 772.407 507.007 790.26 514.74C818.9 527.62 845.313 545.1 870.18 564.153C876.167 568.913 882.247 573.02 887.527 578.593C848.393 576.047 810.073 578.9 771.18 583.047C760.913 584.087 750.767 585.66 740.473 586.327C737.407 569.447 733.46 552.3 727.26 536.273C722.287 523.58 715.753 511.273 706.06 501.54C715.433 499.527 724.367 500.233 733.847 500.727Z" fill="#F4CF6F"/>
<path d="M656.487 501.7C666.233 500.927 675.753 501.047 684.58 505.74C695.127 511.247 702.393 521.673 707.593 532.073C715.687 548.58 720.22 567.473 723.7 585.46C730.873 623.687 733.62 663.567 738.633 702.207C743.847 741.194 748.593 781.327 748.82 820.673C697.753 823.34 647.26 818.313 599.113 800.433C593.313 754.22 591.767 707.047 591.34 660.5C591.273 635.273 592.273 609.433 596.22 584.487C598.753 568.593 602.607 552.087 609.447 537.447C614.007 527.78 620.433 518.193 629.073 511.74C637.033 505.673 646.593 502.567 656.487 501.7Z" fill="#A6D185"/>
<path d="M644.927 550.34C651.207 548.153 657.913 550.18 663.273 553.686C671.207 558.873 677.353 567.153 681.367 575.646C687.207 588.1 689.06 602.913 683.94 615.94C679.927 626.006 672.593 634.886 661.847 637.966C649.86 641.353 637.327 636.833 628.527 628.446C618.1 618.793 614.047 603.633 615.02 589.806C616.38 571.993 628.927 557.286 644.927 550.34Z" fill="#61A8A1"/>
<path d="M647.673 561.046C650.82 559.193 655.1 561.393 657.82 563.18C665.7 568.793 671.247 577.94 674.073 587.086C677.033 596.66 676.86 606.98 671.913 615.886C668.38 622.34 662.807 627.566 655.153 628.126C644.367 628.9 633.94 620.966 629.513 611.5C625.46 602.26 624.287 590.926 628.073 581.406C631.54 572.446 639.233 565.313 647.673 561.046Z" fill="white"/>
<path d="M646.34 582.393C649.127 581.3 651.62 581.486 654.34 582.66C658.82 584.606 663.673 586.54 665.007 591.78C666.847 597.873 662.873 604.606 656.487 605.46C649.927 605.726 643.713 607.926 638.967 602.006C633.38 594.646 639.033 585.646 646.34 582.393Z" fill="#727171"/>
<path d="M872.5 591.447C880.98 591.887 889.687 592.46 898.007 594.18C894.98 597.34 891.713 600.207 888.3 602.94C864.687 622.58 840.567 641.82 815.407 659.42C800.993 669.367 786.607 678.94 771.007 686.953C765.367 689.753 760.367 692.82 753.94 693.393C750.233 662.42 747.527 631.033 742.807 600.287C760.207 597.767 777.82 596.007 795.327 594.367C821.033 592.153 846.713 590.5 872.5 591.447Z" fill="#F4CF6F"/>
<path d="M803.353 683.887C848.193 686.94 892.9 693.927 936.807 703.527C937.153 722.953 936.94 742.42 936.14 761.847C879.273 739.66 818.553 726.98 757.727 722.633C757.167 717.793 756.54 712.967 755.9 708.14C772.593 702.647 788.54 693.26 803.353 683.887Z" fill="#E1F2FD"/>
<path d="M575.527 693.14C575.873 706.26 576.26 719.34 576.967 732.434C557.14 735.714 537.527 739.94 518.153 745.274C518.007 731.447 517.78 717.594 518.047 703.753C537.087 699.66 556.26 696.113 575.527 693.14Z" fill="#E1F2FD"/>
<path d="M511.767 705.1C512.18 719.127 511.807 733.207 512.313 747.247C512.22 749.807 515.033 751.94 516.633 753.7C536.407 772.913 561.22 787.673 586.473 798.487C631.207 817.5 680.1 824.847 728.5 824.22C762.833 823.593 797.46 820.567 831.14 813.767C855.633 808.78 880.353 801.607 903.073 791.087C915.54 785.247 928.06 778.22 938.593 769.273C939.94 767.98 941.927 766.62 941.913 764.553C943.02 744.833 942.82 724.713 942.913 704.98C972.033 711.553 1000.82 719.713 1029.13 729.207C1075.46 744.9 1121.31 764.633 1163.46 789.553C1187.91 804.087 1211.93 820.82 1232.69 840.3C1247.94 854.727 1262.59 871.567 1271.7 890.633C1278.31 904.553 1281.81 919.607 1278.78 934.98C1275.34 952.7 1264.98 969.26 1253.7 983.073C1235.61 1005.05 1212.5 1023.71 1189.09 1039.74C1147.83 1067.7 1101.93 1089.77 1055.43 1107.51C957.58 1144.49 853.06 1164.06 748.5 1166.01C641.3 1167.62 533.5 1150.79 432.207 1115.53C386.887 1099.62 342.167 1079.66 301.207 1054.47C275.553 1038.62 250.327 1020.09 229.447 998.233C217.9 986.113 207.14 972.233 199.927 957.087C194.273 945.14 190.9 932.42 191.753 919.127C192.967 895.82 203.487 874.313 217.313 855.94C232.38 835.953 251.833 818.727 272.033 804.06C302.673 781.873 337.087 763.967 371.86 749.193C417.127 730.047 463.86 715.953 511.767 705.1Z" fill="#A4D9E2"/>
<path d="M758.527 725.82C810.34 729.313 862.313 739.62 911.567 756.1C919.26 758.753 927.047 761.367 934.487 764.673C931.793 767.073 929.047 769.393 926.033 771.393C910.7 781.82 893.14 789.606 875.66 795.66C846.007 805.86 814.34 811.727 783.207 815.007C777.287 815.673 771.46 815.9 765.593 816.913L765.06 816.993C764.833 787.513 761.967 757.926 758.5 728.66L758.527 725.82Z" fill="#C8DEE6"/>
<path d="M577.087 735.407C578.087 753.433 579.407 771.433 581.34 789.38C573.753 786.42 566.9 782.54 559.847 778.513C545.593 770.1 531.593 760.367 520.033 748.46C524.473 746.327 529.047 745.58 533.78 744.353C548.1 740.78 562.58 738.047 577.087 735.407Z" fill="#C8DEE6"/>
<path d="M234.393 886.447C246.887 882.3 261.007 887.033 268.42 897.886C275.367 907.753 275.513 921.46 268.82 931.486C262.74 940.82 251.527 946.086 240.46 944.806C226.54 943.42 215.06 931.807 213.873 917.873C212.393 904.06 221.193 890.66 234.393 886.447Z" fill="#E60012"/>
<path d="M1216.79 892.873C1223.27 891.513 1230.17 892.473 1235.97 895.673C1246.61 901.5 1252.33 913.94 1249.69 925.82C1246.94 939.193 1234.11 948.78 1220.49 947.593C1206.95 946.727 1195.73 935.407 1194.94 921.887C1193.87 908.313 1203.47 895.58 1216.79 892.873Z" fill="#FFF100"/>
<path d="M366.433 957.14C380.127 954.18 394.727 960.247 402.367 971.967C408.447 981.06 409.753 992.967 405.9 1003.19C402.3 1012.98 394.113 1020.82 384.193 1024.01C373.647 1027.46 361.66 1025.55 352.793 1018.89C342.94 1011.67 337.553 999.247 339.033 987.113C340.567 972.447 351.98 960.007 366.433 957.14Z" fill="#31AE36"/>
<path d="M1031.81 981.433C1046.19 978.22 1061.39 984.727 1068.95 997.367C1075.35 1007.83 1075.57 1021.5 1069.53 1032.18C1063.97 1042.23 1053.35 1049.03 1041.87 1049.82C1028.53 1050.91 1015.37 1043.79 1008.95 1032.06C1003.02 1021.49 1003.23 1007.89 1009.53 997.527C1014.35 989.393 1022.55 983.433 1031.81 981.433Z" fill="#31AE36"/>
<path d="M558.42 1002.5C569.02 999.753 580.7 1002.23 589.113 1009.26C597.22 1015.87 602.007 1026.06 601.727 1036.53C601.74 1048.89 594.567 1060.57 583.753 1066.43C574.207 1071.7 562.14 1072.05 552.313 1067.34C542.873 1062.89 535.7 1054.06 533.393 1043.87C531.78 1036.26 532.447 1028.23 535.847 1021.19C540.153 1012.01 548.593 1005.03 558.42 1002.5Z" fill="#FFF100"/>
<path d="M795.833 1021.57C806.607 1018.97 818.287 1021.66 826.66 1028.97C834.967 1036.05 839.473 1046.95 838.607 1057.85C837.807 1069.54 830.753 1080.27 820.42 1085.77C810.647 1091.07 798.18 1091.18 788.3 1086.06C780.527 1082.11 774.38 1075.13 771.46 1066.9C768.18 1057.81 768.927 1047.38 773.54 1038.87C778.113 1030.27 786.38 1023.86 795.833 1021.57Z" fill="#E60012"/>
</g>
<defs>
<clipPath id="clip0_530_55469">
<rect width="1496" height="1245.33" fill="white" transform="translate(0.5 0.5)"/>
</clipPath>
</defs>
</svg>
