<svg width="1406" height="1071" viewBox="0 0 1406 1071" fill="none" xmlns="http://www.w3.org/2000/svg">
<path d="M877 0.405762C880.223 8.33644 879.18 18.4872 879.207 26.9127C885.892 25.2008 893.272 22.6464 900.185 23.2482C892.871 25.1607 885.397 25.6154 878.284 28.5175C878.605 34.0409 878.311 39.5108 877.803 45.0074C884.234 43.4293 890.545 42.0117 897.23 42.667C891.574 44.1649 883.031 43.7771 877.709 46.6257C876.706 52.1223 876.853 57.8731 876.479 63.4499C881.012 63.1022 885.531 62.6743 890.09 62.8214C886.828 65.4159 880.504 63.8378 876.492 64.7205C876.372 69.2141 876.345 73.721 876.479 78.2146C876.051 78.1745 875.623 78.121 875.182 78.0809C875.276 73.721 875.329 69.3478 875.356 64.9746C871.492 64.7338 865.676 66.6463 862.239 64.6803C866.571 64.2123 870.957 64.1053 875.302 63.8378C875.69 58.0469 875.958 52.2561 876.586 46.4919C869.099 48.0433 859.178 51.2931 851.73 48.8859C860.555 48.9928 868.27 47.6822 876.706 45.3418C877.255 39.7649 877.509 34.1613 877.723 28.5443C869.312 30.3497 857.881 32.8774 850.072 27.9959C853.95 28.6379 857.506 29.7212 861.317 29.7747C866.759 29.8817 872.468 28.3972 877.91 27.6482C879.247 18.447 878.204 9.54008 877 0.405762Z" fill="#591E12"/>
<path d="M860.715 77.6661C865.582 77.2783 870.342 77.5859 875.182 78.0807C875.624 78.1208 876.052 78.1743 876.479 78.2144C880.557 78.5354 884.515 79.3111 888.5 80.2071C882.456 80.2472 876.413 85.5567 877.295 91.8958C882.095 90.9998 886.895 90.3445 891.789 90.2107C894.022 88.1646 896.054 85.998 897.993 83.6843C896.361 82.815 894.757 81.9324 893.099 81.1299C901.014 82.5743 908.97 83.5238 916.979 84.2193L917.634 85.9579L915.709 86.0381C911.189 84.8612 904.985 82.7482 900.386 84.1658C897.017 86.3725 894.342 89.7828 892.029 93.0192C898.019 96.911 906.162 87.5895 911.403 92.1901C909.438 93.9153 907.459 95.6004 905.721 97.553C906.068 95.9749 906.389 94.3834 906.683 92.7785C901.028 94.1694 896.682 96.804 890.746 94.6509C889.369 95.4132 887.991 96.1888 886.628 96.9645C887.537 95.2393 888.446 93.5007 889.342 91.7621C885.424 91.9092 881.988 92.4575 878.298 93.8083C877.509 95.266 876.707 96.7238 875.891 98.1682C874.928 96.6569 874.247 94.9852 873.886 93.1396C870.155 93.153 868.671 95.8144 866.264 98.1548C863.844 100.749 861.745 103.571 859.86 106.58C861.865 107.089 864.232 108.372 866.224 107.396C869.099 105.978 871.559 103.651 874.434 102.274C877.643 101.672 880.745 101.779 883.78 100.415C883.579 101.552 883.365 102.675 883.165 103.812C884.702 104.695 886.334 105.925 888.098 106.273C892.671 104.387 895.626 101.672 901.001 102.822C900.199 103.678 899.397 104.521 898.581 105.35C894.57 103.223 892.056 107.396 888.098 107.824C885.799 107.249 883.579 106.219 881.4 105.337C880.103 106.152 878.819 106.995 877.536 107.824C877.897 106.326 878.244 104.828 878.592 103.33C873.391 103.464 870.984 107.169 866.545 109.041C863.951 109.402 861.157 108.72 858.576 108.346C854.966 111.609 852.091 115.447 849.27 119.406C854.017 119.232 858.282 120.65 862.601 122.455C867.575 118.095 870.904 112.625 876.346 109.028C873.511 114.417 868.484 117.734 865.181 122.87C871.305 121.358 876.092 118.336 882.657 119.687C886.681 116.691 889.422 111.301 894.155 109.737C889.623 114.498 885.237 119.379 880.731 124.153L879.728 121.225C874.353 119.58 868.457 125.357 862.748 124.889C858.884 123.592 856.383 120.262 851.931 121.118C844.43 123.191 838.881 131.028 834.616 137.113C835.9 138.196 837.17 139.279 838.44 140.349C840.513 138.758 842.518 136.912 844.818 135.642C846.917 134.866 849.217 134.665 851.356 133.983C853.549 132.499 855.514 130.693 857.64 129.115C856.063 131.763 854.204 134.144 852.158 136.444C853.536 137.514 855.153 139.467 857.039 139.226C860.502 138.972 863.938 138.397 867.414 138.129C863.577 142.048 859.766 145.98 855.982 149.952C857.466 146.073 860.288 143.412 862.935 140.336C860.702 140.59 858.402 140.964 856.17 140.911C854.231 140.242 852.426 139.172 850.581 138.303C845.5 142.77 840.66 147.772 836.876 153.389C841.462 157.535 847.385 154.178 852.854 153.91C851.49 155.676 850.046 157.361 848.615 159.073L847.666 156.465C845.5 156.692 843.427 157.026 841.261 157.093C839.069 156.906 837.063 155.221 834.924 155.127C830.632 159.086 827.169 164.007 823.358 168.434C824.722 169.812 826.139 171.029 827.717 172.165C832.276 169.865 837.023 168.996 842.077 168.595C841.408 169.678 840.713 170.748 840.031 171.831C835.138 169.678 832.464 171.871 828.252 174.065C826.26 172.888 824.281 171.711 822.262 170.587C816.673 175.562 812.234 182.196 807.701 188.134C808.744 189.431 809.8 190.715 810.857 191.999C813.277 190.755 815.75 189.003 818.424 188.415C820.898 189.043 823.305 190.033 825.711 190.902L824.602 192.948L823.291 193.925C821.74 192.52 820.216 191.076 818.705 189.632C816.406 190.929 814.119 192.387 811.686 193.39C809.693 192.882 807.915 191.33 806.177 190.274C803.342 193.791 801.471 197.536 798.195 200.571C799.706 195.703 802.794 192.293 805.268 187.92C802.848 187.345 800.481 187.492 798.034 187.639C800.762 185.419 803.169 185.874 806.431 186.181C811.231 180.925 815.79 175.228 819.962 169.464C817.983 169.25 816.004 169.036 814.039 168.795C816.579 167.378 819.133 167.351 821.954 167.324C826.353 162.362 830.752 157.334 834.643 151.958C829.014 150.848 825.07 156.237 819.026 155.395C816.299 158.417 813.838 161.667 811.231 164.797C808.49 168.1 805.402 170.788 803.53 174.733C806.939 175.175 809.439 173.69 812.381 172.313C811.606 173.396 810.776 174.439 809.907 175.429C807.113 176.913 802.139 174.747 799.96 177.609C796.256 181.46 792.298 185.312 789.196 189.672C788.755 191.772 793.475 192.333 794.785 193.497C792.071 193.376 789.384 193.002 786.696 192.547C782.966 197.429 779.984 202.765 777.23 208.235C780.078 206.871 782.952 205.64 785.894 204.517C787.137 206.723 788.354 208.93 789.611 211.137C791.817 208.743 793.823 206.189 796.096 203.861C794.919 206.844 793.462 209.666 791.911 212.447C795.895 211.15 799.719 209.051 803.824 208.168C806.311 208.248 808.864 209.251 811.231 209.947C809.934 211.859 808.45 213.624 806.953 215.39C807.207 213.852 807.434 212.314 807.648 210.776C805.883 209.947 804.867 209.198 802.861 210.013C797.366 212.073 791.282 213.959 786.549 217.463C787.873 213.745 788.367 209.478 784.958 206.804C776.708 209.091 772.376 214.908 767.924 221.702C772.47 223.053 776.855 222.906 781.522 222.598C787.899 222.705 794.264 223.08 800.642 223.187L799.652 224.123C782.471 224.725 765.504 223.04 748.363 222.491C753.845 219.281 758.578 222.892 764.929 221.502C768.258 219.067 770.304 215.764 772.403 212.3C770.545 210.375 767.456 205.533 764.381 206.175C762.683 207.593 761.225 209.318 759.714 210.95C759.367 209.786 759.019 208.636 758.658 207.486C763.832 203.795 766.48 198.646 769.876 193.483C769.395 192.815 768.927 192.133 768.459 191.464C772.109 189.953 774.743 187.612 777.404 184.777C780.679 186.288 784.356 186.689 787.806 187.826C792.325 183.333 796.711 178.665 800.842 173.824C798.516 171.537 797.245 168.367 793.355 169.731C787.632 172.313 785.011 179.695 779.409 183.025C781.134 179.548 783.634 176.699 786.215 173.837C783.487 174.198 780.76 174.452 778.005 174.6C781.415 172.928 785.319 172.152 788.555 170.186C792.512 166.869 795.387 162.015 798.315 157.789C794.01 156.425 790.6 154.245 785.961 155.355C787.164 153.777 788.381 152.212 789.624 150.66C791.055 155.381 798.021 157.321 801.444 153.683C804.786 150.032 807.527 145.779 810.362 141.74C808.61 141.379 806.872 141.005 805.121 140.63C807.648 139.921 810.469 139.574 812.795 138.356C816.486 135 818.531 130.519 822.837 127.698C821.286 130.693 819.36 133.448 817.315 136.136C820.952 135.187 825.243 133.06 829.001 133.89C830.605 133.97 832.557 134.719 834.081 134.157C836.983 131.83 839.256 128.38 841.368 125.344C838.333 123.565 834.269 120.556 830.632 120.89C828.292 122.629 826.219 124.822 824.12 126.842C824.388 125.411 824.668 123.98 824.936 122.535C822.369 122.375 819.788 122.214 817.208 122.027C821.553 120.81 827.503 120.77 830.832 117.574C832.103 116.53 833.333 115.447 834.563 114.364C834.001 115.875 833.453 117.386 832.891 118.898C836.02 120.904 839.242 122.495 842.679 123.886C848.027 118.697 852.466 112.532 857.132 106.741C854.552 105.858 852.519 104.347 849.805 105.898C845.901 108.011 842.184 110.231 837.865 111.462C836.314 110.325 834.75 109.188 833.172 108.092C835.325 108.051 837.571 108.172 839.684 107.757C843.641 104.4 846.904 100.161 850.447 96.3627C847.225 95.6405 844.002 94.8648 840.767 94.2095C842.665 92.4575 844.671 90.8661 846.703 89.2746C846.021 90.6788 845.366 92.1098 844.738 93.5274C848.936 95.8144 853.081 93.8083 856.21 90.7724C860.221 86.6934 865.048 83.1226 868.31 78.4418C864.927 78.3615 861.718 78.6558 858.496 79.6588C859.231 78.9901 859.967 78.3348 860.715 77.6661Z" fill="#CB815D"/>
<path d="M868.31 78.4417C865.047 83.1225 860.22 86.6934 856.209 90.7724C853.081 93.8082 848.936 95.8143 844.737 93.5274C845.366 92.1098 846.021 90.6788 846.703 89.2745C850.58 86.0113 854.591 82.8952 858.496 79.6587C861.718 78.6557 864.927 78.3615 868.31 78.4417Z" fill="#EF9963"/>
<path d="M874.407 78.2412C874.46 82.9889 875.998 87.0144 871.893 90.505C867.829 90.5184 863.764 90.4783 859.699 90.184C863.777 85.8108 868.51 79.9798 874.407 78.2412Z" fill="#EF9963"/>
<path d="M888.5 80.207C890.037 80.5013 891.562 80.8089 893.099 81.1298C894.757 81.9323 896.362 82.8149 897.993 83.6842C896.054 85.9979 894.022 88.1645 891.789 90.2107C886.895 90.3444 882.095 90.9997 877.295 91.8957C876.413 85.5566 882.456 80.2472 888.5 80.207Z" fill="#EF9963"/>
<path d="M900.386 84.1658C904.985 82.7482 911.189 84.8613 915.709 86.0382C914.251 88.071 912.887 90.184 911.403 92.1901C906.162 87.5895 898.019 96.9111 892.029 93.0193C894.342 89.7828 897.017 86.3725 900.386 84.1658Z" fill="#EF9963"/>
<path d="M915.709 86.0382L917.634 85.958C926.245 98.1683 937.409 105.912 947.624 116.544C953.186 121.786 957.572 127.912 961.957 134.131C969.899 145.472 979.794 154.74 988.19 165.505C997.603 177.555 1004.96 191.571 1014.6 203.353C1020.59 209.786 1026.75 216.379 1031.86 223.561C1033.45 226.142 1035.74 229.178 1035.95 232.268C1036.14 256.661 1039.65 281.951 1041.81 305.85C1043.21 319.077 1042.9 332.665 1042.85 345.972C1042.57 354.932 1042.55 363.973 1041.65 372.893C1040.91 383.405 1041.14 394.024 1040.3 404.536C1039.65 427.672 1041.02 451.157 1038.65 474.187C1036.95 482.452 1037.26 490.69 1037.19 499.062C1027.54 499.089 1017.99 499.396 1008.42 497.925C992.883 497.805 977.119 497.711 961.583 497.644C943.546 495.21 924.907 497.631 906.83 495.344C898.313 494.849 889.877 495.411 881.413 494.073C865.248 493.391 849.498 490.636 833.239 490.864C812.287 491.118 791.336 490.864 770.384 491.359C759.086 492.87 747.788 491.88 736.503 493.712C736.356 490.422 736.222 487.133 736.115 483.856C734.123 447.372 735.3 410.594 734.925 374.057C734.604 347.216 734.484 320.655 735.326 293.774C736.583 283.356 735.768 272.884 736.984 262.452C737.72 256.407 737.319 250.349 738.027 244.304C739.003 236.948 738.923 229.526 739.966 222.157C742.76 222.277 745.555 222.438 748.363 222.491C765.504 223.04 782.471 224.725 799.652 224.123L800.642 223.187C802.888 220.726 804.88 218.011 806.952 215.39C808.45 213.624 809.934 211.859 811.231 209.947C815.095 204.53 818.946 198.967 823.291 193.925L824.602 192.949L825.711 190.902C830.498 184.51 835.953 178.799 840.031 171.831C840.713 170.748 841.408 169.678 842.077 168.595C844.149 165.345 846.249 162.122 848.615 159.073C850.046 157.361 851.49 155.676 852.854 153.91C853.883 152.586 854.939 151.276 855.982 149.952C859.766 145.98 863.577 142.048 867.414 138.129C871.733 133.355 876.225 128.754 880.731 124.154C885.237 119.379 889.623 114.498 894.155 109.737C895.679 108.319 897.137 106.848 898.581 105.35C899.396 104.521 900.199 103.678 901.001 102.822C902.619 101.111 904.21 99.3586 905.721 97.5531C907.459 95.6005 909.438 93.9154 911.403 92.1902C912.887 90.1841 914.251 88.0711 915.709 86.0382Z" fill="#FEEFB6"/>
<path d="M869.394 92.0296C865.877 96.4296 862.093 100.642 858.43 104.922C855.916 104.454 853.215 103.625 850.662 103.839C848.308 104.588 846.049 105.738 843.789 106.727C847.011 102.394 850.581 98.1414 854.713 94.6509C859.232 91.4278 864.099 91.6016 869.394 92.0296Z" fill="#EF9963"/>
<path d="M889.342 91.7622C888.446 93.5008 887.536 95.2394 886.627 96.9646C887.991 96.1889 889.368 95.4133 890.745 94.651C896.682 96.8041 901.027 94.1695 906.683 92.7786C906.389 94.3835 906.068 95.975 905.72 97.5531C904.21 99.3585 902.618 101.111 901.001 102.822C895.626 101.672 892.671 104.387 888.098 106.273C886.333 105.925 884.702 104.695 883.164 103.812C883.365 102.675 883.579 101.552 883.779 100.415C880.744 101.779 877.642 101.672 874.433 102.274C871.559 103.652 869.098 105.979 866.224 107.396C864.232 108.372 861.865 107.089 859.859 106.58C861.745 103.571 863.844 100.749 866.264 98.1549C868.671 95.8145 870.155 93.1531 873.885 93.1397C874.246 94.9853 874.928 96.657 875.891 98.1683C876.706 96.7239 877.509 95.2661 878.297 93.8084C881.988 92.4576 885.424 91.9093 889.342 91.7622Z" fill="#EF9963"/>
<path d="M840.766 94.2095C844.002 94.8648 847.224 95.6405 850.447 96.3627C846.903 100.161 843.641 104.4 839.683 107.757C837.571 108.172 835.325 108.051 833.172 108.092C834.75 109.188 836.314 110.325 837.865 111.462C842.184 110.231 845.901 108.011 849.805 105.898C852.519 104.347 854.551 105.858 857.132 106.741C852.466 112.532 848.027 118.697 842.678 123.886C839.242 122.495 836.02 120.904 832.891 118.898C833.453 117.386 834.001 115.875 834.562 114.364C833.332 115.447 832.102 116.53 830.832 117.574C827.503 120.77 821.553 120.81 817.207 122.027C819.788 122.214 822.368 122.375 824.936 122.535C824.668 123.98 824.387 125.411 824.12 126.842C826.219 124.822 828.292 122.629 830.631 120.89C834.268 120.556 838.333 123.565 841.368 125.344C839.256 128.38 836.983 131.83 834.081 134.157C832.557 134.719 830.605 133.97 829 133.89C825.243 133.06 820.951 135.187 817.314 136.136C819.36 133.448 821.285 130.693 822.836 127.698C818.531 130.519 816.485 135 812.795 138.356C810.469 139.573 807.647 139.921 805.12 140.63C806.872 141.004 808.61 141.379 810.362 141.74C807.527 145.779 804.786 150.032 801.444 153.683C798.021 157.321 791.055 155.381 789.624 150.66C797.86 140.817 805.147 130.239 813.504 120.476C822.141 111.234 831.327 102.608 840.766 94.2095Z" fill="#EF9963"/>
<path d="M878.592 103.331C878.244 104.828 877.897 106.326 877.536 107.824C878.819 106.995 880.103 106.152 881.4 105.337C883.579 106.219 885.799 107.249 888.099 107.824C892.056 107.396 894.57 103.224 898.581 105.35C897.137 106.848 895.68 108.319 894.155 109.737C889.422 111.301 886.681 116.691 882.657 119.687C876.092 118.336 871.305 121.358 865.181 122.87C868.484 117.734 873.511 114.417 876.346 109.028C870.904 112.625 867.575 118.095 862.601 122.455C858.282 120.65 854.017 119.232 849.271 119.406C852.092 115.447 854.966 111.609 858.576 108.346C861.157 108.72 863.951 109.402 866.545 109.041C870.984 107.169 873.391 103.464 878.592 103.331Z" fill="#EF9963"/>
<path d="M851.931 121.118C856.383 120.262 858.884 123.592 862.748 124.889C868.457 125.357 874.353 119.58 879.728 121.225L880.731 124.154C876.225 128.754 871.733 133.355 867.414 138.129C863.938 138.397 860.502 138.972 857.039 139.226C855.153 139.467 853.536 137.514 852.158 136.444C854.204 134.144 856.063 131.763 857.64 129.115C855.514 130.694 853.549 132.499 851.356 133.983C849.217 134.666 846.917 134.866 844.818 135.642C842.518 136.912 840.513 138.758 838.44 140.349C837.17 139.279 835.9 138.196 834.616 137.113C838.881 131.028 844.43 123.191 851.931 121.118Z" fill="#EF9963"/>
<path d="M832.035 136.11C828.425 141.713 823.665 146.662 819.48 151.891C815.576 150.594 811.739 149.644 807.647 149.122C809.907 145.271 811.953 141.112 816.138 139.025C821.379 136.511 826.139 134.064 832.035 136.11Z" fill="#EF9963"/>
<path d="M849.189 135.989C845.566 141.098 840.859 145.498 836.715 150.206C834.549 150.165 832.048 149.671 829.963 150.313C826.941 151.623 824.414 153.442 820.978 153.616C824.173 148.133 828.746 143.318 832.998 138.637C834.763 139.694 836.581 141.178 838.6 141.66C842.477 140.149 844.777 136.618 849.189 135.989Z" fill="#EF9963"/>
<path d="M850.581 138.303C852.426 139.172 854.231 140.242 856.17 140.911C858.403 140.964 860.702 140.59 862.935 140.336C860.288 143.412 857.467 146.073 855.983 149.951C854.94 151.275 853.883 152.586 852.854 153.91C847.385 154.177 841.462 157.534 836.876 153.388C840.66 147.771 845.5 142.77 850.581 138.303Z" fill="#EF9963"/>
<path d="M817.128 154.526C812.742 160.678 807.648 166.589 802.367 172.005C799.545 169.812 797.018 168.368 793.542 167.391C798.329 161.146 801.19 154.74 808.998 151.731C811.285 150.193 816.847 151.784 817.128 154.526Z" fill="#EF9963"/>
<path d="M834.643 151.958C830.752 157.334 826.353 162.363 821.954 167.324C819.133 167.351 816.579 167.378 814.039 168.796C816.004 169.036 817.983 169.25 819.962 169.464C815.79 175.228 811.231 180.926 806.431 186.182C803.168 185.874 800.762 185.419 798.034 187.639C800.481 187.492 802.848 187.345 805.268 187.92C802.794 192.293 799.705 195.704 798.195 200.572C801.47 197.536 803.342 193.791 806.177 190.274C807.915 191.33 809.693 192.882 811.685 193.39C814.119 192.387 816.405 190.929 818.705 189.632C820.216 191.076 821.74 192.521 823.291 193.925C818.946 198.967 815.095 204.53 811.231 209.947C808.864 209.251 806.31 208.248 803.824 208.168C799.719 209.051 795.895 211.15 791.91 212.448C793.461 209.666 794.919 206.844 796.095 203.862C793.822 206.189 791.817 208.743 789.611 211.137C788.354 208.93 787.137 206.724 785.894 204.517C782.952 205.64 780.077 206.871 777.229 208.235C779.984 202.765 782.965 197.429 786.696 192.548C789.383 193.002 792.071 193.377 794.785 193.497C793.475 192.334 788.755 191.772 789.196 189.672C792.298 185.312 796.256 181.461 799.959 177.609C802.139 174.747 807.113 176.914 809.907 175.429C810.776 174.439 811.605 173.396 812.381 172.313C809.439 173.69 806.939 175.175 803.529 174.734C805.401 170.788 808.49 168.1 811.231 164.797C813.838 161.667 816.298 158.418 819.026 155.395C825.069 156.238 829.014 150.848 834.643 151.958Z" fill="#EF9963"/>
<path d="M798.315 157.788C795.387 162.015 792.512 166.869 788.554 170.186C785.319 172.152 781.415 172.928 778.005 174.599C780.759 174.452 783.487 174.198 786.215 173.837C783.634 176.699 781.134 179.548 779.409 183.025C785.011 179.695 787.632 172.312 793.354 169.731C797.245 168.367 798.516 171.537 800.842 173.824C796.71 178.665 792.325 183.332 787.806 187.826C784.356 186.689 780.679 186.288 777.403 184.777C774.743 187.612 772.109 189.952 768.458 191.464C768.926 192.132 769.394 192.814 769.876 193.483C766.48 198.645 763.832 203.794 758.658 207.486C759.019 208.636 759.367 209.786 759.714 210.949C761.225 209.318 762.682 207.593 764.38 206.175C767.456 205.533 770.544 210.374 772.403 212.3C770.304 215.764 768.258 219.067 764.929 221.501C758.578 222.892 753.844 219.281 748.363 222.491C745.555 222.437 742.76 222.277 739.966 222.157L740.14 220.873C746.598 211.297 752.748 201.521 759.3 192.012C762.255 191.798 762.87 190.688 762.107 187.893C769.448 176.485 777.818 166.067 785.961 155.354C790.6 154.244 794.01 156.424 798.315 157.788Z" fill="#EF9963"/>
<path d="M834.924 155.127C837.063 155.221 839.069 156.906 841.262 157.093C843.428 157.027 845.5 156.692 847.666 156.465L848.615 159.073C846.249 162.122 844.15 165.345 842.077 168.595C837.023 168.996 832.277 169.865 827.717 172.166C826.139 171.029 824.722 169.812 823.358 168.434C827.169 164.008 830.632 159.086 834.924 155.127Z" fill="#EF9963"/>
<path d="M822.263 170.588C824.282 171.711 826.26 172.888 828.253 174.065C832.464 171.872 835.139 169.678 840.032 171.832C835.954 178.799 830.499 184.51 825.712 190.903C823.306 190.033 820.899 189.044 818.425 188.415C815.751 189.004 813.278 190.756 810.858 191.999C809.801 190.715 808.745 189.432 807.702 188.134C812.235 182.196 816.674 175.563 822.263 170.588Z" fill="#EF9963"/>
<path d="M786.295 189.605C781.615 196.252 778.139 203.648 773.365 210.174C770.718 207.954 768.071 205.734 765.383 203.554C767.803 199.301 770.584 195.235 773.713 191.464C777.136 187.853 782.15 185.646 786.295 189.605Z" fill="#EF9963"/>
<path d="M762.108 187.894C762.87 190.689 762.255 191.799 759.3 192.013C759.875 190.073 760.476 189.111 762.108 187.894Z" fill="#CB815D"/>
<path d="M784.958 206.804C788.367 209.478 787.873 213.745 786.549 217.463C791.282 213.959 797.366 212.073 802.861 210.013C804.867 209.198 805.883 209.947 807.648 210.776C807.434 212.314 807.207 213.852 806.952 215.39C804.88 218.011 802.888 220.726 800.642 223.187C794.264 223.08 787.899 222.705 781.522 222.598C776.855 222.906 772.47 223.053 767.924 221.702C772.376 214.908 776.708 209.091 784.958 206.804Z" fill="#EF9963"/>
<path d="M758.217 235.197C765.865 236.213 773.527 236.08 781.108 237.377C782.953 237.885 785.333 237.684 785.333 240.252C785.908 248.236 784.597 256.354 784.798 264.392C784.998 276.856 784.477 289.307 784.838 301.758C778.634 303.791 773.219 300.595 766.387 300.474C762.496 299.899 756.198 300.434 753.23 297.599C754.567 277.017 753.31 256.568 755.316 235.999C756.038 235.224 757.001 234.956 758.217 235.197Z" fill="white"/>
<path d="M839.911 234.18C849.284 234.528 858.643 233.993 868.003 234.327C874.835 234.515 881.226 236.882 888.072 236.908C890.024 236.975 892.471 237.617 891.749 240.145C889.97 248.731 891.481 256.728 891.254 265.729C891.615 276.642 889.743 287.368 889.837 298.254C890.037 301.491 886.2 300.728 884.061 301.13C868.15 301.571 852.145 299.792 836.261 298.776C836.943 277.872 833.988 257.29 835.271 236.48C835.352 233.926 838.093 234.247 839.911 234.18Z" fill="white"/>
<path d="M949.402 237.363C956.582 238.594 963.722 238.259 970.956 238.513C982.281 238.634 993.418 240.118 1004.62 241.536C1005.34 262.038 1005.22 282.66 1004.65 303.162C1003.9 304.42 1002.94 304.941 1001.73 304.741C993.686 304.232 985.757 302.801 977.641 302.922C968.362 303.136 958.16 303.189 949.108 300.942C948.025 299.458 948.346 296.93 948.132 295.165C947.825 278.662 948.266 262.145 947.905 245.668C948.065 242.847 946.635 239.289 949.402 237.363Z" fill="white"/>
<path d="M864.593 239.503C871.759 239.329 878.057 241.415 885.05 242.432C884.595 250.951 886.387 259.283 885.959 267.829C878.658 268.15 871.572 266.799 864.325 266.572C864.459 257.558 864.165 248.503 864.593 239.503Z" fill="#7FB6F6"/>
<path d="M840.218 239.596C847.05 239.73 853.882 239.65 860.715 239.543C859.712 248.343 859.311 256.688 859.699 265.542C853.348 265.1 847.023 264.672 840.659 264.833C840.245 256.421 840.445 248.009 840.218 239.596Z" fill="#7FB6F6"/>
<path d="M760.557 240.974C763.177 241.456 765.811 241.857 768.459 242.164C766.44 249.881 767.603 257.705 766.052 265.542C764.06 265.408 762.054 265.288 760.062 265.167C760.209 257.116 759.754 248.985 760.557 240.974Z" fill="#7FB6F6"/>
<path d="M772.443 242.084C774.823 242.151 777.123 242.499 779.463 242.886C779.329 250.817 779.102 258.748 779.195 266.665C776.387 266.491 773.566 266.331 770.745 266.197C770.879 258.24 770.652 249.868 772.443 242.084Z" fill="#7FB6F6"/>
<path d="M953.334 243.381C960.715 243.649 968.108 243.702 975.502 243.956C975.542 251.847 975.77 259.778 975.382 267.668C968.135 266.117 961.183 266.772 953.842 266.759C954.39 258.882 953.481 251.205 953.334 243.381Z" fill="#7FB6F6"/>
<path d="M979.62 244.692C986.452 244.411 992.937 245.615 999.649 246.591C999.676 253.719 999.516 260.847 999.676 267.976C992.977 267.561 986.332 267.962 979.634 268.029C979.767 260.246 979.486 252.462 979.62 244.692Z" fill="#7FB6F6"/>
<path d="M841.623 268.805C847.639 268.657 853.67 269.032 859.633 269.767C859.606 278.086 859.459 286.404 859.419 294.723C853.496 294.335 847.626 294.362 841.73 293.439C841.743 285.228 841.502 277.003 841.623 268.805Z" fill="#7FB6F6"/>
<path d="M759.995 268.898C761.974 269.273 763.939 269.634 765.918 270.008C765.651 278.273 766.119 286.538 766.092 294.804C764.033 294.389 759.915 295.392 759.126 292.891C760.209 284.8 760.222 277.043 759.995 268.898Z" fill="#7FB6F6"/>
<path d="M769.782 269.982C772.898 270.142 776 270.29 779.115 270.477C779.062 279.09 778.941 287.716 778.928 296.328C776.174 295.941 773.446 295.499 770.718 294.991C771.173 286.579 769.167 278.434 769.782 269.982Z" fill="#7FB6F6"/>
<path d="M864.286 270.37C871.627 272.215 878.793 271.132 886.214 271.787C884.222 279.544 885.559 287.635 884.035 295.325C877.657 296.569 869.955 295.205 863.471 294.63C864.367 286.418 864.567 278.608 864.286 270.37Z" fill="#7FB6F6"/>
<path d="M953.922 271.427C961.115 271.373 968.375 271.4 975.569 271.788C975.662 280.334 975.568 288.866 975.863 297.412C968.482 297.399 961.249 297.679 953.935 296.449C953.975 288.117 953.895 279.758 953.922 271.427Z" fill="#7FB6F6"/>
<path d="M979.66 272.777C986.051 273.552 994.074 270.102 999.796 273.017C999.609 281.697 999.408 290.176 998.62 298.815C992.616 298.414 986.853 297.064 980.783 297.465C979.553 289.253 979.807 281.055 979.66 272.777Z" fill="#7FB6F6"/>
<path d="M1196.36 323.838C1203.7 326.432 1208.76 334.617 1210.19 341.959C1212.16 353.073 1207.28 362.916 1200.88 371.596C1199.07 370.579 1197.24 369.617 1195.38 368.734C1196.57 364.735 1196.74 361.298 1196.3 357.166C1198.88 354.21 1202.64 351.669 1202.6 347.336C1202.61 344.527 1203.01 341.144 1199.6 340.248C1196.25 339.846 1194.72 342.481 1193.03 344.835C1190.57 348.285 1191.19 353.354 1190.93 357.433C1187.85 359.707 1184.68 361.86 1181.42 363.866C1176.9 361.258 1173.31 360.201 1168.46 362.943C1164.98 364.909 1165.26 369.764 1168.77 371.542C1174.25 374.017 1179.51 372.933 1183.6 378.229C1185.35 378.216 1187.09 378.189 1188.84 378.149C1189.5 378.804 1190.17 379.46 1190.85 380.088C1184.39 382.669 1174.86 385.919 1168.24 382.656C1158.1 376.517 1154.29 362.234 1158.16 351.348C1161.18 342.922 1167.23 335.46 1174.16 329.883C1180.34 325.055 1188.45 321.203 1196.36 323.838Z" fill="#2CAD36"/>
<path d="M1181.8 331.328C1185.42 331.207 1190.82 330.405 1193.76 333.026C1195.69 336.918 1194.24 342.629 1190.27 344.715C1187.22 346.413 1183.88 348.58 1180.41 346.654C1181.82 346.133 1183.24 345.624 1184.66 345.116C1183.95 340.957 1183.44 337.44 1185.22 333.427C1184.07 332.732 1182.93 332.037 1181.8 331.328Z" fill="#2F8D37"/>
<path d="M1179.12 335.621C1179.79 338.242 1180.11 341.505 1179.15 344.059C1177.16 343.418 1177.34 336.864 1179.12 335.621Z" fill="#2F8D37"/>
<path d="M1273.08 343.417C1276.11 345.557 1277.7 349.047 1278.18 352.645C1279.74 366.206 1270.07 380.463 1256.31 382.723L1257.26 379.406C1257.69 378.403 1258.12 377.413 1258.57 376.437C1260.39 376.531 1262.21 376.624 1264.03 376.731C1262.38 375.394 1260.05 374.083 1259.08 372.157C1257.91 368.252 1259.2 364.681 1261.78 361.712C1262.35 366.206 1262.88 370.392 1265.31 374.324C1270.34 370.767 1274.03 364.253 1273.22 358.021C1272.85 355.56 1270.23 354.825 1268.18 355.868C1265.11 357.339 1262.22 359.171 1259.17 360.696C1258.52 356.791 1259.4 350.813 1256.56 347.777C1253.11 344.474 1247.63 347.483 1246.43 351.481C1244.73 355.453 1246.02 358.717 1247.27 362.555C1243.9 362.007 1241.6 361.9 1238.46 363.438C1238.26 365.671 1238.06 367.905 1237.93 370.165C1234.54 360.201 1238.82 347.563 1248.02 342.227C1255.71 337.706 1265.76 338.576 1273.08 343.417Z" fill="#2CAD36"/>
<path d="M1199.61 340.248C1203.02 341.144 1202.61 344.527 1202.6 347.336C1202.64 351.669 1198.88 354.21 1196.3 357.166C1196.74 361.298 1196.57 364.735 1195.38 368.734C1193.15 367.878 1190.85 367.276 1188.51 366.781C1187.13 367.343 1185.77 367.932 1184.4 368.52C1184.66 372.639 1186.25 375.14 1188.84 378.149C1187.09 378.189 1185.35 378.216 1183.6 378.229C1179.51 372.933 1174.25 374.017 1168.77 371.543C1165.26 369.764 1164.98 364.909 1168.47 362.943C1173.31 360.202 1176.9 361.258 1181.42 363.866C1184.68 361.86 1187.85 359.707 1190.93 357.433C1191.2 353.354 1190.57 348.285 1193.03 344.835C1194.73 342.481 1196.25 339.847 1199.61 340.248Z" fill="#2F8D37"/>
<path d="M1197.37 342.04C1198.36 342.241 1199.34 342.481 1200.33 342.722C1200.77 345.129 1200.71 347.51 1200.57 349.931C1199.34 347.363 1198.2 344.768 1197.37 342.04Z" fill="#2CAD36"/>
<path d="M1170.58 345.116C1175.08 344.487 1180.18 346.199 1180.82 351.361C1180.82 354.357 1179.23 359.386 1175.57 359.519C1172.56 359.76 1168.71 360.228 1166.62 357.527C1162.9 353.622 1165.22 346.132 1170.58 345.116Z" fill="#2F8D37"/>
<path d="M1256.56 347.777C1259.4 350.813 1258.52 356.791 1259.17 360.696C1262.22 359.172 1265.11 357.339 1268.18 355.868C1270.23 354.825 1272.85 355.561 1273.22 358.021C1274.03 364.254 1270.34 370.767 1265.31 374.324C1262.88 370.392 1262.35 366.206 1261.78 361.713C1259.2 364.682 1257.91 368.252 1259.08 372.158C1260.05 374.083 1262.38 375.394 1264.02 376.731C1262.21 376.624 1260.39 376.531 1258.57 376.437C1258.12 377.413 1257.69 378.403 1257.26 379.406C1257.41 377.293 1257.41 375.207 1257.25 373.107C1257.07 371.369 1256.9 369.617 1256.7 367.878C1254.51 367.998 1252.29 368.105 1250.11 368.346L1249.87 368.386C1248.8 370.446 1248.22 373.843 1246.04 374.979C1244.21 375.073 1242.32 374.913 1240.49 374.819C1239.54 373.308 1238.65 371.783 1237.93 370.165C1238.06 367.905 1238.26 365.671 1238.46 363.438C1241.6 361.9 1243.9 362.007 1247.27 362.555C1246.01 358.717 1244.73 355.454 1246.43 351.482C1247.63 347.483 1253.11 344.474 1256.56 347.777Z" fill="#2F8D37"/>
<path d="M1177.99 348.847C1178.8 352.003 1179.19 355.066 1176.34 357.38C1174.39 357.661 1172.4 357.687 1170.43 357.781C1172.17 357.059 1174.2 356.564 1175.71 355.414C1176.72 353.341 1177.25 351.027 1177.99 348.847Z" fill="#2CAD36"/>
<path d="M1253.06 348.607C1254.97 347.898 1255.91 350.733 1256.93 351.924C1252.26 353.007 1250.65 353.903 1247.71 357.607C1247.78 353.528 1247.9 348.941 1253.06 348.607Z" fill="#2CAD36"/>
<path d="M1333.3 355.44C1340.67 354.491 1349.41 354.37 1356.2 357.794C1361.5 360.308 1364.73 366.113 1366.79 371.355C1371.59 383.94 1369.49 400.095 1359.54 409.684C1354.01 415.181 1347.28 416.545 1339.94 418.137C1323.71 421.36 1305.62 424.128 1289.26 420.758C1292.1 416.786 1295.25 413.028 1298.67 409.537C1300.51 412.72 1301.97 419.22 1306.48 419.22C1312.92 417.027 1314.99 411.035 1314.97 404.669C1317.4 405.485 1319.91 406.033 1322.45 406.381C1325.6 406.822 1328.74 407.063 1331.91 407.331C1334.1 409.898 1335.99 414.766 1339.96 414.459C1341.64 414.339 1345.21 415.047 1345.73 412.867C1343.49 412.653 1341.24 412.48 1338.98 412.346C1340.62 411.717 1342.9 411.477 1344.14 410.233C1345.04 408.534 1345.51 406.582 1346.11 404.763C1346.9 404.482 1347.7 404.201 1348.49 403.92C1347.3 401.406 1345.81 401.179 1343.35 400.336C1340.48 399.226 1338.38 399.159 1335.32 399.587C1336.37 397.929 1337.44 396.257 1338.5 394.585C1340 395.321 1341.48 396.043 1342.98 396.752C1341.88 393.542 1339.69 392.486 1336.85 391.015C1339.8 390.493 1342.75 389.998 1345.68 389.45C1346.23 393.208 1344.97 396.311 1348.9 398.397C1348.14 397.715 1347.38 397.006 1346.63 396.311C1345.79 393.703 1346.68 391.884 1347.76 389.543C1351.05 389.664 1354.34 389.838 1357.63 390.145C1354.36 391.924 1350.72 392.405 1350.24 396.752C1348.81 399.948 1354.08 400.216 1356.08 400.711C1360.25 401.807 1363.38 398.29 1363.54 394.398C1362.91 392.847 1361.39 391.643 1360.32 390.373C1361.63 389.035 1363.22 388.206 1363.21 386.093C1363.17 383.539 1361.42 382.054 1359 381.747C1349.93 380.329 1340.8 381.533 1331.91 383.298C1332.9 379.406 1334.47 375.434 1334.76 371.422C1333.77 368.787 1331.73 369.322 1329.45 368.881C1329.25 367.53 1329.03 366.179 1328.82 364.829C1324.97 362.261 1320.94 365.832 1317.69 367.771C1312.52 370.82 1312.07 377.574 1313.94 382.669C1315.19 385.812 1317.69 384.582 1320.37 384.849C1318.78 383.713 1316.68 382.776 1315.46 381.198C1313.76 376.905 1314.95 373.147 1317.94 369.844C1318.44 374.137 1318.67 378.109 1321.17 381.8C1322.72 381.265 1324.27 380.717 1325.82 380.182C1325.4 381.867 1324.97 383.552 1324.54 385.237C1316.83 388.634 1307.05 391.416 1301.03 397.461C1300.39 396.204 1299.79 394.96 1299.18 393.689C1299 395.468 1298.79 397.247 1298.57 399.012C1297.28 399.788 1296.01 400.59 1294.74 401.406C1295.55 397.608 1296.23 393.783 1297.01 389.971C1293.79 390.172 1290.91 389.878 1288.09 391.723C1286.7 393.716 1287.21 397.06 1288.08 399.199C1289.5 400.764 1291.73 401.633 1293.52 402.717C1290.03 406.381 1286.61 410.112 1283.57 414.178C1280.1 403.827 1279.28 392.325 1283.87 382.175C1286.66 375.768 1292.91 371.114 1298.69 367.57C1309.04 361.405 1321.37 357.085 1333.3 355.44Z" fill="#2CAD36"/>
<path d="M1346.25 359.359C1349.94 359.212 1355.37 358.369 1358.42 360.937C1360.84 364.227 1359.25 370.445 1355.57 372.211C1353.07 373.602 1349.7 375.755 1346.76 375.421C1341.51 373.735 1340.84 364.481 1345.08 361.418C1345.02 365.31 1342.7 370.151 1346.43 373C1347.23 374.284 1348.89 373.094 1350.02 372.88C1348.91 368.774 1348.85 365.751 1349.61 361.565C1348.51 360.803 1347.4 360.067 1346.25 359.359Z" fill="#2F8D37"/>
<path d="M1177.94 363.464C1174.87 365.47 1172.34 367.57 1169.88 370.298C1169 369.041 1166.89 367.222 1168.48 365.684C1170.79 362.702 1174.64 363.718 1177.94 363.464Z" fill="#2CAD36"/>
<path d="M1328.82 364.829C1329.03 366.18 1329.25 367.53 1329.45 368.881C1327.82 372.532 1326.72 376.29 1325.82 380.182C1324.27 380.717 1322.72 381.265 1321.17 381.8C1318.67 378.109 1318.44 374.137 1317.93 369.844C1314.95 373.147 1313.76 376.905 1315.46 381.198C1316.68 382.777 1318.78 383.713 1320.37 384.85C1317.69 384.582 1315.19 385.812 1313.94 382.67C1312.07 377.574 1312.52 370.82 1317.69 367.771C1320.94 365.832 1324.97 362.261 1328.82 364.829Z" fill="#2F8D37"/>
<path d="M1188.51 366.781C1190.85 367.276 1193.15 367.878 1195.38 368.734C1197.24 369.616 1199.07 370.579 1200.88 371.596C1216.57 380.516 1228.46 397.354 1241.13 410.26C1243.34 400.604 1245.52 390.934 1247.87 381.305C1248.66 378.671 1249.02 375.34 1250.69 373.12C1253.1 371.181 1254.67 372.545 1257.25 373.107C1257.41 375.207 1257.41 377.293 1257.26 379.406L1256.31 382.723C1253.3 394.091 1250.64 405.565 1248.22 417.08C1255.41 427.325 1259.96 438.559 1263.97 450.328C1269.24 437.569 1275.43 425.359 1283.57 414.178C1286.61 410.112 1290.03 406.381 1293.52 402.717L1294.74 401.406C1296.01 400.59 1297.28 399.788 1298.57 399.012C1298.79 397.247 1299 395.468 1299.18 393.689C1299.79 394.96 1300.39 396.204 1301.03 397.461C1307.05 391.416 1316.83 388.634 1324.54 385.237C1324.97 383.552 1325.4 381.867 1325.82 380.182C1326.72 376.29 1327.82 372.532 1329.45 368.881C1331.73 369.322 1333.77 368.787 1334.76 371.422C1334.47 375.434 1332.9 379.406 1331.91 383.298C1340.8 381.533 1349.93 380.329 1359 381.747C1361.42 382.054 1363.17 383.539 1363.21 386.093C1363.22 388.206 1361.63 389.035 1360.32 390.373L1357.63 390.145C1354.34 389.838 1351.05 389.664 1347.76 389.543C1346.68 391.884 1345.79 393.703 1346.63 396.311C1347.38 397.006 1348.14 397.715 1348.9 398.397C1344.97 396.311 1346.23 393.208 1345.68 389.45C1342.75 389.998 1339.8 390.493 1336.85 391.015C1330.06 392.66 1322.21 394.144 1316.41 398.223C1322.17 400.537 1329.25 400.042 1335.32 399.587C1338.38 399.159 1340.48 399.226 1343.35 400.336C1343.03 401.74 1342.67 403.131 1342.24 404.509C1341.4 406.234 1338.97 406.114 1337.34 406.381C1332.39 406.729 1327.4 406.649 1322.45 406.381C1319.91 406.033 1317.4 405.485 1314.97 404.669C1313.03 403.867 1311.1 402.904 1309.11 402.235C1305.18 403.426 1301.73 406.889 1298.67 409.537C1295.25 413.028 1292.1 416.786 1289.26 420.758C1279.96 434.132 1272.61 449.565 1267.73 465.065C1269.13 474.949 1270.64 484.765 1271.51 494.715C1276.77 487.721 1281.18 480.138 1286.89 473.424C1299.95 457.362 1317.09 440.886 1336.85 433.744C1339.62 432.942 1343.9 430.842 1346.48 432.982C1349.37 435.041 1349.2 439.883 1346.01 441.474C1340.75 443.547 1335.46 445.232 1330.66 448.321C1335.7 451.063 1340.53 454.112 1345.02 457.696C1346.03 458.472 1347.02 459.248 1348.02 460.037C1351.87 460.01 1355.76 459.983 1359.61 460.144C1362.93 460.558 1366.07 461.562 1369.22 462.618C1369.28 464.437 1370.4 467.406 1368.03 468.182C1365.48 468.957 1362.22 467.58 1359.58 467.326C1358.14 467.058 1356.7 466.777 1355.27 466.496C1355.55 468.917 1356.12 470.763 1354.78 472.943C1353.79 473.478 1352.81 474.013 1351.83 474.574C1347.52 472.956 1345.24 468.676 1341.45 465.774C1335.64 460.799 1329.11 456.934 1322.31 453.497C1313.59 459.408 1305.87 466.884 1298.9 474.721C1288.72 486.303 1279.75 499.356 1273.44 513.452C1272.42 515.498 1272.44 517.584 1272.46 519.818C1272.62 529.955 1272.13 539.959 1271.46 550.056C1273.46 548.491 1275.46 546.927 1277.52 545.429C1280.39 543.463 1283.37 541.671 1286.29 539.758C1286.77 537.766 1287.22 535.759 1287.77 533.78C1289.74 529.353 1292.32 525.809 1295.87 522.519C1298.09 520.754 1299.7 520.099 1302.55 519.831C1303.21 521.169 1303.87 522.519 1304.54 523.87C1303.91 524.552 1303.27 525.234 1302.61 525.903C1299.12 528.805 1296.15 531.48 1294.36 535.8C1300.55 533.499 1306.66 531.6 1313.08 530.035C1315.5 530.223 1317.31 529.447 1318.78 531.868C1320.7 534.502 1318.36 536.655 1317.07 538.876C1313.2 538.434 1309.59 539.451 1306.13 541.096C1307.96 543.235 1310.94 545.322 1311.84 548.01C1311.78 551.22 1309.79 551.22 1307.31 551.955C1305.57 550.11 1303.8 548.304 1301.96 546.579C1300.83 545.522 1299.7 544.466 1298.57 543.396C1292.12 546.204 1285.97 549.601 1280.36 553.881C1276.83 556.529 1273.6 559.525 1270.58 562.734C1269.56 578.342 1268.25 593.922 1267.18 609.516C1264.2 635.421 1265.44 661.126 1265.27 687.124C1259.57 687.178 1253.89 687.151 1248.21 687.178C1248.23 658.344 1249.41 629.47 1251.31 600.703C1251.46 596.343 1252.81 591.328 1251.32 587.209C1251.94 586.62 1252.33 585.844 1252.51 584.868C1254.89 566.372 1255.75 547.823 1255.95 529.193C1255.86 527.08 1256.2 525.221 1254.77 523.456C1249.96 516.635 1243.84 510.577 1237.31 505.374C1234.5 503.194 1231.61 501.108 1228.66 499.115C1227.22 498.166 1225.75 497.283 1224.25 496.427C1220.17 494.22 1216.04 492.081 1211.77 490.248C1207.94 487.988 1202.91 490.743 1199.15 492.107C1198.11 492.562 1197.11 493.097 1196.13 493.659C1192.25 495.946 1188.74 498.607 1185.39 501.616C1184.12 502.526 1182.73 504.291 1180.99 503.636C1179.06 503.422 1178.37 501.576 1178.25 499.851C1178.95 498.473 1179.95 497.417 1180.99 496.307C1182.63 494.943 1184.28 493.645 1185.98 492.361C1189.58 489.58 1193.55 487.533 1197.39 485.126C1190.46 482.853 1183.32 481.422 1176.11 480.338C1173.63 479.777 1171.15 479.937 1169.74 477.45C1168.56 475.537 1169.62 473.357 1169.79 471.244C1174.63 468.596 1179.1 470.682 1184.22 471.365C1190.93 472.568 1197.48 474.28 1203.95 476.42C1207 477.41 1210.02 478.466 1212.98 479.683C1222.2 483.468 1230.83 488.189 1239.02 493.859C1244.99 498.206 1250.45 503.101 1255.64 508.33C1254.92 489.419 1252.97 469.318 1246.71 451.344C1242.5 439.468 1235.88 427.739 1224.78 421.079C1214.67 415.034 1203.42 414.633 1191.98 415.796C1186.82 416.211 1182.01 416.906 1176.89 415.729C1175.85 414.593 1174.8 413.443 1173.77 412.292L1174.07 411.263L1174.76 408.24C1176.26 407.143 1177.57 406.368 1179.46 406.1C1183.61 406.007 1187.79 405.993 1191.94 405.967C1200.11 406.047 1208.27 406.261 1216.43 406.502C1208.55 396.926 1200.98 387.417 1190.85 380.088C1190.17 379.46 1189.5 378.804 1188.84 378.149C1186.25 375.14 1184.66 372.639 1184.4 368.52C1185.77 367.931 1187.13 367.343 1188.51 366.781Z" fill="#591E12"/>
<path d="M1249.86 368.387L1250.11 368.347C1252.29 368.106 1254.5 367.999 1256.7 367.878C1256.9 369.617 1257.07 371.369 1257.25 373.108C1254.67 372.546 1253.1 371.182 1250.69 373.121C1249.02 375.341 1248.66 378.671 1247.87 381.306C1245.2 379.38 1242.64 377.334 1240.49 374.819C1242.32 374.913 1244.21 375.074 1246.04 374.98C1248.22 373.843 1248.8 370.446 1249.86 368.387Z" fill="#2CAD36"/>
<path d="M841.222 369.256C853.255 369.657 865.302 370.927 877.362 371.141C882.149 371.315 887.029 371.141 891.776 371.77C892.752 372.372 893.313 373.147 893.46 374.07C894.263 393.73 893.046 413.322 893.26 432.955C890.278 434.413 887.256 434.092 884.048 434.145C869.006 434.119 853.964 433.717 838.922 433.784C836.783 413.362 837.665 392.165 838.039 371.649C838.173 369.844 839.497 369.095 841.222 369.256Z" fill="white"/>
<path d="M1302.95 369.176C1303.87 368.881 1304.82 368.975 1305.81 369.457C1310.59 373.241 1312.12 379.888 1310.07 385.559C1308.35 388.728 1305.39 391.403 1301.56 389.865C1298.61 387.618 1297.83 382.804 1297.44 379.34C1297.02 375.314 1298.57 370.272 1302.95 369.176Z" fill="#2F8D37"/>
<path d="M843.494 374.806C849.698 374.391 855.514 375.902 861.731 375.835C861.758 384.047 861.597 392.272 861.798 400.483C855.54 400.457 849.283 400.403 843.039 400.176C843.146 391.723 843.039 383.244 843.494 374.806Z" fill="#7FB6F6"/>
<path d="M945.605 374.364C952.277 374.498 958.935 374.819 965.607 374.859C973.75 374.899 981.585 376.825 989.687 377.226C993.458 377.641 996.894 377.052 999.943 379.781C998.926 387.31 999.729 394.599 999.809 402.142C1000.05 413.296 1000.17 424.449 1000.3 435.603C1000.04 437.623 1000.99 439.455 998.726 440.485C986.799 440.217 974.859 438.947 962.919 439.308C957.438 439.548 952.437 437.275 947.009 437.409C945.123 437.208 943.265 438.037 942.356 435.804C941.954 430.668 943.399 425.439 943.385 420.263C943.706 405.418 944.241 390.466 943.358 375.635C943.947 374.618 944.682 374.191 945.605 374.364Z" fill="white"/>
<path d="M865.863 376.036C873.137 376.344 880.45 376.183 887.697 376.745C887.096 385.425 889.783 393.221 887.711 401.861C880.317 401.834 873.244 399.935 865.836 400.47C865.917 392.325 865.73 384.167 865.863 376.036Z" fill="#7FB6F6"/>
<path d="M1309.11 378.31C1308.94 382.215 1309.1 385.304 1305.57 387.778C1304.04 389.156 1301.41 388.126 1301.66 386C1305.75 383.82 1307.09 382.455 1309.11 378.31Z" fill="#2CAD36"/>
<path d="M949.188 379.754C956.181 380.209 963.174 380.115 970.18 380.356C970.273 387.952 970.086 395.562 970.247 403.158C963.294 402.69 955.7 403.492 949.001 401.46C949.375 394.211 948.894 386.989 949.188 379.754Z" fill="#7FB6F6"/>
<path d="M974.178 380.984C980.81 381.773 987.268 382.843 993.98 383.044C994.247 390.159 994.247 397.274 994.528 404.402C987.749 403.559 981.01 403.813 974.205 403.8C974.124 396.19 974.124 388.581 974.178 380.984Z" fill="#7FB6F6"/>
<path d="M1297.01 389.972C1296.24 393.783 1295.55 397.608 1294.74 401.406L1293.52 402.717C1291.73 401.634 1289.5 400.764 1288.08 399.2C1287.21 397.06 1286.7 393.716 1288.09 391.724C1290.91 389.878 1293.79 390.172 1297.01 389.972Z" fill="#2F8D37"/>
<path d="M1357.63 390.146L1360.32 390.373C1361.39 391.643 1362.91 392.847 1363.54 394.398C1363.38 398.29 1360.25 401.807 1356.08 400.711C1354.08 400.216 1348.81 399.949 1350.24 396.752C1350.72 392.406 1354.36 391.924 1357.63 390.146Z" fill="#2F8D37"/>
<path d="M1336.85 391.015C1339.69 392.486 1341.88 393.542 1342.98 396.752C1341.48 396.043 1340 395.321 1338.5 394.585C1337.44 396.257 1336.37 397.929 1335.32 399.587C1329.25 400.042 1322.17 400.537 1316.41 398.223C1322.21 394.144 1330.06 392.66 1336.85 391.015Z" fill="#2F8D37"/>
<path d="M1169.17 393.837C1165.63 396.017 1160.88 396.806 1162.05 402.102C1163.89 406.168 1170.95 406.689 1174.76 408.241L1174.07 411.263C1172.46 412.119 1170.8 412.908 1169.16 413.684C1168.46 411.731 1167.78 409.779 1167.11 407.826C1163.25 406.983 1158.02 405.098 1154.49 407.746C1151.39 409.845 1151.15 415.222 1150.52 418.605C1149.09 411.49 1150.31 403.573 1155.7 398.357C1159.41 394.8 1164.16 393.81 1169.17 393.837Z" fill="#2CAD36"/>
<path d="M1169.17 393.837C1171.22 393.89 1173.27 394.171 1175.28 394.519C1176.94 396.766 1179.07 398.638 1180.67 400.898C1180.39 402.677 1179.92 404.362 1179.46 406.101C1177.57 406.368 1176.26 407.144 1174.76 408.241C1170.95 406.689 1163.89 406.168 1162.05 402.102C1160.88 396.806 1165.63 396.017 1169.17 393.837Z" fill="#2F8D37"/>
<path d="M1175.28 394.519C1183 395.896 1188.01 399.173 1191.94 405.967C1187.79 405.993 1183.61 406.007 1179.46 406.1C1179.92 404.362 1180.39 402.677 1180.67 400.898C1179.07 398.638 1176.94 396.765 1175.28 394.519Z" fill="#2CAD36"/>
<path d="M1173.85 396.913C1170.47 398.825 1168.25 400.684 1165.86 403.76C1164.75 402.222 1162.88 401.032 1164.39 399.013C1166.75 396.057 1170.51 397.127 1173.85 396.913Z" fill="#2CAD36"/>
<path d="M1343.35 400.336C1345.81 401.179 1347.3 401.406 1348.49 403.921C1347.7 404.201 1346.9 404.482 1346.11 404.763C1345.5 406.582 1345.04 408.535 1344.14 410.233C1342.9 411.477 1340.62 411.718 1338.98 412.346C1341.24 412.48 1343.49 412.654 1345.73 412.868C1345.21 415.048 1341.64 414.339 1339.96 414.459C1335.99 414.767 1334.1 409.899 1331.91 407.331C1328.74 407.063 1325.6 406.823 1322.45 406.381C1327.4 406.649 1332.39 406.729 1337.34 406.381C1338.97 406.114 1341.4 406.234 1342.24 404.509C1342.67 403.132 1343.03 401.741 1343.35 400.336Z" fill="#2F8D37"/>
<path d="M1309.11 402.235C1311.1 402.904 1313.03 403.867 1314.97 404.669C1314.99 411.035 1312.92 417.027 1306.48 419.22C1301.97 419.22 1300.51 412.72 1298.67 409.537C1301.73 406.889 1305.18 403.426 1309.11 402.235Z" fill="#2F8D37"/>
<path d="M843.28 403.8C849.484 405.512 855.688 405.284 862.039 405.231C861.946 413.041 863.817 420.557 863.39 428.394C856.798 428.207 850.22 428.327 843.641 428.047C843.454 419.996 842.652 411.811 843.28 403.8Z" fill="#7FB6F6"/>
<path d="M887.818 406.569C887.671 413.911 887.524 421.24 887.497 428.568C880.879 428.515 874.273 428.528 867.655 428.381C867.134 420.491 867.575 412.948 865.783 405.499C873.124 404.964 880.558 405.432 887.818 406.569Z" fill="#7FB6F6"/>
<path d="M949.055 406.595C955.927 406.689 962.92 406.796 969.766 407.438C971.812 415.435 969.632 425.64 969.164 433.744C961.944 434.266 955.526 433.316 948.547 431.537C948.667 423.219 948.935 414.914 949.055 406.595Z" fill="#7FB6F6"/>
<path d="M1167.12 407.826C1167.78 409.778 1168.47 411.731 1169.16 413.684C1170.81 412.908 1172.46 412.119 1174.07 411.263L1173.77 412.293C1173.37 413.108 1172.96 413.938 1172.54 414.753C1173.59 417.763 1174.7 420.758 1175.86 423.727C1173.47 426.977 1170.47 429.451 1166.21 429.237C1165.98 426.028 1165.79 422.818 1165.62 419.608C1162.82 420.772 1159.99 422.27 1157.03 422.925C1154.88 422.336 1152.84 421.2 1150.83 420.237C1150.71 419.702 1150.6 419.153 1150.52 418.605C1151.15 415.221 1151.39 409.845 1154.49 407.746C1158.02 405.098 1163.25 406.983 1167.12 407.826Z" fill="#2F8D37"/>
<path d="M974.245 407.973C980.677 408.281 988.498 406.876 994.488 409.364C994.555 417.883 994.515 426.402 994.662 434.921C987.723 434.721 980.944 433.464 973.951 433.798C974.098 425.118 975.021 416.666 974.245 407.973Z" fill="#7FB6F6"/>
<path d="M1158.87 407.812C1157.57 412.814 1157.61 415.89 1159.03 420.851C1156.74 420.41 1154.57 421.36 1153.7 418.605C1151.62 413.643 1154.11 409.631 1158.87 407.812Z" fill="#2CAD36"/>
<path d="M1173.77 412.292C1174.8 413.443 1175.85 414.593 1176.89 415.73C1182.01 416.906 1186.82 416.211 1191.98 415.796C1187.1 427.405 1173.08 434.145 1160.96 431.27C1155.35 429.906 1152.47 425.452 1150.83 420.237C1152.84 421.199 1154.88 422.336 1157.03 422.925C1159.99 422.269 1162.82 420.771 1165.62 419.608C1165.79 422.818 1165.98 426.027 1166.21 429.237C1170.47 429.451 1173.47 426.977 1175.86 423.727C1174.7 420.758 1173.59 417.762 1172.54 414.753C1172.96 413.937 1173.37 413.108 1173.77 412.292Z" fill="#2CAD36"/>
<path d="M1183.55 442.865C1195.27 443.56 1206.64 449.793 1215.85 456.734C1227.78 465.814 1237.04 478.734 1239.02 493.859C1230.83 488.189 1222.2 483.468 1212.98 479.683C1217.12 475.738 1221.36 469.626 1218.08 463.889C1214.07 461.04 1208.22 463.421 1205.77 467.192C1204.62 470.067 1204.47 473.384 1203.95 476.42C1197.48 474.28 1190.93 472.568 1184.22 471.365C1184.35 468.396 1184.84 465.427 1184.76 462.471C1182.91 456.332 1171.87 455.65 1169.71 461.949C1168.6 464.718 1169.82 468.289 1169.79 471.244C1169.61 473.357 1168.56 475.537 1169.74 477.45C1171.15 479.937 1173.63 479.777 1176.11 480.338C1183.32 481.422 1190.46 482.853 1197.39 485.126C1193.55 487.533 1189.58 489.58 1185.98 492.361C1185.23 489.874 1185.37 485.648 1183.11 484.096C1179.43 482.759 1176.27 483.949 1172.81 485.126C1172.53 487.801 1171.99 490.155 1173.2 492.723C1174.88 495.237 1178.33 495.504 1180.99 496.307C1179.95 497.417 1178.95 498.473 1178.25 499.851C1178.37 501.576 1179.05 503.422 1180.99 503.636C1182.73 504.291 1184.12 502.526 1185.39 501.616C1188.73 498.607 1192.25 495.946 1196.13 493.659C1195.55 497.604 1192.55 502.686 1196.24 505.802C1198.56 508.678 1202.65 508.236 1205.9 507.661L1206.65 506.457C1204.43 506.27 1202.23 506.123 1200.01 506.003C1201.66 505.321 1203.4 504.705 1204.95 503.783C1206.05 502.245 1206.45 500.158 1207.08 498.38C1207.87 498.085 1208.66 497.805 1209.45 497.51C1208.08 493.833 1202.44 493.324 1199.15 492.107C1202.91 490.743 1207.93 487.988 1211.77 490.248C1216.04 492.081 1220.17 494.22 1224.25 496.427C1219.82 497.123 1212.83 495.678 1210.93 501.014C1214.74 499.49 1218.08 498.34 1222.28 498.634C1218.18 501.242 1216.44 503.221 1214.42 507.648C1217.87 508.263 1223.86 510.857 1226.79 508.223C1229.8 505.976 1228.61 502.352 1228.66 499.115C1231.61 501.108 1234.5 503.194 1237.31 505.374C1229.86 512.77 1219.07 516.167 1208.95 517.852C1197.79 519.724 1186.69 518.2 1176.37 513.639C1165.67 508.945 1156.04 501.068 1152.14 489.727C1148.01 477.169 1150.91 461.869 1159.91 452.066C1165.91 445.486 1174.71 442.25 1183.55 442.865Z" fill="#2CAD36"/>
<path d="M1370.35 453.337C1377.38 457.215 1380.91 464.196 1382.39 471.846C1379.16 470.429 1375.92 469.279 1372.54 468.316C1372.73 465.052 1374.09 461.615 1371.31 459.088C1366.95 456.025 1363.33 456.266 1359.61 460.144C1355.76 459.984 1351.87 460.01 1348.02 460.037C1347.02 459.248 1346.03 458.473 1345.02 457.697C1351.49 450.662 1361.91 448.95 1370.35 453.337Z" fill="#2CAD36"/>
<path d="M1197.43 455.143C1202.67 459.596 1202.4 467.982 1198.13 473.037C1192.43 469.453 1188.75 462.926 1190.74 456.199C1191.65 453.163 1195.45 453.377 1197.43 455.143Z" fill="#2F8D37"/>
<path d="M1184.76 462.471C1184.84 465.427 1184.35 468.396 1184.22 471.365C1179.1 470.683 1174.63 468.597 1169.79 471.245C1169.82 468.289 1168.6 464.718 1169.71 461.95C1171.88 455.651 1182.91 456.333 1184.76 462.471Z" fill="#2F8D37"/>
<path d="M1371.31 459.088C1374.09 461.615 1372.73 465.052 1372.54 468.316C1375.92 469.278 1379.16 470.429 1382.39 471.846L1382.45 472.916C1381.2 474.24 1379.92 475.524 1378.64 476.821C1376.64 476.701 1374.65 476.594 1372.66 476.5C1371.59 480.165 1370.65 482.345 1367.65 484.832C1367.3 487.226 1367.46 490.155 1365.61 491.947C1363.6 494.087 1360.04 493.298 1357.47 493.017C1356.58 487.881 1359.7 487.039 1363.15 484.458C1360.43 482.171 1358.66 480.967 1359.64 476.995C1360.57 472.047 1365.27 473.264 1369.06 472.408C1369.6 471.913 1370.13 471.418 1370.67 470.923C1366.26 470.348 1361.92 472.127 1359.58 467.326C1362.22 467.58 1365.48 468.958 1368.03 468.182C1370.4 467.406 1369.28 464.437 1369.22 462.618C1366.07 461.562 1362.93 460.559 1359.61 460.144C1363.33 456.266 1366.95 456.025 1371.31 459.088Z" fill="#2F8D37"/>
<path d="M1218.08 463.889C1221.36 469.626 1217.12 475.738 1212.98 479.683C1210.02 478.466 1207 477.41 1203.95 476.42C1204.47 473.384 1204.62 470.068 1205.77 467.192C1208.22 463.421 1214.07 461.04 1218.08 463.889Z" fill="#2F8D37"/>
<path d="M1217.03 465.386C1213.82 466.47 1210.6 467.486 1207.33 468.396C1210.49 464.664 1212.35 464.704 1217.03 465.386Z" fill="#2CAD36"/>
<path d="M1341.45 465.774C1345.24 468.677 1347.52 472.956 1351.83 474.574C1349.6 476.273 1347.26 477.971 1347.15 481.034C1347.31 483.628 1348.97 486.959 1352.02 486.651C1355.8 485.3 1358.43 481.154 1357.58 477.115C1356.76 475.644 1355.79 474.294 1354.78 472.943C1356.12 470.763 1355.55 468.917 1355.26 466.497C1356.7 466.777 1358.14 467.058 1359.58 467.326C1361.92 472.127 1366.26 470.348 1370.67 470.923C1370.13 471.418 1369.6 471.913 1369.06 472.408C1365.27 473.264 1360.57 472.047 1359.64 476.995C1358.66 480.967 1360.43 482.171 1363.15 484.458C1359.7 487.039 1356.57 487.881 1357.47 493.017C1360.04 493.298 1363.59 494.087 1365.61 491.947C1367.46 490.155 1367.3 487.226 1367.65 484.832C1370.65 482.345 1371.59 480.165 1372.66 476.5C1374.65 476.594 1376.64 476.701 1378.64 476.821C1379.92 475.524 1381.2 474.24 1382.45 472.916C1382.98 479.028 1382.11 484.779 1377.55 489.205C1370.48 496.227 1356.64 498.473 1349.68 490.075C1344.29 483.615 1340.25 474.294 1341.45 465.774Z" fill="#2CAD36"/>
<path d="M1354.78 472.943C1355.79 474.294 1356.76 475.644 1357.58 477.115C1358.43 481.154 1355.8 485.3 1352.02 486.651C1348.97 486.959 1347.31 483.629 1347.15 481.034C1347.26 477.971 1349.6 476.273 1351.83 474.574C1352.81 474.013 1353.79 473.478 1354.78 472.943Z" fill="#2F8D37"/>
<path d="M1038.65 474.187C1038.34 478.025 1038.14 481.863 1038.01 485.715C1083.88 489.165 1128.1 498.794 1168.53 521.463C1185.5 531.212 1206.37 538.943 1220.74 552.183C1231.76 562.895 1241.55 575.4 1251.32 587.209C1252.81 591.328 1251.46 596.343 1251.31 600.703C1249.41 629.47 1248.23 658.344 1248.21 687.178C1253.89 687.151 1259.57 687.178 1265.27 687.125C1265.44 661.126 1264.2 635.421 1267.18 609.516C1270.03 612.726 1272.41 616.257 1274.79 619.814C1294.62 648.822 1312.21 678.351 1331.05 707.947C1337.59 718.272 1343.3 729.065 1348.35 740.192C1366.08 779.136 1375.32 820.421 1390.26 860.075C1395 872.659 1396.53 886.969 1397.84 900.303C1400.57 931.999 1400.57 964.136 1401.01 995.939C1401.33 1016.59 1401.3 1037.52 1403.33 1058.07C1403.65 1061.79 1404.31 1065.2 1405.5 1068.75V1070.83H-2.25977C0.628274 1067.05 3.1152 1062.85 5.53527 1058.76C15.2155 1042.17 24.3877 1025.11 34.5093 1008.79C37.8786 1003.44 41.3951 997.892 45.5132 993.091C61.7317 974.474 79.4744 957.423 97.9124 941.026C96.7759 963.789 95.8667 986.591 95.8935 1009.38C101.402 1009.42 106.924 1009.45 112.446 1009.31C112.526 993.265 112.272 977.216 112.473 961.167C112.887 949.198 114.064 937.255 114.96 925.326C127.849 913.343 139.575 900.263 150.325 886.327C155.072 885.271 159.47 884.107 163.04 880.604C169.766 874.144 173.108 865.184 174.018 856.036C183.069 844.775 191.841 833.274 200.946 822.026C209.463 823.845 218.542 821.478 223.769 814.243C228.102 808.117 226.871 799.665 224.679 792.965C256.554 754.809 290.916 718.566 330.466 688.248C373.8 655.094 421.627 625.886 466.351 594.23C493.761 574.972 522.361 554.55 552.605 540.026C576.886 528.885 602.49 523.242 626.718 512.516C660.719 496.775 699.039 488.309 736.116 483.856C736.223 487.132 736.356 490.422 736.503 493.712C747.788 491.88 759.086 492.87 770.384 491.359C791.336 490.864 812.288 491.118 833.239 490.864C849.498 490.636 865.248 493.391 881.413 494.073C889.877 495.411 898.314 494.849 906.831 495.344C924.908 497.631 943.546 495.21 961.583 497.644C977.12 497.711 992.884 497.805 1008.42 497.925C1017.99 499.396 1027.54 499.089 1037.19 499.062C1037.26 490.69 1036.95 482.452 1038.65 474.187Z" fill="#7AB155"/>
<path d="M1162.11 475.778C1165.52 476.701 1168.75 478.921 1171.27 481.342C1172.4 484.672 1169.55 488.617 1166.14 488.911C1162.56 488.885 1158.79 487.454 1155.39 486.37C1158.05 483.241 1160.79 480.727 1164.31 478.573C1162.69 478.252 1161.05 477.57 1159.4 478.079C1156.39 478.573 1154.63 481.89 1152.65 483.963C1152.11 477.811 1157.01 476.166 1162.11 475.778Z" fill="#2F8D37"/>
<path d="M1183.11 484.097C1185.37 485.648 1185.23 489.874 1185.98 492.362C1184.28 493.646 1182.62 494.943 1180.99 496.307C1178.33 495.505 1174.88 495.237 1173.2 492.723C1171.99 490.155 1172.53 487.801 1172.81 485.126C1176.27 483.95 1179.43 482.759 1183.11 484.097Z" fill="#2F8D37"/>
<path d="M1181.6 485.113C1182.29 486.384 1183.45 487.587 1183.39 489.072C1183.43 491.707 1181.58 492.95 1180.02 494.742C1180.35 491.506 1180.91 488.296 1181.6 485.113Z" fill="#2CAD36"/>
<path d="M1199.15 492.107C1202.44 493.324 1208.08 493.833 1209.45 497.51C1208.66 497.805 1207.87 498.086 1207.08 498.38C1206.45 500.158 1206.05 502.245 1204.95 503.783C1203.4 504.706 1201.66 505.321 1200.01 506.003C1202.23 506.123 1204.43 506.27 1206.65 506.458L1205.9 507.661C1202.65 508.236 1198.56 508.678 1196.24 505.802C1192.55 502.686 1195.55 497.604 1196.13 493.659C1197.11 493.097 1198.11 492.562 1199.15 492.107Z" fill="#2F8D37"/>
<path d="M1224.25 496.427C1225.75 497.283 1227.22 498.166 1228.66 499.115C1228.61 502.352 1229.8 505.976 1226.79 508.223C1223.86 510.858 1217.87 508.263 1214.42 507.648C1216.44 503.221 1218.18 501.242 1222.28 498.634C1218.08 498.34 1214.74 499.49 1210.93 501.014C1212.83 495.678 1219.82 497.123 1224.25 496.427Z" fill="#2F8D37"/>
<path d="M1309.24 508.932C1317.21 509.494 1326.52 515.445 1327.84 523.83C1329.39 531.962 1326.85 540.962 1322.72 547.997C1319.49 553.32 1315.21 557.92 1309.02 559.632C1299.27 562.36 1288.05 560.822 1280.36 553.881C1285.97 549.602 1292.12 546.205 1298.57 543.396C1299.7 544.466 1300.83 545.523 1301.96 546.579C1299.14 549.642 1296.23 551.193 1297.22 555.914C1299.24 555.941 1301.66 556.463 1303.57 555.7C1304.88 554.55 1306.07 553.213 1307.31 551.956C1309.79 551.22 1311.78 551.22 1311.84 548.01C1310.94 545.322 1307.96 543.236 1306.13 541.096C1309.59 539.451 1313.2 538.435 1317.07 538.876C1321.92 540.936 1326.12 533.406 1324.98 529.554C1323.22 525.208 1316.2 529.314 1313.08 530.036C1306.66 531.601 1300.55 533.5 1294.36 535.8C1296.15 531.48 1299.12 528.806 1302.61 525.903C1305.17 527.348 1308.6 531.039 1311.64 529.073C1317.01 525.877 1318.42 520.487 1317.52 514.549C1314.55 515.418 1311.58 516.328 1308.62 517.21C1308.66 516.074 1308.7 514.924 1308.75 513.787C1306.13 515.298 1304.39 517.505 1302.55 519.832C1299.7 520.099 1298.09 520.754 1295.87 522.52C1291.81 522.841 1287.64 521.049 1285.76 525.863C1284.13 529.3 1286.23 530.972 1287.77 533.781C1287.22 535.76 1286.77 537.766 1286.29 539.759C1283.37 541.671 1280.39 543.463 1277.52 545.429C1276.78 537.445 1278.57 529.849 1283.4 523.403C1289.38 515.325 1298.67 508.143 1309.24 508.932Z" fill="#2CAD36"/>
<path d="M1308.75 513.786C1308.7 514.923 1308.66 516.073 1308.62 517.21C1311.58 516.327 1314.55 515.418 1317.52 514.548C1318.42 520.486 1317.01 525.876 1311.64 529.072C1308.6 531.038 1305.17 527.347 1302.61 525.903C1303.27 525.234 1303.91 524.552 1304.54 523.87C1303.87 522.519 1303.21 521.168 1302.54 519.831C1304.39 517.504 1306.13 515.297 1308.75 513.786Z" fill="#2F8D37"/>
<path d="M1295.87 522.52C1292.32 525.81 1289.74 529.354 1287.77 533.78C1286.23 530.972 1284.13 529.3 1285.77 525.863C1287.64 521.049 1291.81 522.841 1295.87 522.52Z" fill="#2F8D37"/>
<path d="M1324.98 529.554C1326.12 533.406 1321.92 540.936 1317.07 538.876C1318.36 536.656 1320.7 534.503 1318.78 531.868C1317.31 529.447 1315.5 530.223 1313.08 530.036C1316.2 529.314 1323.22 525.208 1324.98 529.554Z" fill="#2F8D37"/>
<path d="M1301.96 546.579C1303.8 548.304 1305.57 550.11 1307.3 551.955C1306.07 553.213 1304.88 554.55 1303.57 555.7C1301.66 556.462 1299.24 555.941 1297.22 555.914C1296.23 551.193 1299.14 549.642 1301.96 546.579Z" fill="#2F8D37"/>
<path d="M44.2022 655.268C51.7699 657.14 57.1315 665.312 58.7494 672.534C61.0491 683.54 56.2223 693.504 49.8179 702.116C47.9995 701.1 46.1811 700.124 44.2958 699.228C45.6329 695.349 45.7532 692.006 45.2986 687.967C48.1198 685.185 51.2217 683.393 51.449 679.02C51.5293 676.506 52.0106 672.587 48.9488 671.664C46.4217 670.461 43.7209 673.991 42.4774 675.783C39.7364 679.434 40.3515 683.834 40.0306 688.181C37.1827 690.561 34.2545 692.648 31.0723 694.547C26.7135 692.059 22.4617 690.936 17.9692 693.945C15.6293 695.042 15.8566 698.037 16.4984 700.11C18.4773 703.347 23.6784 703.44 27.0211 704.443C30.0695 704.698 31.0991 707.439 33.6528 708.349C35.0701 708.416 36.474 708.429 37.8779 708.402C38.6133 709.098 39.3754 709.766 40.1376 710.435C34.0941 712.655 28.1709 714.808 21.5926 714.033C17.2606 713.457 13.8377 709.953 11.4711 706.53C6.14962 698.76 5.33401 688.515 9.21147 679.956C12.514 672.681 17.8087 666.234 24.0795 661.313C29.6551 657.007 37.0088 653.463 44.2022 655.268Z" fill="#2CAD36"/>
<path d="M31.3136 663.212C34.4156 662.289 38.1594 662.61 41.2881 663.386C45.0184 665.446 44.1494 671.063 42.0234 673.965C39.4697 676.466 35.7928 678.057 32.3833 679.06C25.1632 676.613 25.2969 666.93 31.3136 663.212Z" fill="#2F8D37"/>
<path d="M34.2953 664.082C33.3594 668.495 33.2925 671.758 34.3087 676.172C33.7204 676.559 33.1321 676.947 32.5438 677.322C30.6184 675.463 28.5861 674.125 28.7599 671.116C29.2012 667.385 30.9393 665.513 34.2953 664.082Z" fill="#2CAD36"/>
<path d="M48.9489 671.665C52.0108 672.588 51.5294 676.506 51.4492 679.02C51.2219 683.394 48.1199 685.186 45.2987 687.967C45.7533 692.006 45.633 695.35 44.296 699.228C41.4748 698.292 35.926 695.952 34.2012 699.589C33.1048 702.384 36.3538 706.223 37.8781 708.403C36.4742 708.429 35.0703 708.416 33.653 708.349C31.0992 707.44 30.0697 704.698 27.0212 704.444C23.6786 703.441 18.4774 703.347 16.4986 700.111C15.8568 698.038 15.6295 695.042 17.9693 693.946C22.4618 690.936 26.7137 692.06 31.0725 694.547C34.2547 692.648 37.1828 690.562 40.0307 688.181C40.3516 683.835 39.7366 679.435 42.4776 675.784C43.721 673.992 46.4219 670.461 48.9489 671.665Z" fill="#2F8D37"/>
<path d="M119.8 674.473C123.169 676.666 124.72 680.438 125.161 684.303C126.231 697.382 117.005 710.729 103.782 712.976L104.704 709.7C105.159 708.964 105.614 708.242 106.082 707.533C107.887 707.266 109.692 707.012 111.51 706.771C109.25 705.567 106.616 704.417 106.295 701.555C105.56 697.743 107.004 695.122 109.25 692.247C109.718 696.74 110.066 700.779 112.727 704.591C117.447 701.301 120.548 695.457 120.522 689.706C120.415 687.566 118.636 686.282 116.577 686.576C112.967 687.579 109.705 690.027 106.456 691.859C105.908 687.526 107.231 680.438 102.859 677.897C99.169 676.385 95.9467 679.034 94.2486 682.109C92.7511 685.48 93.9678 689.545 94.6096 693.022C91.8687 693.183 87.5633 692.367 86.0926 695.336C85.7717 696.58 85.5176 697.837 85.3305 699.108C83.2446 689.826 87.0419 678.873 95.2915 673.791C102.726 669.164 112.54 669.899 119.8 674.473Z" fill="#2CAD36"/>
<path d="M46.3818 673.777C47.4247 673.791 48.4676 673.817 49.5105 673.858C49.4972 676.385 49.4838 678.926 49.4303 681.454C48.3473 678.94 47.2242 676.385 46.3818 673.777Z" fill="#2CAD36"/>
<path d="M19.2666 676.679C22.5691 675.476 27.075 676.572 29.2945 679.354C30.3909 681.467 30.0433 684.543 29.4416 686.777C27.075 692.46 17.7958 692.032 15.2955 686.656C13.9317 683.018 15.2955 678.043 19.2666 676.679Z" fill="#2F8D37"/>
<path d="M102.859 677.896C107.232 680.437 105.908 687.526 106.456 691.859C109.705 690.027 112.967 687.579 116.578 686.576C118.637 686.282 120.415 687.566 120.522 689.706C120.549 695.456 117.447 701.301 112.727 704.591C110.066 700.779 109.718 696.74 109.25 692.247C107.004 695.122 105.56 697.743 106.296 701.555C106.616 704.417 109.25 705.567 111.51 706.771C109.692 707.011 107.887 707.265 106.082 707.533C105.614 708.242 105.159 708.964 104.704 709.699C105.092 707.319 104.517 705.206 104.023 702.919C104.103 701.421 104.263 699.923 104.41 698.439C102.111 698.546 99.7975 698.626 97.5111 698.813L97.4042 698.827C96.3746 700.899 95.9735 704.47 93.6471 705.406C91.8153 705.393 89.9835 705.166 88.1651 704.978C87.0687 703.093 86.0526 701.18 85.3306 699.107C85.5178 697.837 85.7718 696.58 86.0927 695.336C87.5634 692.367 91.8688 693.183 94.6097 693.022C93.9679 689.545 92.7512 685.479 94.2487 682.109C95.9468 679.033 99.1691 676.385 102.859 677.896Z" fill="#2F8D37"/>
<path d="M99.6638 679.515C102.244 678.392 103.18 681.668 104.41 683.273C99.3027 684.37 98.1796 685.105 95.2515 689.264C95.3317 684.931 95.3718 681.695 99.6638 679.515Z" fill="#2CAD36"/>
<path d="M28.2381 680.331C27.837 684.49 28.7329 687.659 23.6387 688.636C25.2699 685.907 26.7941 683.152 28.2381 680.331Z" fill="#2CAD36"/>
<path d="M193.913 686.389C199.528 687.352 204.663 689.853 207.738 694.841C214.931 705.634 215.76 720.519 209.69 731.994C206.361 738.293 200.772 743.255 193.886 745.261C185.168 747.735 176.17 749.3 167.185 750.423C156.689 751.533 146.287 752.309 135.898 749.942C138.773 745.956 141.875 742.171 145.404 738.734C146.554 741.57 147.45 745.341 149.71 747.507C151.822 749.206 154.309 748.283 156.181 746.718C159.711 743.803 160.513 738.868 161.81 734.709C167.372 736.207 173.068 736.434 178.804 736.274C179.432 738.507 179.446 740.994 181.344 742.573C184.219 744.405 188.123 744.565 191.145 742.974C194.488 740.446 195.531 734.695 192.322 731.619C190.918 730.817 189.447 730.295 187.909 729.787C186.92 729.52 185.917 729.266 184.914 729.025L181.933 728.102C183.123 726.604 184.339 725.133 185.583 723.689C185.275 722.605 184.981 721.509 184.674 720.425C186.893 720.158 189.126 719.931 191.359 719.73C191.105 721.709 190.851 723.675 190.597 725.655C191.158 723.689 191.707 721.723 192.268 719.757C195.25 719.743 198.245 719.757 201.226 719.998C197.75 722.258 195.089 725.039 192.736 728.423C196.801 729.413 203.085 732.676 206.481 728.811C209.195 725.467 208.059 722.967 205.01 720.519C206.013 719.275 207.965 718.152 207.818 716.427C207.965 713.912 206.174 712.321 203.794 712.013C194.782 710.596 186.211 711.893 177.373 713.404C178.095 709.419 181.251 704.15 179.339 700.285C176.651 698.64 174.592 696.914 172.573 694.48C167.934 695.002 163.334 697.904 160.299 701.381C158.574 704.444 158.949 708.951 159.47 712.321C160.433 714.982 161.997 715.357 164.658 715.277C167.198 713.591 169.445 711.371 171.744 709.352C171.129 711.371 170.875 713.939 169.605 715.664C161.917 718.674 154.363 721.709 147.504 726.39C146.554 724.451 145.672 722.338 144.415 720.573C140.738 719.636 137.422 720.439 134.013 721.843C134.039 724.01 133.371 727.206 134.828 728.998C136.286 730.443 138.117 731.553 139.775 732.729C136.366 736.14 133.197 739.777 130.296 743.642C126.498 732.128 125.83 717.965 133.398 707.801C140.136 699.723 150.913 694.507 160.607 690.909C170.956 687.232 182.936 684.691 193.913 686.389Z" fill="#2CAD36"/>
<path d="M191.921 690.16C194.702 689.064 198.566 689.625 201.374 690.508C205.96 693.009 204.609 700.472 200.478 702.705C197.871 704.283 193.619 706.931 190.584 705.34C185.717 701.448 186.519 693.156 191.921 690.16Z" fill="#2F8D37"/>
<path d="M194.688 691.003C194.341 693.718 193.766 696.272 194.167 698.974C194.194 700.779 195.116 702.678 193.993 704.189C190.182 704.604 188.444 698.934 189.674 696.018C190.437 693.25 192.522 692.434 194.688 691.003Z" fill="#2CAD36"/>
<path d="M26.9412 693.812C24.3206 695.978 22.2081 698.038 20.7239 701.154C19.681 700.338 18.6381 699.522 17.5952 698.693C18.3974 693.678 22.9836 694.173 26.9412 693.812Z" fill="#2CAD36"/>
<path d="M172.573 694.48C174.592 696.915 176.651 698.64 179.339 700.285C178.042 700.031 176.731 699.91 175.421 699.897C173.001 701.836 172.667 706.477 171.744 709.352C169.444 711.372 167.198 713.592 164.658 715.277C161.997 715.357 160.433 714.982 159.47 712.321C158.948 708.951 158.574 704.444 160.299 701.381C163.334 697.904 167.934 695.002 172.573 694.48Z" fill="#2F8D37"/>
<path d="M44.2961 699.228C46.1813 700.124 47.9997 701.1 49.8181 702.117C65.4617 711.024 76.3453 727.046 89.0339 739.63C91.2 730.282 93.2858 720.907 95.5721 711.585C96.6017 708.764 96.6686 703.04 100.466 702.652L104.022 702.919C104.517 705.206 105.092 707.319 104.704 709.7L103.782 712.976C100.84 723.97 98.3934 735.07 95.8797 746.157C102.659 756.508 107.365 766.445 110.895 778.307C111.71 777.131 112.486 775.914 113.074 774.59C117.674 763.73 123.343 753.178 130.295 743.642C133.197 739.777 136.366 736.14 139.775 732.729L140.992 731.486C142.262 730.362 143.586 729.292 144.923 728.249C145.765 727.621 146.621 726.992 147.503 726.39C154.362 721.709 161.917 718.674 169.605 715.664C170.875 713.939 171.129 711.372 171.744 709.352C172.667 706.477 173.001 701.836 175.421 699.897C176.731 699.91 178.042 700.03 179.339 700.285C181.251 704.15 178.095 709.419 177.373 713.404C186.211 711.893 194.782 710.596 203.793 712.013C206.173 712.321 207.965 713.913 207.818 716.427C207.965 718.152 206.013 719.275 205.01 720.519C203.753 720.305 202.496 720.131 201.226 719.998C198.245 719.757 195.25 719.743 192.268 719.757C191.706 721.723 191.158 723.689 190.597 725.655C190.851 723.675 191.105 721.709 191.359 719.73C189.126 719.931 186.893 720.158 184.674 720.426C176.865 722.057 168.749 724.09 161.743 728.008C168.883 730.563 177.494 729.747 184.914 729.025C185.917 729.266 186.92 729.52 187.909 729.787C187.628 731.927 188.658 734.401 186.064 735.324C183.751 736.033 181.184 736.086 178.804 736.274C173.068 736.434 167.372 736.207 161.81 734.709C159.51 733.732 157.344 732.556 155.098 731.499C151.528 733.492 148.439 736.019 145.404 738.734C141.874 742.171 138.772 745.956 135.898 749.942C127.608 761.563 121.364 775.084 116.35 788.405C115.534 790.745 114.518 792.778 115.12 795.332C116.711 804.386 117.794 813.414 118.556 822.561C129.079 805.603 141.714 789.755 157.277 777.157C166.048 770.136 176.624 763.543 187.682 761.042C192.95 760.025 195.718 766.793 191.519 769.949C186.786 772.156 180.475 773.426 176.544 776.997C181.304 779.672 185.944 782.52 190.182 785.984L192.789 788.057C199.047 788.498 206.628 787.856 212.444 790.384C214.597 791.24 214.303 793.086 213.942 794.985C211.936 797.967 207.016 795.413 204.141 795.319C202.844 795.065 201.534 794.797 200.223 794.53C200.29 796.763 200.839 798.703 199.729 800.749C198.713 801.284 197.696 801.819 196.707 802.38C192.495 800.588 190.343 796.643 186.599 793.714C180.89 789.033 174.565 784.821 167.746 781.959C157.652 789.06 148.707 798.087 140.912 807.609C132.769 817.653 125.536 828.713 120.308 840.563C119.251 842.85 119.559 845.043 119.505 847.49C119.666 856.959 119.171 866.387 118.529 875.829C120.508 874.291 122.474 872.7 124.506 871.229C127.207 869.397 130.015 867.725 132.823 866.026C133.264 864.355 133.705 862.683 134.186 861.025C135.791 856.304 138.612 852.439 142.209 849.028C144.281 847.423 146.153 846.715 148.707 846.193C149.375 847.851 149.977 849.523 150.565 851.208C146.447 854.084 142.904 857.133 140.845 861.84C146.902 859.807 152.918 857.761 159.163 856.357C160.607 856.357 162.051 856.384 163.495 856.424C166.075 860.182 166.102 862.335 161.984 864.689C158.695 865.023 155.512 865.719 152.344 866.642C154.028 868.902 156.061 870.908 157.732 873.181C158.146 875.508 156.89 876.378 155.232 877.688C152.598 876.565 150.833 875.294 148.881 873.208C147.557 871.897 146.247 870.6 144.909 869.303C138.679 872.111 132.689 875.348 127.247 879.521C123.891 882.637 116.858 886.408 117.406 891.61C116.711 902.858 115.802 914.092 114.959 925.326C114.064 937.255 112.887 949.198 112.473 961.168C112.272 977.216 112.526 993.265 112.446 1009.31C106.924 1009.45 101.402 1009.42 95.893 1009.38C95.8663 986.591 96.7755 963.789 97.912 941.027C98.6741 927.666 99.6101 914.292 101.067 900.985C102.685 886.355 103.193 871.59 103.434 856.852C103.287 854.271 103.942 851.944 102.204 849.817C97.5243 843.224 91.6279 837.406 85.3303 832.364C82.83 830.412 80.2495 828.553 77.6556 826.734C75.2757 825.129 72.8021 823.658 70.2751 822.321C66.1837 820.381 62.119 817.974 57.7602 816.73C54.3374 816.837 50.861 818.282 47.7591 819.606C46.7429 820.061 45.7535 820.595 44.7908 821.157C40.2047 823.765 36.4877 827.389 32.3295 830.532C29.8559 831.495 28.2113 829.676 27.73 827.389C28.3049 826.186 29.0002 825.062 29.8559 823.992C31.5005 822.628 33.1985 821.304 34.8966 820.007C38.159 817.319 41.876 815.46 45.4861 813.334L45.2989 812.21C37.5974 809.696 29.642 808.84 21.8202 807.101C17.7556 805.256 18.7984 801.631 20.3093 798.328C24.735 797.272 28.8264 798.301 33.1718 799.117C39.817 800.348 46.315 801.992 52.7329 804.119C55.7547 805.109 58.763 806.152 61.6912 807.355C70.6361 811.073 79.1665 815.674 87.0819 821.251C92.8713 825.423 98.1661 830.144 103.14 835.267C102.511 818.523 100.854 801.03 96.1203 784.901C92.3231 772.209 86.1459 759.143 74.9013 751.439C64.6996 744.498 53.0003 743.937 41.1005 745.167C36.7685 745.595 32.4364 745.809 28.091 745.622C25.0692 743.696 24.1467 743.014 24.0664 739.176L24.4007 737.464C25.7378 736.875 27.0748 736.287 28.4386 735.779C32.6503 735.565 36.8621 735.605 41.0872 735.551C49.056 735.658 57.0249 735.859 64.9803 736.1C57.3056 726.818 49.9786 717.564 40.1379 710.435C39.3757 709.767 38.6136 709.098 37.8782 708.402C36.354 706.223 33.1049 702.384 34.2013 699.589C35.9261 695.951 41.4749 698.292 44.2961 699.228Z" fill="#591E12"/>
<path d="M97.4041 698.826L97.5111 698.813C99.7974 698.626 102.111 698.545 104.41 698.438C104.263 699.923 104.103 701.421 104.022 702.919L100.466 702.651C96.6687 703.039 96.6018 708.763 95.5723 711.585C92.8715 709.619 90.291 707.559 88.165 704.978C89.9834 705.166 91.8152 705.393 93.647 705.406C95.9734 704.47 96.3746 700.899 97.4041 698.826Z" fill="#2CAD36"/>
<path d="M153.788 701.983C158.24 706.677 158.748 717.858 151.221 719.69C153.521 715.985 155.459 713.23 155.272 708.63C153.32 712.294 151.956 714.193 148.119 716.039C148.119 717.283 148.105 718.513 148.092 719.757C143.814 716.494 143.065 709.258 144.482 704.404C145.672 700.418 151.1 697.703 153.788 701.983Z" fill="#2F8D37"/>
<path d="M163.843 700.378C164.364 704.323 165.233 708.228 165.701 712.187C164.926 713.698 162.706 714.086 161.85 712.561C159.778 708.416 160.54 703.668 163.843 700.378Z" fill="#2CAD36"/>
<path d="M144.415 720.572C145.672 722.338 146.554 724.451 147.503 726.39C146.621 726.992 145.765 727.62 144.923 728.249C144.562 725.868 144.174 723.715 142.837 721.682C142.142 724.932 141.66 728.222 140.992 731.485L139.775 732.729C138.117 731.552 136.285 730.442 134.828 728.998C133.371 727.206 134.039 724.009 134.012 721.843C137.422 720.439 140.738 719.636 144.415 720.572Z" fill="#2F8D37"/>
<path d="M184.674 720.426C184.981 721.509 185.275 722.606 185.583 723.689C184.339 725.133 183.123 726.604 181.933 728.102L184.914 729.025C177.494 729.747 168.883 730.563 161.743 728.009C168.749 724.09 176.865 722.057 184.674 720.426Z" fill="#2F8D37"/>
<path d="M201.226 719.998C202.496 720.131 203.753 720.305 205.01 720.519C208.059 722.967 209.195 725.467 206.481 728.811C203.085 732.676 196.8 729.413 192.736 728.423C195.089 725.039 197.75 722.258 201.226 719.998Z" fill="#2F8D37"/>
<path d="M142.837 721.683C144.174 723.715 144.562 725.869 144.923 728.249C143.586 729.292 142.262 730.362 140.992 731.486C141.661 728.222 142.142 724.932 142.837 721.683Z" fill="#2CAD36"/>
<path d="M17.8093 723.755C15.9507 725.12 13.397 726.457 12.2337 728.516C12.1936 729.988 12.207 731.459 12.2605 732.943C13.7847 730.777 14.6003 727.433 17.4482 726.845C19.3602 726.016 20.7508 726.457 22.5692 727.166C19.2132 729.292 17.1541 731.619 15.0683 734.963C18.1703 735.859 21.2722 736.688 24.4009 737.464L24.0667 739.175C22.2884 741.048 20.3363 742.612 18.3441 744.244C17.7558 742.011 18.2906 738.012 15.9374 736.875C12.5546 735.899 8.65042 736.287 5.18745 736.541C6.32395 737.25 7.46044 737.945 8.61031 738.654C7.68774 742.706 7.99525 745.916 8.95793 749.901C7.00583 749.714 5.42812 750.516 4.25151 748.47C2.4866 745.836 4.0242 741.543 4.05094 738.534C1.8448 740.727 1.26988 743.442 0.467646 746.344C-0.227622 739.831 0.855382 733.264 5.57519 728.436C8.89108 725.106 13.2098 723.902 17.8093 723.755Z" fill="#2CAD36"/>
<path d="M17.8088 723.755C19.4266 723.729 21.0712 723.836 22.7292 724.076C25.2027 725.882 27.7164 727.741 29.869 729.921C30.2701 731.82 28.9465 733.946 28.4384 735.779C27.0746 736.287 25.7375 736.875 24.4005 737.464C21.2718 736.688 18.1698 735.859 15.0678 734.963C17.1536 731.619 19.2127 729.292 22.5687 727.166C20.7503 726.457 19.3598 726.016 17.4478 726.845C14.5999 727.433 13.7843 730.777 12.26 732.943C12.2065 731.459 12.1932 729.988 12.2333 728.517C13.3965 726.457 15.9503 725.12 17.8088 723.755Z" fill="#2F8D37"/>
<path d="M22.7295 724.076C30.5513 724.879 37.3435 728.423 41.0873 735.551C36.8622 735.604 32.6504 735.564 28.4387 735.778C28.9468 733.946 30.2705 731.82 29.8694 729.921C27.7167 727.741 25.203 725.882 22.7295 724.076Z" fill="#2CAD36"/>
<path d="M187.91 729.787C189.447 730.295 190.918 730.817 192.322 731.619C195.531 734.695 194.488 740.446 191.145 742.974C188.123 744.565 184.219 744.405 181.345 742.572C179.446 740.994 179.433 738.507 178.804 736.273C181.184 736.086 183.751 736.033 186.064 735.324C188.658 734.401 187.629 731.927 187.91 729.787Z" fill="#2F8D37"/>
<path d="M155.098 731.499C157.344 732.556 159.51 733.732 161.81 734.709C160.513 738.868 159.711 743.803 156.181 746.718C154.309 748.283 151.822 749.206 149.71 747.507C147.45 745.341 146.554 741.569 145.404 738.734C148.439 736.019 151.528 733.492 155.098 731.499Z" fill="#2F8D37"/>
<path d="M5.18709 736.541C8.65006 736.287 12.5543 735.899 15.937 736.875C18.2902 738.012 17.7554 742.011 18.3437 744.244C20.3359 742.613 22.288 741.048 24.0663 739.176C24.1465 743.014 25.0691 743.696 28.0909 745.622C27.1415 748.417 26.3259 751.654 24.6145 754.074C22.9566 756.415 19.9081 757.525 17.4479 758.862C15.0278 755.866 15.7632 752.309 15.5894 748.725C12.7414 749.968 9.89351 751.426 6.91188 752.322C4.679 751.734 2.70016 749.902 0.881769 748.551L0.467285 746.344C1.26952 743.442 1.84444 740.727 4.05058 738.534C4.02384 741.543 2.48624 745.836 4.25115 748.471C5.42776 750.517 7.00547 749.714 8.95757 749.902C7.99489 745.916 7.68738 742.706 8.60995 738.654C7.46008 737.945 6.32359 737.25 5.18709 736.541Z" fill="#2F8D37"/>
<path d="M28.0914 745.622C32.4368 745.809 36.7689 745.595 41.1009 745.167C36.555 756.428 22.7967 762.901 11.1776 760.266C5.26786 758.875 2.33971 754.074 0.882324 748.551C2.70072 749.901 4.67955 751.734 6.91244 752.322C9.89407 751.426 12.742 749.968 15.5899 748.724C15.7637 752.309 15.0284 755.866 17.4484 758.862C19.9086 757.524 22.9571 756.414 24.6151 754.074C26.3265 751.653 27.1421 748.417 28.0914 745.622Z" fill="#2CAD36"/>
<path d="M32.3428 771.473C43.8281 771.914 55.2198 778.093 64.2449 784.86C76.0912 793.834 84.9024 806.325 87.0818 821.251C79.1665 815.674 70.636 811.073 61.6911 807.355C63.3357 805.456 65.1942 803.517 66.4243 801.323C67.8149 798.796 67.3202 795.533 67.3202 792.724C64.3786 793.54 61.4371 794.396 58.509 795.238C58.509 794.155 58.509 793.072 58.509 791.989C53.0137 794.57 53.7758 798.97 52.7329 804.119C46.315 801.992 39.8169 800.347 33.1718 799.117C33.4926 795.867 34.4286 792.082 33.4927 788.939C30.1901 784.941 22.3683 784.339 19.7611 789.421C18.1031 792.631 19.253 795.212 20.3093 798.328C18.7984 801.631 17.7555 805.255 21.8202 807.101C29.6419 808.84 37.5974 809.696 45.2989 812.21L45.486 813.333C41.876 815.46 38.159 817.319 34.8966 820.007C34.4954 817.185 35.0035 813.106 32.1823 811.501C29.2408 810.913 24.4141 810.739 22.4085 813.454C21.3255 815.513 22.1009 819.579 23.9327 821.077C25.7645 822.254 27.8636 823.096 29.8559 823.992C29.0001 825.062 28.3049 826.185 27.7299 827.389C28.2113 829.676 29.8559 831.495 32.3294 830.532C36.4877 827.389 40.2047 823.765 44.7908 821.157C44.5768 824.474 42.3172 829.475 44.8309 832.164C46.4755 834.718 50.4064 835.52 53.2276 834.985C55.5541 834.598 57.0516 832.418 58.6962 830.853C62.4666 834.705 67.6678 836.818 73.0294 836.122C77.5352 834.611 77.0004 830.559 77.6556 826.734C80.2495 828.553 82.83 830.412 85.3303 832.364C81.4127 836.029 77.2678 838.663 72.2539 840.562C60.5948 845.056 47.2108 846.861 35.0169 843.518C24.3205 840.696 13.7978 834.999 7.09917 825.998C-2.63459 813.293 -1.01674 793.406 9.09139 781.41C14.814 774.576 23.4781 770.992 32.3428 771.473Z" fill="#2CAD36"/>
<path d="M217.017 783.095C220.533 785.636 222.78 789.127 224.678 792.965C226.871 799.665 228.101 808.118 223.769 814.243C218.541 821.478 209.463 823.845 200.946 822.026C193.378 818.442 189.795 811.14 187.374 803.53C186.305 800.307 186.345 797.071 186.599 793.714C190.343 796.643 192.495 800.588 196.707 802.38C192.977 805.015 190.637 808.652 193.966 812.825C197.001 816.476 201.226 811.648 202.202 808.652C203.272 805.202 201.534 803.37 199.729 800.748C200.839 798.702 200.29 796.763 200.224 794.53C201.534 794.797 202.844 795.065 204.141 795.319C206.829 800.093 210.719 798.662 215.239 798.488C214.744 799.063 214.249 799.625 213.741 800.2C210.104 801.016 205.264 799.852 204.409 804.654C203.433 808.612 205.171 809.856 207.925 812.09C206 813.547 201.681 815.139 202.109 818.054C202.176 821.946 208.219 821.478 210.051 819.311C212.484 817.292 211.388 814.791 211.334 812.063C212.658 811.314 213.982 810.578 215.306 809.843C215.653 807.917 215.987 805.991 216.322 804.065C219.277 804.039 224.05 805.978 225.093 801.979C225.748 798.141 219.892 796.937 217.244 796.054C217.137 793.62 217.151 791.146 216.79 788.739C215.372 785.609 210.586 784.74 207.658 786.091C202.831 787.883 197.884 788.083 192.79 788.057L190.182 785.984C196.787 778.361 208.941 777.197 217.017 783.095Z" fill="#2CAD36"/>
<path d="M44.3229 781.517C43.6544 782.895 42.9725 784.245 42.2906 785.609C44.0288 786.88 45.7803 788.137 47.5319 789.381C48.294 788.659 49.0427 787.937 49.7915 787.201C50.4868 792.403 50.3397 795.894 47.9864 800.642C41.4616 798.809 38.4532 790.718 40.0711 784.58C40.5524 782.36 42.5848 782.36 44.3229 781.517Z" fill="#2F8D37"/>
<path d="M33.4931 788.94C34.4291 792.082 33.4931 795.867 33.1722 799.117C28.8268 798.301 24.7354 797.272 20.3098 798.328C19.2535 795.212 18.1036 792.631 19.7616 789.421C22.3688 784.339 30.1906 784.941 33.4931 788.94Z" fill="#2F8D37"/>
<path d="M207.658 786.091C210.586 784.74 215.372 785.609 216.79 788.739C217.151 791.146 217.137 793.62 217.244 796.054C219.892 796.937 225.748 798.141 225.093 801.979C224.05 805.978 219.277 804.039 216.322 804.065C215.987 805.991 215.653 807.917 215.306 809.843C213.982 810.578 212.658 811.314 211.334 812.063C211.388 814.791 212.484 817.292 210.051 819.311C208.219 821.478 202.176 821.946 202.109 818.054C201.681 815.139 206 813.547 207.925 812.09C205.171 809.856 203.433 808.612 204.409 804.654C205.264 799.852 210.104 801.016 213.741 800.2C214.249 799.625 214.744 799.063 215.239 798.488C210.719 798.662 206.829 800.093 204.141 795.319C207.016 795.412 211.936 797.967 213.942 794.984C214.303 793.085 214.597 791.24 212.444 790.384C206.628 787.856 199.047 788.498 192.79 788.057C197.884 788.084 202.831 787.883 207.658 786.091Z" fill="#2F8D37"/>
<path d="M58.509 791.989C58.509 793.072 58.509 794.155 58.509 795.239C61.4371 794.396 64.3787 793.54 67.3202 792.724C67.3202 795.533 67.8149 798.796 66.4244 801.324C65.1943 803.517 63.3358 805.456 61.6912 807.355C58.763 806.152 55.7547 805.108 52.7329 804.119C53.7758 798.97 53.0137 794.57 58.509 791.989Z" fill="#2F8D37"/>
<path d="M199.729 800.748C201.534 803.369 203.272 805.202 202.202 808.652C201.226 811.648 197.001 816.476 193.966 812.825C190.637 808.652 192.976 805.014 196.707 802.38C197.696 801.818 198.712 801.283 199.729 800.748Z" fill="#2F8D37"/>
<path d="M12.1803 803.544C16.0578 804.427 19.0795 807.275 21.7403 810.057C20.4433 812.852 19.6946 815.834 16.138 816.329C12.9826 816.343 9.76026 815.473 6.85885 814.27C4.35856 813.186 1.9786 810.605 3.20869 807.73C4.77305 804.801 9.07836 803.544 12.1803 803.544Z" fill="#2F8D37"/>
<path d="M14.48 806.258C11.1775 807.89 9.50614 809.361 7.4337 812.384C6.44428 811.501 5.45487 810.618 4.49219 809.696C6.88552 805.122 10.0142 805.897 14.48 806.258Z" fill="#2CAD36"/>
<path d="M32.1828 811.501C35.004 813.106 34.4959 817.185 34.897 820.007C33.1989 821.304 31.5009 822.628 29.8563 823.992C27.8641 823.096 25.7649 822.254 23.9331 821.077C22.1014 819.579 21.3259 815.513 22.4089 813.454C24.4145 810.739 29.2412 810.913 32.1828 811.501Z" fill="#2F8D37"/>
<path d="M57.7604 816.73C62.1192 817.974 66.1839 820.382 70.2753 822.321C66.6652 823.564 63.1622 824.942 59.6724 826.467C56.7176 821.465 53.1209 820.729 47.7593 819.606C50.8612 818.282 54.3376 816.837 57.7604 816.73Z" fill="#2CAD36"/>
<path d="M47.7595 819.605C53.1211 820.729 56.7178 821.464 59.6727 826.466C63.1624 824.942 66.6655 823.564 70.2755 822.32C72.8025 823.658 75.2761 825.129 77.6561 826.734C77.0009 830.559 77.5357 834.611 73.0298 836.122C67.6683 836.818 62.4671 834.704 58.6966 830.853C57.0521 832.418 55.5545 834.598 53.2281 834.985C50.4069 835.52 46.4759 834.718 44.8314 832.163C42.3177 829.475 44.5773 824.474 44.7912 821.157C45.7539 820.595 46.7433 820.06 47.7595 819.605Z" fill="#2F8D37"/>
<path d="M56.45 824.781C56.7575 826.707 57.4528 828.245 56.4634 830.104C55.5675 832.498 53.709 832.311 51.6099 832.993C54.1235 830.519 55.2734 828.071 56.45 824.781Z" fill="#2CAD36"/>
<path d="M70.6359 826.346C67.2131 827.951 65.6621 829.275 63.5896 832.418C62.5467 831.548 61.5038 830.692 60.4609 829.836C62.8409 825.744 66.3306 824.928 70.6359 826.346Z" fill="#2CAD36"/>
<path d="M151.327 835.881C158.721 834.972 166.169 838.355 170.782 844.093C173.442 847.717 173.75 851.702 174.017 856.036C173.108 865.183 169.765 874.144 163.04 880.603C159.47 884.107 155.071 885.271 150.325 886.327C141.875 886.822 133.638 885.458 127.247 879.52C132.689 875.347 138.679 872.111 144.91 869.302C146.247 870.6 147.557 871.897 148.881 873.208C147.303 874.224 145.578 875.16 144.188 876.431C142.77 878.022 142.958 880.75 144.963 881.767C148.694 882.222 152.17 879.52 155.232 877.688C156.89 876.377 158.146 875.508 157.732 873.181C156.061 870.907 154.028 868.901 152.344 866.641C155.512 865.718 158.695 865.023 161.984 864.688C163.695 864.782 165.42 864.782 167.131 864.702C170.394 861.773 170.915 858.269 170.126 854.096C166.089 853.628 162.84 855.006 159.163 856.357C152.919 857.761 146.902 859.807 140.845 861.84C142.904 857.132 146.447 854.083 150.565 851.208C151.582 854.431 152.838 856.544 156.676 855.889C162.104 853.241 165.006 846.888 163.187 841.057C161.422 838.917 158.146 838.997 155.74 839.827C152.919 840.963 150.739 844.013 148.707 846.192C146.153 846.714 144.281 847.423 142.209 849.028C139.067 849.188 135.51 847.918 133.331 850.82C130.55 854.217 132.983 857.587 134.186 861.024C133.705 862.682 133.264 864.354 132.823 866.026C130.015 867.724 127.207 869.396 124.506 871.228C123.543 862.375 126.017 854.685 131.686 847.918C136.607 841.993 143.479 836.791 151.327 835.881Z" fill="#2CAD36"/>
<path d="M155.739 839.827C158.146 838.997 161.422 838.917 163.187 841.057C165.005 846.888 162.104 853.241 156.675 855.889C152.838 856.544 151.581 854.431 150.565 851.208C149.977 849.523 149.375 847.851 148.707 846.193C150.739 844.013 152.918 840.963 155.739 839.827Z" fill="#2F8D37"/>
<path d="M161.877 842.448C157.304 843.063 154.79 844.214 151.167 846.915C153.641 842.876 157.023 839.399 161.877 842.448Z" fill="#2CAD36"/>
<path d="M142.209 849.028C138.612 852.439 135.791 856.304 134.186 861.025C132.983 857.588 130.549 854.217 133.331 850.82C135.51 847.918 139.067 849.189 142.209 849.028Z" fill="#2F8D37"/>
<path d="M170.126 854.097C170.915 858.269 170.394 861.773 167.131 864.702C165.42 864.782 163.695 864.782 161.984 864.689C166.102 862.335 166.075 860.182 163.495 856.424C162.051 856.384 160.607 856.357 159.163 856.357C162.839 855.006 166.089 853.629 170.126 854.097Z" fill="#2F8D37"/>
<path d="M148.88 873.208C150.833 875.294 152.597 876.565 155.231 877.688C152.17 879.52 148.693 882.222 144.963 881.767C142.957 880.751 142.77 878.023 144.187 876.431C145.578 875.161 147.303 874.224 148.88 873.208Z" fill="#2F8D37"/>
</svg>
