<svg width="265" height="286" viewBox="0 0 265 286" fill="none" xmlns="http://www.w3.org/2000/svg">
<path d="M161.753 0.780225C164.927 -0.713109 169.62 1.64689 168.887 5.48689C166.94 14.8869 166.5 24.3402 163.847 33.5269C163.007 36.0469 162.353 38.8202 159.607 39.8869C156.327 40.8869 153.007 38.2202 153.113 34.8602C153.673 32.0736 154.647 29.4069 155.287 26.6336C156.887 20.0869 157.287 13.3936 158.473 6.80689C159.02 4.51356 159.367 1.88689 161.753 0.780225Z" fill="#FEEB41"/>
<path d="M50.62 29.7532C52.9 29.6065 54.0867 30.9532 55.5 32.4865C62.2467 40.0998 69.6334 46.5398 74.9267 55.5665C77.1 59.4598 73.6334 64.3265 69.18 63.0732C66.1267 61.6465 64.5 57.4865 62.2734 55.0332C57.6867 49.0198 51.6867 44.2065 47.1934 38.1665C44.58 35.1665 46.7134 30.1265 50.62 29.7532Z" fill="#FEEB41"/>
<path d="M127.166 57.14C147.26 54.4333 169.953 56.6866 187.873 66.7666C198.366 72.6733 206.526 81.4333 211.66 92.34C220.686 111.047 221.273 133.22 217.006 153.26C212.5 174.007 202.86 194.407 188.393 210.073C178.046 221.273 164.246 230.407 149.153 233.407C133.886 236.407 118.5 233.073 104.913 225.873C87.1531 216.38 72.5931 200.927 63.8065 182.847C55.6465 166.26 53.6865 146.407 54.9398 128.18C55.9798 113.487 60.7398 99.3266 70.2332 87.9266C84.4465 70.54 105.1 60.2466 127.166 57.14Z" fill="#FEEB41"/>
<path d="M131.153 69.1401C146.073 67.5801 161.9 69.0601 175.82 74.8468C184.833 78.7268 193.647 84.7535 198.247 93.6868C206.327 107.753 208.313 124.22 206.673 140.18C204.367 160.687 196.433 180.993 183.487 197.153C174.567 208.353 161.94 218.14 147.633 220.94C136.98 223.407 125.473 220.54 115.58 216.393C97.42 208.527 82.4467 193.273 73.8867 175.527C66.8067 160.527 66.1134 144.433 67.1134 128.14C68.1001 116.047 72.1934 104.447 80.2467 95.2601C93.0734 80.0068 111.567 71.4601 131.153 69.1401Z" fill="#FEEFB6"/>
<path d="M253.167 74.8335C255.5 74.2735 257.393 73.4735 259.46 75.2335C261.807 77.2602 262.193 81.8602 259.313 83.6068C256.42 84.8868 253.26 85.5401 250.287 86.6735C245.873 88.2601 241.673 90.8335 237.14 91.9801C233.207 92.5268 230.393 87.9268 232.193 84.5001C233.113 82.4735 235.087 82.0468 236.94 81.1535C242.46 78.9401 247.42 76.4335 253.167 74.8335Z" fill="#FEEB41"/>
<path d="M5.1531 128.473C13.6731 129.246 22.1798 132.393 30.2331 135.166C32.3664 136.073 34.8864 136.593 35.9531 138.886C37.8331 142.246 34.6598 147.206 30.7531 146.233C24.4064 144.313 18.3264 141.673 11.8198 140.193C8.65977 139.326 5.17977 139.126 2.13977 137.886C-1.35356 134.7 -0.0335665 128.5 5.1531 128.473Z" fill="#FEEB41"/>
<path d="M238.487 174.753C243.447 176.647 247.727 180.033 252.714 181.967C255.914 183.34 259.407 183.993 262.567 185.447C266.314 187.967 264.674 195.233 259.834 195.02C251.207 193.22 243.86 189.38 236.314 185.007C234.807 184.073 233.434 183.327 232.874 181.513C232.247 178.047 234.78 174.473 238.487 174.753Z" fill="#FEEB41"/>
<path d="M59.1532 227.487C63.3265 226.327 66.9799 230.793 65.0465 234.713C62.6865 237.967 58.8065 240.087 56.1132 243.113C52.8732 246.127 50.7132 250.207 47.4199 253.087C43.1399 255.633 38.4999 250.3 40.7265 246.233C45.3132 238.793 51.6465 232.047 59.1532 227.487Z" fill="#FEEB41"/>
<path d="M173.9 251.02C174.327 257.62 173.847 264.233 174.713 270.82C174.847 274.5 176.58 279.006 175.5 282.54C173.727 286.7 167.38 286.126 166.353 281.753C164.327 272.046 163.74 260.873 164.247 250.993C165.127 245.98 173.113 245.913 173.9 251.02Z" fill="#FEEB41"/>
</svg>
